%TF.GenerationSoftware,KiCad,Pcbnew,7.0.6*%
%TF.CreationDate,2023-07-24T13:39:50-06:00*%
%TF.ProjectId,PuyoPuya,5075796f-5075-4796-912e-6b696361645f,rev?*%
%TF.SameCoordinates,Original*%
%TF.FileFunction,Soldermask,Bot*%
%TF.FilePolarity,Negative*%
%FSLAX46Y46*%
G04 Gerber Fmt 4.6, Leading zero omitted, Abs format (unit mm)*
G04 Created by KiCad (PCBNEW 7.0.6) date 2023-07-24 13:39:50*
%MOMM*%
%LPD*%
G01*
G04 APERTURE LIST*
%ADD10O,1.700000X1.700000*%
%ADD11R,1.700000X1.700000*%
%ADD12C,0.660400*%
%ADD13O,2.616200X1.117600*%
%ADD14O,2.200000X1.120000*%
%ADD15C,1.050000*%
G04 APERTURE END LIST*
D10*
%TO.C,J4*%
X130810000Y-62941200D03*
X130810000Y-60401200D03*
X133350000Y-62941200D03*
D11*
X133350000Y-60401200D03*
%TD*%
D12*
%TO.C,J3*%
X115687901Y-52854200D03*
X115687901Y-53704201D03*
X115687901Y-54554199D03*
X115687901Y-55404200D03*
X115687901Y-56254201D03*
X115687901Y-57104202D03*
X115687901Y-57954200D03*
X115687901Y-58804201D03*
X114337901Y-58804201D03*
X114337901Y-57954200D03*
X114337901Y-57104202D03*
X114337901Y-56254201D03*
X114337901Y-55404200D03*
X114337901Y-54554199D03*
X114337901Y-53704201D03*
X114337901Y-52854200D03*
D13*
X114707900Y-51504200D03*
D14*
X111322901Y-51504215D03*
D13*
X114707901Y-60154185D03*
D14*
X111322901Y-60154185D03*
%TD*%
D11*
%TO.C,JP1*%
X110744000Y-63093600D03*
D10*
X110744000Y-65633600D03*
%TD*%
D15*
%TO.C,REF\u002A\u002A*%
X162084000Y-78264000D03*
%TD*%
%TO.C,REF\u002A\u002A*%
X110204000Y-78264000D03*
%TD*%
D11*
%TO.C,J1*%
X156718000Y-74930000D03*
D10*
X159258000Y-74930000D03*
X156718000Y-72390000D03*
X159258000Y-72390000D03*
X156718000Y-69850000D03*
X159258000Y-69850000D03*
X156718000Y-67310000D03*
X159258000Y-67310000D03*
X156718000Y-64770000D03*
X159258000Y-64770000D03*
X156718000Y-62230000D03*
X159258000Y-62230000D03*
X156718000Y-59690000D03*
X159258000Y-59690000D03*
X156718000Y-57150000D03*
X159258000Y-57150000D03*
X156718000Y-54610000D03*
X159258000Y-54610000D03*
X156718000Y-52070000D03*
X159258000Y-52070000D03*
%TD*%
D11*
%TO.C,J2*%
X133355000Y-52197000D03*
D10*
X133355000Y-49657000D03*
X135895000Y-52197000D03*
X135895000Y-49657000D03*
X138435000Y-52197000D03*
X138435000Y-49657000D03*
X140975000Y-52197000D03*
X140975000Y-49657000D03*
X143515000Y-52197000D03*
X143515000Y-49657000D03*
%TD*%
D15*
%TO.C,REF\u002A\u002A*%
X162084000Y-48736000D03*
%TD*%
%TO.C,REF\u002A\u002A*%
X110204000Y-48736000D03*
%TD*%
M02*
