M48
; DRILL file {KiCad 7.0.6} date Mon Jul 24 13:39:52 2023
; FORMAT={-:-/ absolute / inch / decimal}
; #@! TF.CreationDate,2023-07-24T13:39:52-06:00
; #@! TF.GenerationSoftware,Kicad,Pcbnew,7.0.6
; #@! TF.FileFunction,Plated,1,2,PTH
FMAT,2
INCH
; #@! TA.AperFunction,Plated,PTH,ViaDrill
T1C0.0157
; #@! TA.AperFunction,Plated,PTH,ComponentDrill
T2C0.0160
; #@! TA.AperFunction,Plated,PTH,ComponentDrill
T3C0.0295
; #@! TA.AperFunction,Plated,PTH,ComponentDrill
T4C0.0394
%
G90
G05
T1
X4.5911Y-2.4633
X4.6911Y-2.1776
X4.754Y-1.9848
X4.754Y-2.074
X4.9348Y-2.074
X4.988Y-2.3248
X4.988Y-2.47
X5.026Y-2.038
X5.2594Y-2.6678
X5.2594Y-2.7495
X5.3488Y-2.748
X5.3511Y-2.8394
X5.3813Y-2.4986
X5.398Y-2.4025
X5.442Y-2.374
X5.46Y-2.4986
X5.46Y-2.5886
X5.486Y-2.668
X5.5388Y-2.578
X5.6006Y-2.18
X5.6006Y-2.265
X5.6673Y-2.5122
X5.7573Y-2.5122
X5.7884Y-2.718
X5.7884Y-2.808
X5.9488Y-2.6086
X5.9488Y-2.8971
T2
X4.5015Y-2.0809
X4.5015Y-2.1143
X4.5015Y-2.1478
X4.5015Y-2.1813
X4.5015Y-2.2147
X4.5015Y-2.2482
X4.5015Y-2.2817
X4.5015Y-2.3151
X4.5546Y-2.0809
X4.5546Y-2.1143
X4.5546Y-2.1478
X4.5546Y-2.1813
X4.5546Y-2.2147
X4.5546Y-2.2482
X4.5546Y-2.2817
X4.5546Y-2.3151
T4
X4.36Y-2.484
X4.36Y-2.584
X5.15Y-2.378
X5.15Y-2.478
X5.25Y-2.378
X5.25Y-2.478
X5.2502Y-1.955
X5.2502Y-2.055
X5.3502Y-1.955
X5.3502Y-2.055
X5.4502Y-1.955
X5.4502Y-2.055
X5.5502Y-1.955
X5.5502Y-2.055
X5.6502Y-1.955
X5.6502Y-2.055
X6.17Y-2.05
X6.17Y-2.15
X6.17Y-2.25
X6.17Y-2.35
X6.17Y-2.45
X6.17Y-2.55
X6.17Y-2.65
X6.17Y-2.75
X6.17Y-2.85
X6.17Y-2.95
X6.27Y-2.05
X6.27Y-2.15
X6.27Y-2.25
X6.27Y-2.35
X6.27Y-2.45
X6.27Y-2.55
X6.27Y-2.65
X6.27Y-2.75
X6.27Y-2.85
X6.27Y-2.95
T3
G00X4.3621Y-2.0277
M15
G01X4.4035Y-2.0277
M16
G05
G00X4.3621Y-2.3683
M15
G01X4.4035Y-2.3683
M16
G05
G00X4.4934Y-2.0277
M15
G01X4.5387Y-2.0277
M16
G05
G00X4.4934Y-2.3683
M15
G01X4.5387Y-2.3683
M16
G05
T0
M30
