%TF.GenerationSoftware,KiCad,Pcbnew,7.0.6*%
%TF.CreationDate,2023-07-24T13:39:50-06:00*%
%TF.ProjectId,PuyoPuya,5075796f-5075-4796-912e-6b696361645f,rev?*%
%TF.SameCoordinates,Original*%
%TF.FileFunction,Soldermask,Top*%
%TF.FilePolarity,Negative*%
%FSLAX46Y46*%
G04 Gerber Fmt 4.6, Leading zero omitted, Abs format (unit mm)*
G04 Created by KiCad (PCBNEW 7.0.6) date 2023-07-24 13:39:50*
%MOMM*%
%LPD*%
G01*
G04 APERTURE LIST*
G04 Aperture macros list*
%AMRoundRect*
0 Rectangle with rounded corners*
0 $1 Rounding radius*
0 $2 $3 $4 $5 $6 $7 $8 $9 X,Y pos of 4 corners*
0 Add a 4 corners polygon primitive as box body*
4,1,4,$2,$3,$4,$5,$6,$7,$8,$9,$2,$3,0*
0 Add four circle primitives for the rounded corners*
1,1,$1+$1,$2,$3*
1,1,$1+$1,$4,$5*
1,1,$1+$1,$6,$7*
1,1,$1+$1,$8,$9*
0 Add four rect primitives between the rounded corners*
20,1,$1+$1,$2,$3,$4,$5,0*
20,1,$1+$1,$4,$5,$6,$7,0*
20,1,$1+$1,$6,$7,$8,$9,0*
20,1,$1+$1,$8,$9,$2,$3,0*%
G04 Aperture macros list end*
%ADD10C,0.000000*%
%ADD11O,1.700000X1.700000*%
%ADD12R,1.700000X1.700000*%
%ADD13C,0.660400*%
%ADD14O,2.616200X1.117600*%
%ADD15O,2.200000X1.120000*%
%ADD16RoundRect,0.250000X0.450000X-0.350000X0.450000X0.350000X-0.450000X0.350000X-0.450000X-0.350000X0*%
%ADD17RoundRect,0.150000X-0.150000X0.587500X-0.150000X-0.587500X0.150000X-0.587500X0.150000X0.587500X0*%
%ADD18RoundRect,0.250000X0.475000X-0.337500X0.475000X0.337500X-0.475000X0.337500X-0.475000X-0.337500X0*%
%ADD19RoundRect,0.250000X-0.450000X0.350000X-0.450000X-0.350000X0.450000X-0.350000X0.450000X0.350000X0*%
%ADD20RoundRect,0.250000X-0.350000X-0.450000X0.350000X-0.450000X0.350000X0.450000X-0.350000X0.450000X0*%
%ADD21RoundRect,0.150000X-0.725000X-0.150000X0.725000X-0.150000X0.725000X0.150000X-0.725000X0.150000X0*%
%ADD22C,1.050000*%
%ADD23R,0.711200X0.990600*%
%ADD24RoundRect,0.250000X-0.337500X-0.475000X0.337500X-0.475000X0.337500X0.475000X-0.337500X0.475000X0*%
%ADD25RoundRect,0.250000X-0.475000X0.337500X-0.475000X-0.337500X0.475000X-0.337500X0.475000X0.337500X0*%
%ADD26RoundRect,0.250000X0.325000X0.450000X-0.325000X0.450000X-0.325000X-0.450000X0.325000X-0.450000X0*%
%ADD27C,1.500000*%
%ADD28RoundRect,0.250000X-0.325000X-0.450000X0.325000X-0.450000X0.325000X0.450000X-0.325000X0.450000X0*%
%ADD29RoundRect,0.150000X-0.850000X-0.150000X0.850000X-0.150000X0.850000X0.150000X-0.850000X0.150000X0*%
G04 APERTURE END LIST*
D10*
G36*
X117500982Y-69299879D02*
G01*
X117623116Y-69322303D01*
X117752768Y-69357818D01*
X117887360Y-69407043D01*
X118024313Y-69470596D01*
X118092870Y-69507938D01*
X118161050Y-69549094D01*
X118228531Y-69594141D01*
X118294991Y-69643157D01*
X118360107Y-69696218D01*
X118423558Y-69753401D01*
X118485020Y-69814785D01*
X118544172Y-69880447D01*
X118600692Y-69950463D01*
X118654256Y-70024911D01*
X118704543Y-70103868D01*
X118751230Y-70187411D01*
X118793995Y-70275619D01*
X118832516Y-70368567D01*
X118866470Y-70466334D01*
X118895535Y-70568996D01*
X118919389Y-70676631D01*
X118937710Y-70789316D01*
X118950174Y-70907128D01*
X118956460Y-71030145D01*
X118955949Y-71094357D01*
X118951339Y-71158712D01*
X118942748Y-71223069D01*
X118930289Y-71287285D01*
X118914078Y-71351220D01*
X118894231Y-71414732D01*
X118870864Y-71477678D01*
X118844091Y-71539918D01*
X118814028Y-71601310D01*
X118780790Y-71661712D01*
X118744494Y-71720982D01*
X118705254Y-71778979D01*
X118663186Y-71835561D01*
X118618406Y-71890587D01*
X118571028Y-71943915D01*
X118521168Y-71995403D01*
X118468942Y-72044909D01*
X118414465Y-72092293D01*
X118357852Y-72137412D01*
X118299220Y-72180124D01*
X118238682Y-72220288D01*
X118176356Y-72257763D01*
X118112356Y-72292407D01*
X118046798Y-72324077D01*
X117979797Y-72352633D01*
X117911468Y-72377933D01*
X117841927Y-72399835D01*
X117771290Y-72418197D01*
X117699672Y-72432878D01*
X117627188Y-72443737D01*
X117553955Y-72450631D01*
X117480086Y-72453419D01*
X117383332Y-72449169D01*
X117276305Y-72434602D01*
X117161089Y-72409507D01*
X117039768Y-72373677D01*
X116914426Y-72326902D01*
X116787147Y-72268972D01*
X116660016Y-72199678D01*
X116535116Y-72118811D01*
X116474155Y-72073973D01*
X116414533Y-72026162D01*
X116356511Y-71975354D01*
X116300349Y-71921522D01*
X116246308Y-71864640D01*
X116194649Y-71804681D01*
X116145632Y-71741620D01*
X116099518Y-71675431D01*
X116056567Y-71606086D01*
X116017039Y-71533561D01*
X115981196Y-71457829D01*
X115949297Y-71378863D01*
X115921604Y-71296638D01*
X115898376Y-71211128D01*
X115879875Y-71122305D01*
X115866360Y-71030145D01*
X115858602Y-70948529D01*
X115854416Y-70867568D01*
X115853781Y-70787373D01*
X115856677Y-70708054D01*
X115863085Y-70629723D01*
X115872983Y-70552489D01*
X115886352Y-70476464D01*
X115903171Y-70401757D01*
X115923421Y-70328480D01*
X115947081Y-70256743D01*
X115974131Y-70186656D01*
X116004551Y-70118329D01*
X116038321Y-70051875D01*
X116075421Y-69987402D01*
X116115830Y-69925022D01*
X116159528Y-69864845D01*
X116206495Y-69806982D01*
X116256711Y-69751542D01*
X116310156Y-69698638D01*
X116366810Y-69648379D01*
X116426652Y-69600875D01*
X116489662Y-69556238D01*
X116555820Y-69514578D01*
X116625107Y-69476005D01*
X116697501Y-69440630D01*
X116772983Y-69408563D01*
X116851532Y-69379916D01*
X116933129Y-69354798D01*
X117017753Y-69333320D01*
X117105384Y-69315593D01*
X117196001Y-69301727D01*
X117289586Y-69291833D01*
X117388946Y-69289928D01*
X117500982Y-69299879D01*
G37*
G36*
X127594267Y-68186911D02*
G01*
X127612188Y-68188914D01*
X127630208Y-68192166D01*
X127648327Y-68196667D01*
X127666543Y-68202416D01*
X127684857Y-68209413D01*
X127703268Y-68217660D01*
X127721777Y-68227155D01*
X127740383Y-68237899D01*
X127759087Y-68249892D01*
X127767248Y-68257278D01*
X127775102Y-68264700D01*
X127782651Y-68272159D01*
X127789893Y-68279654D01*
X127796829Y-68287186D01*
X127803458Y-68294755D01*
X127809781Y-68302360D01*
X127815797Y-68310001D01*
X127821505Y-68317679D01*
X127826907Y-68325392D01*
X127832002Y-68333142D01*
X127836789Y-68340928D01*
X127841268Y-68348750D01*
X127845440Y-68356608D01*
X127849304Y-68364502D01*
X127852861Y-68372431D01*
X127856345Y-68381432D01*
X127859547Y-68391501D01*
X127862466Y-68402640D01*
X127865103Y-68414848D01*
X127867458Y-68428125D01*
X127869530Y-68442472D01*
X127871320Y-68457888D01*
X127872827Y-68474373D01*
X127874052Y-68491928D01*
X127874995Y-68510552D01*
X127875655Y-68530245D01*
X127876033Y-68551007D01*
X127876128Y-68572839D01*
X127875942Y-68595741D01*
X127874721Y-68644751D01*
X127877911Y-70802211D01*
X127875079Y-70823419D01*
X127871156Y-70843803D01*
X127866141Y-70863366D01*
X127860034Y-70882105D01*
X127852835Y-70900022D01*
X127844545Y-70917116D01*
X127835164Y-70933388D01*
X127824690Y-70948837D01*
X127813125Y-70963463D01*
X127800469Y-70977267D01*
X127786720Y-70990248D01*
X127771880Y-71002406D01*
X127755949Y-71013742D01*
X127738925Y-71024255D01*
X127720810Y-71033945D01*
X127701604Y-71042813D01*
X127683884Y-71049806D01*
X127666124Y-71055642D01*
X127648322Y-71060320D01*
X127630479Y-71063841D01*
X127612595Y-71066203D01*
X127594671Y-71067407D01*
X127576705Y-71067452D01*
X127558699Y-71066339D01*
X127540651Y-71064068D01*
X127522564Y-71060638D01*
X127504435Y-71056049D01*
X127486266Y-71050300D01*
X127468057Y-71043393D01*
X127449807Y-71035326D01*
X127431517Y-71026100D01*
X127413187Y-71015714D01*
X127403559Y-71008332D01*
X127394305Y-71000846D01*
X127385423Y-70993258D01*
X127376914Y-70985567D01*
X127368778Y-70977773D01*
X127361014Y-70969876D01*
X127353624Y-70961875D01*
X127346606Y-70953772D01*
X127339961Y-70945565D01*
X127333689Y-70937255D01*
X127327790Y-70928842D01*
X127322264Y-70920325D01*
X127317110Y-70911705D01*
X127312329Y-70902981D01*
X127307921Y-70894153D01*
X127303886Y-70885222D01*
X127299998Y-70874963D01*
X127296459Y-70863170D01*
X127293269Y-70849843D01*
X127290429Y-70834983D01*
X127287937Y-70818588D01*
X127285795Y-70800660D01*
X127284001Y-70781197D01*
X127282557Y-70760200D01*
X127281461Y-70737669D01*
X127280714Y-70713604D01*
X127280315Y-70688004D01*
X127280266Y-70660870D01*
X127281211Y-70601998D01*
X127283551Y-70536988D01*
X127280455Y-70234760D01*
X127279549Y-70232712D01*
X126466888Y-69457466D01*
X126252068Y-69249212D01*
X126164934Y-69160530D01*
X126160288Y-69153645D01*
X126155996Y-69147064D01*
X126152058Y-69140784D01*
X126148474Y-69134807D01*
X126145245Y-69129131D01*
X126142371Y-69123756D01*
X126139854Y-69118681D01*
X126137693Y-69113905D01*
X126132455Y-69101618D01*
X126125012Y-69082635D01*
X126118936Y-69063654D01*
X126114226Y-69044675D01*
X126110882Y-69025699D01*
X126108906Y-69006726D01*
X126108296Y-68987756D01*
X126109054Y-68968789D01*
X126111178Y-68949825D01*
X126114671Y-68930865D01*
X126119530Y-68911908D01*
X126125757Y-68892954D01*
X126133352Y-68874005D01*
X126142315Y-68855059D01*
X126152646Y-68836118D01*
X126164345Y-68817180D01*
X126177413Y-68798247D01*
X126183486Y-68791237D01*
X126189598Y-68784495D01*
X126195747Y-68778021D01*
X126201935Y-68771815D01*
X126208161Y-68765877D01*
X126214425Y-68760206D01*
X126220727Y-68754804D01*
X126227068Y-68749669D01*
X126233448Y-68744803D01*
X126239866Y-68740204D01*
X126246322Y-68735873D01*
X126252818Y-68731810D01*
X126259352Y-68728015D01*
X126265925Y-68724488D01*
X126272537Y-68721228D01*
X126279187Y-68718237D01*
X126303809Y-68707711D01*
X126320528Y-68701173D01*
X126337340Y-68695826D01*
X126354246Y-68691672D01*
X126371246Y-68688711D01*
X126388340Y-68686942D01*
X126405527Y-68686366D01*
X126422808Y-68686982D01*
X126440183Y-68688792D01*
X126457652Y-68691796D01*
X126475214Y-68695992D01*
X126492871Y-68701382D01*
X126510621Y-68707966D01*
X126528464Y-68715743D01*
X126546402Y-68724715D01*
X126564433Y-68734880D01*
X126582558Y-68746240D01*
X126692250Y-68848619D01*
X126844943Y-68993307D01*
X127040632Y-69180303D01*
X127279313Y-69409609D01*
X127281408Y-69408704D01*
X127278908Y-68707973D01*
X127280337Y-68514914D01*
X127283552Y-68426724D01*
X127289397Y-68407464D01*
X127295841Y-68389028D01*
X127302885Y-68371415D01*
X127310528Y-68354627D01*
X127318771Y-68338663D01*
X127327613Y-68323524D01*
X127337054Y-68309210D01*
X127347095Y-68295720D01*
X127357735Y-68283054D01*
X127368975Y-68271214D01*
X127380814Y-68260200D01*
X127393252Y-68250010D01*
X127406290Y-68240646D01*
X127419928Y-68232107D01*
X127434164Y-68224394D01*
X127449001Y-68217507D01*
X127471575Y-68207839D01*
X127488805Y-68201105D01*
X127506135Y-68195619D01*
X127523564Y-68191381D01*
X127541091Y-68188391D01*
X127558718Y-68186650D01*
X127576443Y-68186156D01*
X127594267Y-68186911D01*
G37*
G36*
X131002086Y-73141023D02*
G01*
X131020424Y-73143403D01*
X131038456Y-73147101D01*
X131056183Y-73152115D01*
X131073605Y-73158447D01*
X131090722Y-73166096D01*
X131107533Y-73175061D01*
X131124039Y-73185342D01*
X131140240Y-73196940D01*
X131156135Y-73209853D01*
X131171725Y-73224082D01*
X131187009Y-73239627D01*
X131201988Y-73256487D01*
X131216660Y-73274663D01*
X131221311Y-73282033D01*
X131225728Y-73289500D01*
X131229911Y-73297062D01*
X131233859Y-73304722D01*
X131237572Y-73312477D01*
X131241052Y-73320330D01*
X131244297Y-73328279D01*
X131247307Y-73336325D01*
X131250083Y-73344468D01*
X131252624Y-73352709D01*
X131254932Y-73361047D01*
X131257004Y-73369482D01*
X131258843Y-73378015D01*
X131260447Y-73386646D01*
X131261816Y-73395375D01*
X131262951Y-73404202D01*
X131433640Y-74892388D01*
X131435506Y-74915672D01*
X131435712Y-74938392D01*
X131434256Y-74960547D01*
X131431138Y-74982139D01*
X131426359Y-75003167D01*
X131419919Y-75023630D01*
X131411817Y-75043528D01*
X131402053Y-75062862D01*
X131390626Y-75081631D01*
X131377538Y-75099835D01*
X131362788Y-75117474D01*
X131346374Y-75134548D01*
X131328299Y-75151056D01*
X131308560Y-75166999D01*
X131287159Y-75182377D01*
X131264095Y-75197188D01*
X131249412Y-75202033D01*
X131235653Y-75206350D01*
X131222817Y-75210141D01*
X131210904Y-75213404D01*
X131199912Y-75216141D01*
X131189842Y-75218352D01*
X131180693Y-75220035D01*
X131172464Y-75221191D01*
X131153541Y-75222881D01*
X131135028Y-75223558D01*
X131116926Y-75223221D01*
X131099233Y-75221871D01*
X131081951Y-75219509D01*
X131065078Y-75216133D01*
X131048617Y-75211745D01*
X131032566Y-75206344D01*
X131016925Y-75199931D01*
X131001696Y-75192505D01*
X130986878Y-75184068D01*
X130972471Y-75174618D01*
X130958475Y-75164157D01*
X130944890Y-75152684D01*
X130931718Y-75140199D01*
X130918957Y-75126703D01*
X130890409Y-75144126D01*
X130862450Y-75160566D01*
X130835080Y-75176025D01*
X130808300Y-75190503D01*
X130782109Y-75204002D01*
X130756508Y-75216521D01*
X130731496Y-75228061D01*
X130707073Y-75238623D01*
X130675103Y-75250718D01*
X130642591Y-75261751D01*
X130609538Y-75271720D01*
X130575944Y-75280628D01*
X130541806Y-75288473D01*
X130507126Y-75295255D01*
X130471902Y-75300974D01*
X130436134Y-75305631D01*
X130385671Y-75310254D01*
X130335759Y-75312478D01*
X130286399Y-75312303D01*
X130237590Y-75309730D01*
X130189331Y-75304759D01*
X130141623Y-75297389D01*
X130094466Y-75287621D01*
X130047859Y-75275454D01*
X130001803Y-75260890D01*
X129956296Y-75243927D01*
X129911340Y-75224566D01*
X129866933Y-75202808D01*
X129823076Y-75178651D01*
X129779769Y-75152097D01*
X129737011Y-75123144D01*
X129694802Y-75091794D01*
X129652733Y-75057103D01*
X129612980Y-75021196D01*
X129575545Y-74984076D01*
X129540428Y-74945741D01*
X129507628Y-74906192D01*
X129477147Y-74865429D01*
X129448984Y-74823452D01*
X129423138Y-74780261D01*
X129399612Y-74735856D01*
X129378403Y-74690238D01*
X129359514Y-74643405D01*
X129342943Y-74595359D01*
X129328691Y-74546100D01*
X129316758Y-74495626D01*
X129307144Y-74443940D01*
X129299849Y-74391040D01*
X129297800Y-74373324D01*
X129291977Y-74305163D01*
X129290652Y-74253032D01*
X129888420Y-74253032D01*
X129888500Y-74275106D01*
X129888900Y-74286073D01*
X129889541Y-74296995D01*
X129890422Y-74307870D01*
X129891543Y-74318698D01*
X129895206Y-74344694D01*
X129900160Y-74369997D01*
X129906404Y-74394607D01*
X129913938Y-74418525D01*
X129922762Y-74441750D01*
X129932876Y-74464282D01*
X129944280Y-74486122D01*
X129956973Y-74507270D01*
X129970957Y-74527725D01*
X129986230Y-74547489D01*
X130002793Y-74566561D01*
X130020645Y-74584942D01*
X130039787Y-74602631D01*
X130060219Y-74619628D01*
X130081939Y-74635934D01*
X130104950Y-74651550D01*
X130120911Y-74660602D01*
X130136862Y-74668953D01*
X130152803Y-74676604D01*
X130168733Y-74683553D01*
X130184654Y-74689802D01*
X130200564Y-74695349D01*
X130216463Y-74700196D01*
X130232352Y-74704341D01*
X130248230Y-74707786D01*
X130264098Y-74710530D01*
X130279955Y-74712572D01*
X130295801Y-74713914D01*
X130311636Y-74714555D01*
X130327460Y-74714495D01*
X130343273Y-74713733D01*
X130359076Y-74712271D01*
X130390129Y-74708699D01*
X130417447Y-74704637D01*
X130443948Y-74698807D01*
X130469632Y-74691211D01*
X130494498Y-74681848D01*
X130518547Y-74670717D01*
X130541779Y-74657820D01*
X130564193Y-74643156D01*
X130585790Y-74626725D01*
X130606569Y-74608527D01*
X130626531Y-74588561D01*
X130645674Y-74566829D01*
X130664000Y-74543330D01*
X130681508Y-74518064D01*
X130698198Y-74491031D01*
X130714070Y-74462231D01*
X130729124Y-74431664D01*
X130733842Y-74418177D01*
X130738154Y-74404684D01*
X130742061Y-74391183D01*
X130745563Y-74377677D01*
X130748660Y-74364163D01*
X130751352Y-74350644D01*
X130753639Y-74337118D01*
X130755520Y-74323586D01*
X130756996Y-74310047D01*
X130758067Y-74296503D01*
X130758733Y-74282953D01*
X130758994Y-74269396D01*
X130758849Y-74255834D01*
X130758299Y-74242266D01*
X130757344Y-74228693D01*
X130755984Y-74215114D01*
X130751567Y-74184567D01*
X130745443Y-74155043D01*
X130737610Y-74126542D01*
X130728069Y-74099062D01*
X130716821Y-74072604D01*
X130703864Y-74047168D01*
X130689198Y-74022754D01*
X130672825Y-73999361D01*
X130654743Y-73976989D01*
X130634953Y-73955639D01*
X130613454Y-73935309D01*
X130590247Y-73916001D01*
X130565331Y-73897713D01*
X130538706Y-73880446D01*
X130510373Y-73864199D01*
X130480330Y-73848973D01*
X130467614Y-73843900D01*
X130454841Y-73839255D01*
X130442012Y-73835038D01*
X130429128Y-73831248D01*
X130416188Y-73827887D01*
X130403192Y-73824953D01*
X130390140Y-73822446D01*
X130377032Y-73820368D01*
X130363869Y-73818718D01*
X130350649Y-73817496D01*
X130337374Y-73816703D01*
X130324043Y-73816337D01*
X130310657Y-73816400D01*
X130297214Y-73816891D01*
X130283716Y-73817811D01*
X130270162Y-73819159D01*
X130237801Y-73823954D01*
X130206690Y-73830784D01*
X130176829Y-73839647D01*
X130148220Y-73850546D01*
X130120860Y-73863479D01*
X130094752Y-73878445D01*
X130069895Y-73895446D01*
X130046289Y-73914481D01*
X130023934Y-73935549D01*
X130002830Y-73958651D01*
X129982978Y-73983787D01*
X129964378Y-74010956D01*
X129947029Y-74040158D01*
X129930933Y-74071393D01*
X129916088Y-74104661D01*
X129902496Y-74139962D01*
X129897748Y-74162931D01*
X129893967Y-74185724D01*
X129891153Y-74208340D01*
X129889305Y-74230776D01*
X129888420Y-74253032D01*
X129290652Y-74253032D01*
X129290275Y-74238197D01*
X129292696Y-74172428D01*
X129299239Y-74107853D01*
X129309904Y-74044474D01*
X129324691Y-73982291D01*
X129343600Y-73921303D01*
X129366631Y-73861510D01*
X129393785Y-73802913D01*
X129425060Y-73745511D01*
X129460458Y-73689305D01*
X129499978Y-73634294D01*
X129543620Y-73580479D01*
X129591384Y-73527859D01*
X129643271Y-73476435D01*
X129699279Y-73426206D01*
X129727361Y-73405847D01*
X129755724Y-73386561D01*
X129784368Y-73368347D01*
X129813293Y-73351207D01*
X129842499Y-73335140D01*
X129871986Y-73320146D01*
X129901754Y-73306226D01*
X129931803Y-73293380D01*
X129962132Y-73281607D01*
X129992742Y-73270908D01*
X130023633Y-73261284D01*
X130054804Y-73252733D01*
X130086256Y-73245257D01*
X130117987Y-73238856D01*
X130150000Y-73233529D01*
X130182292Y-73229277D01*
X130182293Y-73229277D01*
X130231108Y-73223657D01*
X130259471Y-73220897D01*
X130288015Y-73219098D01*
X130316740Y-73218262D01*
X130345648Y-73218388D01*
X130374736Y-73219477D01*
X130404006Y-73221527D01*
X130433457Y-73224540D01*
X130463089Y-73228515D01*
X130492902Y-73233452D01*
X130522896Y-73239351D01*
X130553070Y-73246212D01*
X130583424Y-73254036D01*
X130613959Y-73262822D01*
X130644674Y-73272569D01*
X130675569Y-73283279D01*
X130706643Y-73294952D01*
X130716454Y-73278594D01*
X130726704Y-73263168D01*
X130737394Y-73248675D01*
X130748524Y-73235114D01*
X130760095Y-73222484D01*
X130772105Y-73210787D01*
X130784555Y-73200021D01*
X130797446Y-73190188D01*
X130810777Y-73181287D01*
X130824549Y-73173318D01*
X130838761Y-73166281D01*
X130853414Y-73160176D01*
X130868507Y-73155002D01*
X130884041Y-73150761D01*
X130900016Y-73147452D01*
X130916431Y-73145075D01*
X130945246Y-73141789D01*
X130964497Y-73140216D01*
X130983444Y-73139960D01*
X131002086Y-73141023D01*
G37*
G36*
X129605326Y-67389263D02*
G01*
X129664073Y-67393143D01*
X129723163Y-67400746D01*
X129782595Y-67412074D01*
X129842370Y-67427125D01*
X129902488Y-67445899D01*
X129962948Y-67468398D01*
X130023751Y-67494620D01*
X130084896Y-67524565D01*
X130146384Y-67558235D01*
X130179077Y-67580347D01*
X130210716Y-67603499D01*
X130241303Y-67627691D01*
X130270836Y-67652924D01*
X130299317Y-67679196D01*
X130326744Y-67706507D01*
X130353118Y-67734858D01*
X130378438Y-67764248D01*
X130402704Y-67794678D01*
X130425917Y-67826147D01*
X130448076Y-67858654D01*
X130469180Y-67892201D01*
X130489230Y-67926785D01*
X130508226Y-67962409D01*
X130526167Y-67999071D01*
X130543054Y-68036771D01*
X130567220Y-68097859D01*
X130587445Y-68159003D01*
X130603729Y-68220201D01*
X130616072Y-68281454D01*
X130624473Y-68342762D01*
X130628932Y-68404125D01*
X130629451Y-68465543D01*
X130626028Y-68527016D01*
X130618664Y-68588545D01*
X130607358Y-68650129D01*
X130592111Y-68711768D01*
X130572923Y-68773463D01*
X130549793Y-68835213D01*
X130522722Y-68897019D01*
X130491710Y-68958881D01*
X130456756Y-69020798D01*
X130435626Y-69052191D01*
X130413525Y-69082556D01*
X130390455Y-69111895D01*
X130366414Y-69140207D01*
X130341403Y-69167492D01*
X130315421Y-69193751D01*
X130288469Y-69218983D01*
X130260547Y-69243189D01*
X130231654Y-69266369D01*
X130201791Y-69288522D01*
X130170956Y-69309649D01*
X130139152Y-69329750D01*
X130106376Y-69348825D01*
X130072629Y-69366874D01*
X130037912Y-69383896D01*
X130002223Y-69399893D01*
X129941138Y-69424005D01*
X129879987Y-69444066D01*
X129818770Y-69460076D01*
X129757489Y-69472035D01*
X129696141Y-69479944D01*
X129634729Y-69483801D01*
X129573252Y-69483607D01*
X129511709Y-69479362D01*
X129450102Y-69471065D01*
X129388431Y-69458717D01*
X129326695Y-69442318D01*
X129264894Y-69421867D01*
X129203029Y-69397365D01*
X129141101Y-69368811D01*
X129079108Y-69336205D01*
X129017052Y-69299547D01*
X128986626Y-69278606D01*
X128957178Y-69256716D01*
X128928709Y-69233877D01*
X128901217Y-69210089D01*
X128874703Y-69185352D01*
X128849168Y-69159666D01*
X128824610Y-69133031D01*
X128801031Y-69105446D01*
X128778430Y-69076912D01*
X128756808Y-69047429D01*
X128736164Y-69016996D01*
X128716499Y-68985613D01*
X128697813Y-68953281D01*
X128680105Y-68919999D01*
X128663376Y-68885768D01*
X128647625Y-68850587D01*
X128640576Y-68834156D01*
X128615487Y-68770523D01*
X128594689Y-68706854D01*
X128578183Y-68643150D01*
X128565969Y-68579411D01*
X128558047Y-68515635D01*
X128554416Y-68451825D01*
X128554565Y-68437487D01*
X129153164Y-68437487D01*
X129155191Y-68460856D01*
X129158092Y-68483779D01*
X129161868Y-68506255D01*
X129166517Y-68528284D01*
X129172039Y-68549867D01*
X129178433Y-68571004D01*
X129181957Y-68581405D01*
X129185699Y-68591694D01*
X129189659Y-68601872D01*
X129193837Y-68611938D01*
X129204786Y-68635791D01*
X129216773Y-68658611D01*
X129229797Y-68680399D01*
X129243861Y-68701155D01*
X129258962Y-68720879D01*
X129275101Y-68739570D01*
X129292278Y-68757229D01*
X129310494Y-68773857D01*
X129329747Y-68789452D01*
X129350039Y-68804016D01*
X129371369Y-68817548D01*
X129393736Y-68830048D01*
X129417142Y-68841516D01*
X129441586Y-68851953D01*
X129467068Y-68861358D01*
X129493588Y-68869732D01*
X129511467Y-68873836D01*
X129529137Y-68877271D01*
X129546597Y-68880037D01*
X129563847Y-68882135D01*
X129580887Y-68883565D01*
X129597718Y-68884325D01*
X129614338Y-68884417D01*
X129630749Y-68883841D01*
X129646949Y-68882596D01*
X129662940Y-68880682D01*
X129678721Y-68878100D01*
X129694292Y-68874849D01*
X129709653Y-68870929D01*
X129724804Y-68866341D01*
X129739746Y-68861084D01*
X129754477Y-68855159D01*
X129783196Y-68842871D01*
X129795862Y-68837197D01*
X129808206Y-68831158D01*
X129820228Y-68824755D01*
X129831927Y-68817986D01*
X129843305Y-68810853D01*
X129854359Y-68803356D01*
X129865092Y-68795493D01*
X129875503Y-68787265D01*
X129885591Y-68778673D01*
X129895357Y-68769716D01*
X129904801Y-68760394D01*
X129913922Y-68750708D01*
X129922722Y-68740656D01*
X129931199Y-68730240D01*
X129939354Y-68719459D01*
X129947187Y-68708313D01*
X129954697Y-68696802D01*
X129961886Y-68684926D01*
X129968752Y-68672686D01*
X129975296Y-68660080D01*
X129981519Y-68647110D01*
X129987419Y-68633775D01*
X129998252Y-68606009D01*
X130007797Y-68576784D01*
X130016054Y-68546099D01*
X130023023Y-68513955D01*
X130028703Y-68480350D01*
X130029357Y-68466081D01*
X130029622Y-68451922D01*
X130029499Y-68437873D01*
X130028987Y-68423932D01*
X130028086Y-68410101D01*
X130026796Y-68396380D01*
X130025116Y-68382767D01*
X130023047Y-68369265D01*
X130020589Y-68355871D01*
X130017741Y-68342587D01*
X130014503Y-68329413D01*
X130010875Y-68316347D01*
X130006857Y-68303391D01*
X130002449Y-68290545D01*
X129997650Y-68277808D01*
X129992461Y-68265180D01*
X129979491Y-68237187D01*
X129965176Y-68210660D01*
X129949515Y-68185600D01*
X129932508Y-68162007D01*
X129923500Y-68150760D01*
X129914156Y-68139880D01*
X129904475Y-68129367D01*
X129894458Y-68119220D01*
X129884104Y-68109440D01*
X129873415Y-68100027D01*
X129862389Y-68090980D01*
X129851026Y-68082300D01*
X129839328Y-68073987D01*
X129827293Y-68066040D01*
X129802215Y-68051247D01*
X129775792Y-68037921D01*
X129748024Y-68026061D01*
X129718912Y-68015668D01*
X129688455Y-68006742D01*
X129656654Y-67999282D01*
X129623509Y-67993289D01*
X129609881Y-67992073D01*
X129596321Y-67991282D01*
X129582828Y-67990917D01*
X129569404Y-67990976D01*
X129556048Y-67991461D01*
X129542760Y-67992372D01*
X129529540Y-67993707D01*
X129516388Y-67995468D01*
X129503305Y-67997654D01*
X129490289Y-68000265D01*
X129477342Y-68003302D01*
X129464462Y-68006764D01*
X129451651Y-68010651D01*
X129438908Y-68014964D01*
X129426232Y-68019701D01*
X129413625Y-68024864D01*
X129398583Y-68031600D01*
X129383985Y-68038732D01*
X129369833Y-68046262D01*
X129356127Y-68054190D01*
X129342866Y-68062514D01*
X129330050Y-68071236D01*
X129317680Y-68080356D01*
X129305755Y-68089873D01*
X129294275Y-68099787D01*
X129283241Y-68110098D01*
X129272652Y-68120807D01*
X129262508Y-68131913D01*
X129252810Y-68143417D01*
X129243557Y-68155318D01*
X129234750Y-68167617D01*
X129226387Y-68180312D01*
X129218471Y-68193406D01*
X129210999Y-68206896D01*
X129203973Y-68220784D01*
X129197393Y-68235069D01*
X129191257Y-68249752D01*
X129185568Y-68264832D01*
X129180323Y-68280309D01*
X129175524Y-68296184D01*
X129171170Y-68312456D01*
X129167262Y-68329126D01*
X129163799Y-68346192D01*
X129160781Y-68363657D01*
X129156082Y-68399777D01*
X129153164Y-68437487D01*
X128554565Y-68437487D01*
X128555078Y-68387979D01*
X128560031Y-68324098D01*
X128569276Y-68260182D01*
X128582813Y-68196231D01*
X128600642Y-68132244D01*
X128622762Y-68068223D01*
X128649174Y-68004167D01*
X128679879Y-67940076D01*
X128714875Y-67875950D01*
X128754163Y-67811790D01*
X128775240Y-67784243D01*
X128796893Y-67757643D01*
X128819124Y-67731991D01*
X128841932Y-67707287D01*
X128865316Y-67683531D01*
X128889278Y-67660722D01*
X128913816Y-67638862D01*
X128938930Y-67617950D01*
X128964621Y-67597987D01*
X128990888Y-67578971D01*
X129017732Y-67560904D01*
X129045152Y-67543786D01*
X129073149Y-67527616D01*
X129101721Y-67512394D01*
X129130870Y-67498121D01*
X129160595Y-67484797D01*
X129203694Y-67466366D01*
X129260042Y-67444180D01*
X129316733Y-67425718D01*
X129373766Y-67410980D01*
X129431142Y-67399965D01*
X129488861Y-67392674D01*
X129546922Y-67389106D01*
X129605326Y-67389263D01*
G37*
G36*
X122820636Y-70315270D02*
G01*
X122877858Y-70321736D01*
X122935324Y-70331741D01*
X122993034Y-70345284D01*
X123050987Y-70362365D01*
X123109185Y-70382985D01*
X123167626Y-70407143D01*
X123226312Y-70434839D01*
X123285241Y-70466074D01*
X123320316Y-70487558D01*
X123354248Y-70510270D01*
X123387035Y-70534211D01*
X123418678Y-70559381D01*
X123449178Y-70585780D01*
X123478534Y-70613407D01*
X123506746Y-70642264D01*
X123533814Y-70672350D01*
X123559739Y-70703665D01*
X123584521Y-70736209D01*
X123608159Y-70769981D01*
X123630653Y-70804983D01*
X123652005Y-70841213D01*
X123672213Y-70878673D01*
X123691278Y-70917361D01*
X123709200Y-70957279D01*
X123732831Y-71016807D01*
X123752774Y-71076358D01*
X123769028Y-71135933D01*
X123781592Y-71195532D01*
X123790468Y-71255154D01*
X123795654Y-71314799D01*
X123797152Y-71374468D01*
X123794960Y-71434160D01*
X123789079Y-71493875D01*
X123779509Y-71553614D01*
X123766251Y-71613377D01*
X123749303Y-71673163D01*
X123728666Y-71732972D01*
X123704340Y-71792805D01*
X123676325Y-71852661D01*
X123644621Y-71912541D01*
X123622946Y-71946817D01*
X123600320Y-71979887D01*
X123576743Y-72011750D01*
X123552215Y-72042408D01*
X123526735Y-72071859D01*
X123500303Y-72100105D01*
X123472919Y-72127146D01*
X123444584Y-72152982D01*
X123415296Y-72177612D01*
X123385056Y-72201038D01*
X123353864Y-72223260D01*
X123321719Y-72244277D01*
X123288621Y-72264089D01*
X123254571Y-72282698D01*
X123219567Y-72300104D01*
X123183611Y-72316306D01*
X123156326Y-72327412D01*
X123128854Y-72337462D01*
X123101194Y-72346454D01*
X123073347Y-72354389D01*
X123045312Y-72361266D01*
X123017089Y-72367086D01*
X122988680Y-72371847D01*
X122960082Y-72375551D01*
X122931298Y-72378196D01*
X122902325Y-72379783D01*
X122873165Y-72380312D01*
X122843818Y-72379782D01*
X122814283Y-72378193D01*
X122784560Y-72375546D01*
X122754650Y-72371839D01*
X122724553Y-72367074D01*
X122898528Y-72773458D01*
X122906983Y-72795232D01*
X122913684Y-72816941D01*
X122918631Y-72838585D01*
X122921825Y-72860164D01*
X122923265Y-72881679D01*
X122922951Y-72903128D01*
X122920882Y-72924512D01*
X122917060Y-72945831D01*
X122911484Y-72967084D01*
X122904153Y-72988272D01*
X122895069Y-73009395D01*
X122884229Y-73030452D01*
X122871636Y-73051443D01*
X122857288Y-73072369D01*
X122841185Y-73093230D01*
X122823328Y-73114024D01*
X122810824Y-73123371D01*
X122798959Y-73131910D01*
X122787734Y-73139641D01*
X122777149Y-73146564D01*
X122767205Y-73152679D01*
X122757902Y-73157985D01*
X122749241Y-73162483D01*
X122741222Y-73166173D01*
X122720746Y-73174201D01*
X122700360Y-73180711D01*
X122680063Y-73185702D01*
X122659855Y-73189175D01*
X122639738Y-73191130D01*
X122619709Y-73191567D01*
X122599771Y-73190485D01*
X122579922Y-73187885D01*
X122560163Y-73183765D01*
X122540494Y-73178128D01*
X122520916Y-73170971D01*
X122501427Y-73162296D01*
X122482028Y-73152102D01*
X122462719Y-73140388D01*
X122443501Y-73127156D01*
X122424373Y-73112405D01*
X122418727Y-73107459D01*
X122413218Y-73102303D01*
X122407846Y-73096936D01*
X122402612Y-73091358D01*
X122397516Y-73085570D01*
X122392557Y-73079571D01*
X122387736Y-73073361D01*
X122383053Y-73066941D01*
X122378507Y-73060311D01*
X122374100Y-73053470D01*
X122369831Y-73046419D01*
X122365699Y-73039157D01*
X122361706Y-73031686D01*
X122357851Y-73024004D01*
X122354134Y-73016113D01*
X122350556Y-73008011D01*
X121631564Y-71328372D01*
X122326074Y-71328372D01*
X122326189Y-71341691D01*
X122326622Y-71354913D01*
X122327373Y-71368038D01*
X122328442Y-71381065D01*
X122329830Y-71393995D01*
X122331536Y-71406828D01*
X122333560Y-71419563D01*
X122335904Y-71432200D01*
X122338566Y-71444740D01*
X122341546Y-71457182D01*
X122344846Y-71469526D01*
X122348464Y-71481773D01*
X122352401Y-71493921D01*
X122356657Y-71505971D01*
X122361232Y-71517924D01*
X122366126Y-71529778D01*
X122379443Y-71558513D01*
X122394139Y-71585729D01*
X122410215Y-71611426D01*
X122418770Y-71623705D01*
X122427670Y-71635604D01*
X122436915Y-71647123D01*
X122446505Y-71658263D01*
X122456440Y-71669022D01*
X122466720Y-71679402D01*
X122477345Y-71689402D01*
X122488314Y-71699022D01*
X122499629Y-71708263D01*
X122511288Y-71717123D01*
X122523292Y-71725604D01*
X122535642Y-71733705D01*
X122548336Y-71741426D01*
X122561375Y-71748768D01*
X122588488Y-71762311D01*
X122616980Y-71774336D01*
X122646853Y-71784841D01*
X122678104Y-71793827D01*
X122710736Y-71801294D01*
X122744747Y-71807241D01*
X122770853Y-71806871D01*
X122795664Y-71805615D01*
X122819182Y-71803472D01*
X122830456Y-71802069D01*
X122841407Y-71800443D01*
X122852035Y-71798595D01*
X122862339Y-71796525D01*
X122872321Y-71794232D01*
X122881980Y-71791717D01*
X122891316Y-71788979D01*
X122900329Y-71786019D01*
X122909020Y-71782835D01*
X122917387Y-71779428D01*
X122954344Y-71763617D01*
X122976187Y-71753468D01*
X122997086Y-71742130D01*
X123017040Y-71729603D01*
X123036050Y-71715888D01*
X123054115Y-71700983D01*
X123071236Y-71684890D01*
X123087411Y-71667609D01*
X123102642Y-71649138D01*
X123116928Y-71629479D01*
X123130270Y-71608631D01*
X123142666Y-71586594D01*
X123154117Y-71563369D01*
X123164623Y-71538954D01*
X123174184Y-71513351D01*
X123182799Y-71486559D01*
X123190469Y-71458579D01*
X123193289Y-71441825D01*
X123195517Y-71425191D01*
X123197151Y-71408678D01*
X123198193Y-71392286D01*
X123198642Y-71376014D01*
X123198499Y-71359864D01*
X123197763Y-71343834D01*
X123196434Y-71327926D01*
X123194512Y-71312138D01*
X123191998Y-71296472D01*
X123188891Y-71280927D01*
X123185191Y-71265503D01*
X123180899Y-71250201D01*
X123176014Y-71235020D01*
X123170536Y-71219961D01*
X123164466Y-71205023D01*
X123160085Y-71194736D01*
X123160032Y-71194611D01*
X123159989Y-71194487D01*
X123159956Y-71194362D01*
X123159933Y-71194238D01*
X123159920Y-71194115D01*
X123159917Y-71193991D01*
X123159924Y-71193868D01*
X123159941Y-71193746D01*
X123159968Y-71193623D01*
X123160005Y-71193501D01*
X123160052Y-71193380D01*
X123160109Y-71193259D01*
X123160176Y-71193138D01*
X123160253Y-71193017D01*
X123160340Y-71192897D01*
X123160436Y-71192778D01*
X123160543Y-71192658D01*
X123160659Y-71192540D01*
X123160786Y-71192421D01*
X123160922Y-71192303D01*
X123161068Y-71192186D01*
X123161224Y-71192069D01*
X123161389Y-71191952D01*
X123161565Y-71191836D01*
X123161751Y-71191721D01*
X123161946Y-71191606D01*
X123162366Y-71191377D01*
X123162825Y-71191151D01*
X123163323Y-71190926D01*
X123156560Y-71186544D01*
X123151274Y-71174210D01*
X123139542Y-71148911D01*
X123126527Y-71124824D01*
X123112230Y-71101950D01*
X123096650Y-71080288D01*
X123079788Y-71059838D01*
X123061642Y-71040601D01*
X123042214Y-71022577D01*
X123021502Y-71005766D01*
X122999507Y-70990167D01*
X122976229Y-70975781D01*
X122951668Y-70962608D01*
X122925824Y-70950648D01*
X122898696Y-70939901D01*
X122870285Y-70930367D01*
X122840590Y-70922046D01*
X122809612Y-70914939D01*
X122794748Y-70913656D01*
X122779983Y-70912825D01*
X122765316Y-70912445D01*
X122750747Y-70912518D01*
X122736276Y-70913041D01*
X122721904Y-70914017D01*
X122707630Y-70915443D01*
X122693454Y-70917320D01*
X122679376Y-70919649D01*
X122665397Y-70922428D01*
X122651515Y-70925658D01*
X122637732Y-70929338D01*
X122624048Y-70933469D01*
X122610461Y-70938050D01*
X122596973Y-70943081D01*
X122583583Y-70948562D01*
X122569417Y-70954893D01*
X122555645Y-70961582D01*
X122542268Y-70968627D01*
X122529286Y-70976030D01*
X122516699Y-70983790D01*
X122504506Y-70991907D01*
X122492707Y-71000382D01*
X122481304Y-71009214D01*
X122470295Y-71018403D01*
X122459681Y-71027949D01*
X122449462Y-71037852D01*
X122439637Y-71048113D01*
X122430207Y-71058731D01*
X122421172Y-71069707D01*
X122412532Y-71081039D01*
X122404287Y-71092729D01*
X122396437Y-71104777D01*
X122388981Y-71117181D01*
X122381920Y-71129943D01*
X122375255Y-71143063D01*
X122368984Y-71156539D01*
X122363108Y-71170374D01*
X122357627Y-71184565D01*
X122352541Y-71199114D01*
X122347850Y-71214020D01*
X122343554Y-71229284D01*
X122336147Y-71260883D01*
X122330321Y-71293913D01*
X122326074Y-71328372D01*
X121631564Y-71328372D01*
X121520356Y-71068578D01*
X121512398Y-71048064D01*
X121506096Y-71027562D01*
X121501450Y-71007072D01*
X121498460Y-70986594D01*
X121497127Y-70966128D01*
X121497449Y-70945674D01*
X121499428Y-70925232D01*
X121503062Y-70904802D01*
X121508353Y-70884383D01*
X121515299Y-70863976D01*
X121523901Y-70843581D01*
X121534159Y-70823197D01*
X121546072Y-70802825D01*
X121559641Y-70782464D01*
X121574866Y-70762114D01*
X121591745Y-70741776D01*
X121601450Y-70733641D01*
X121611095Y-70726061D01*
X121615895Y-70722479D01*
X121620680Y-70719037D01*
X121625449Y-70715733D01*
X121630203Y-70712570D01*
X121634941Y-70709545D01*
X121639664Y-70706660D01*
X121644370Y-70703916D01*
X121649061Y-70701311D01*
X121653735Y-70698846D01*
X121658393Y-70696521D01*
X121663035Y-70694337D01*
X121667660Y-70692293D01*
X121667658Y-70692293D01*
X121696377Y-70679958D01*
X121710115Y-70674691D01*
X121724132Y-70670519D01*
X121738428Y-70667440D01*
X121753001Y-70665456D01*
X121767853Y-70664565D01*
X121782984Y-70664768D01*
X121798393Y-70666065D01*
X121814082Y-70668456D01*
X121830049Y-70671941D01*
X121846296Y-70676520D01*
X121862822Y-70682192D01*
X121879627Y-70688959D01*
X121896712Y-70696819D01*
X121914077Y-70705773D01*
X121931721Y-70715822D01*
X121949646Y-70726964D01*
X121951179Y-70727809D01*
X121952635Y-70728649D01*
X121954014Y-70729484D01*
X121955316Y-70730313D01*
X121956540Y-70731137D01*
X121957687Y-70731956D01*
X121958757Y-70732769D01*
X121959749Y-70733577D01*
X121960663Y-70734381D01*
X121961500Y-70735179D01*
X121962259Y-70735973D01*
X121962941Y-70736762D01*
X121963544Y-70737546D01*
X121964070Y-70738325D01*
X121964517Y-70739100D01*
X121964887Y-70739870D01*
X121966934Y-70739013D01*
X121986154Y-70709611D01*
X122005756Y-70681412D01*
X122025740Y-70654416D01*
X122046105Y-70628623D01*
X122066853Y-70604034D01*
X122087983Y-70580647D01*
X122109495Y-70558463D01*
X122131389Y-70537482D01*
X122153666Y-70517703D01*
X122176325Y-70499128D01*
X122199366Y-70481754D01*
X122222790Y-70465584D01*
X122246596Y-70450615D01*
X122270785Y-70436850D01*
X122295357Y-70424286D01*
X122320312Y-70412925D01*
X122371603Y-70390922D01*
X122426883Y-70369081D01*
X122482405Y-70350779D01*
X122538170Y-70336015D01*
X122594177Y-70324789D01*
X122650427Y-70317101D01*
X122706920Y-70312952D01*
X122763656Y-70312342D01*
X122820636Y-70315270D01*
G37*
G36*
X125377703Y-69139725D02*
G01*
X125398738Y-69141818D01*
X125419733Y-69145634D01*
X125440689Y-69151176D01*
X125461607Y-69158442D01*
X125482485Y-69167432D01*
X125503324Y-69178147D01*
X125524124Y-69190587D01*
X125544885Y-69204751D01*
X125565606Y-69220640D01*
X125586289Y-69238253D01*
X125594167Y-69248692D01*
X125601551Y-69259040D01*
X125608440Y-69269297D01*
X125614834Y-69279461D01*
X125620736Y-69289531D01*
X125626145Y-69299506D01*
X125631061Y-69309386D01*
X125635486Y-69319168D01*
X126225845Y-70698340D01*
X126234011Y-70719360D01*
X126240492Y-70740341D01*
X126245286Y-70761285D01*
X126248393Y-70782191D01*
X126249814Y-70803059D01*
X126249549Y-70823890D01*
X126247597Y-70844683D01*
X126243960Y-70865439D01*
X126238636Y-70886157D01*
X126231627Y-70906838D01*
X126222931Y-70927482D01*
X126212550Y-70948088D01*
X126200483Y-70968658D01*
X126186730Y-70989190D01*
X126171292Y-71009685D01*
X126154168Y-71030144D01*
X126142741Y-71039585D01*
X126131604Y-71048296D01*
X126120759Y-71056278D01*
X126110205Y-71063529D01*
X126099944Y-71070047D01*
X126094923Y-71073032D01*
X126089976Y-71075833D01*
X126085102Y-71078450D01*
X126080301Y-71080883D01*
X126075574Y-71083133D01*
X126070921Y-71085198D01*
X126054429Y-71091507D01*
X126037796Y-71096378D01*
X126021023Y-71099811D01*
X126004109Y-71101807D01*
X125987053Y-71102364D01*
X125969857Y-71101484D01*
X125952520Y-71099165D01*
X125935041Y-71095408D01*
X125917422Y-71090213D01*
X125899661Y-71083579D01*
X125881759Y-71075508D01*
X125863715Y-71065997D01*
X125845530Y-71055049D01*
X125827203Y-71042661D01*
X125808734Y-71028835D01*
X125790124Y-71013571D01*
X125775603Y-71043018D01*
X125760346Y-71071281D01*
X125744354Y-71098359D01*
X125727627Y-71124254D01*
X125710165Y-71148964D01*
X125691968Y-71172490D01*
X125673036Y-71194831D01*
X125653369Y-71215989D01*
X125632968Y-71235961D01*
X125611833Y-71254750D01*
X125589963Y-71272354D01*
X125567360Y-71288774D01*
X125544022Y-71304010D01*
X125519951Y-71318062D01*
X125495146Y-71330929D01*
X125469608Y-71342611D01*
X125416596Y-71363338D01*
X125363253Y-71380279D01*
X125309579Y-71393435D01*
X125255573Y-71402806D01*
X125201237Y-71408391D01*
X125146570Y-71410191D01*
X125091572Y-71408205D01*
X125036244Y-71402434D01*
X124980585Y-71392878D01*
X124924596Y-71379535D01*
X124868277Y-71362407D01*
X124811628Y-71341493D01*
X124754649Y-71316793D01*
X124697341Y-71288307D01*
X124639703Y-71256035D01*
X124581735Y-71219977D01*
X124551407Y-71197220D01*
X124522037Y-71173597D01*
X124493626Y-71149107D01*
X124466174Y-71123752D01*
X124439680Y-71097532D01*
X124414144Y-71070446D01*
X124389566Y-71042494D01*
X124365946Y-71013677D01*
X124343283Y-70983996D01*
X124321578Y-70953449D01*
X124300831Y-70922038D01*
X124281041Y-70889762D01*
X124262208Y-70856621D01*
X124244332Y-70822616D01*
X124227413Y-70787747D01*
X124211451Y-70752014D01*
X123910079Y-70048069D01*
X123902661Y-70029075D01*
X123896658Y-70010064D01*
X123892070Y-69991035D01*
X123888898Y-69971988D01*
X123887141Y-69952923D01*
X123886800Y-69933840D01*
X123887873Y-69914740D01*
X123890363Y-69895621D01*
X123894267Y-69876485D01*
X123899587Y-69857331D01*
X123906322Y-69838159D01*
X123914473Y-69818969D01*
X123924039Y-69799761D01*
X123935020Y-69780535D01*
X123947417Y-69761292D01*
X123961229Y-69742030D01*
X123966046Y-69736152D01*
X123971031Y-69730446D01*
X123976186Y-69724914D01*
X123981509Y-69719555D01*
X123987001Y-69714369D01*
X123992661Y-69709357D01*
X123998491Y-69704518D01*
X124004490Y-69699852D01*
X124010658Y-69695361D01*
X124016995Y-69691042D01*
X124023502Y-69686898D01*
X124030177Y-69682927D01*
X124037022Y-69679130D01*
X124044037Y-69675507D01*
X124051221Y-69672058D01*
X124058574Y-69668783D01*
X124058575Y-69668783D01*
X124058575Y-69668784D01*
X124058576Y-69668784D01*
X124081150Y-69659164D01*
X124100400Y-69651669D01*
X124119661Y-69645669D01*
X124138936Y-69641163D01*
X124158223Y-69638151D01*
X124177522Y-69636633D01*
X124196835Y-69636609D01*
X124216159Y-69638079D01*
X124235497Y-69641043D01*
X124254847Y-69645500D01*
X124274211Y-69651450D01*
X124293587Y-69658894D01*
X124312976Y-69667830D01*
X124332379Y-69678260D01*
X124351794Y-69690182D01*
X124371223Y-69703597D01*
X124390665Y-69718505D01*
X124396148Y-69723748D01*
X124401454Y-69729066D01*
X124406583Y-69734459D01*
X124411535Y-69739928D01*
X124416310Y-69745471D01*
X124420908Y-69751089D01*
X124425329Y-69756783D01*
X124429574Y-69762552D01*
X124433643Y-69768396D01*
X124437535Y-69774315D01*
X124441251Y-69780311D01*
X124444792Y-69786381D01*
X124448156Y-69792528D01*
X124451345Y-69798749D01*
X124454359Y-69805047D01*
X124457197Y-69811421D01*
X124725992Y-70439451D01*
X124738193Y-70467269D01*
X124750418Y-70493766D01*
X124762666Y-70518945D01*
X124774937Y-70542804D01*
X124787233Y-70565343D01*
X124799552Y-70586564D01*
X124811895Y-70606464D01*
X124824261Y-70625046D01*
X124836652Y-70642308D01*
X124849067Y-70658251D01*
X124861506Y-70672874D01*
X124873969Y-70686179D01*
X124886457Y-70698163D01*
X124898968Y-70708829D01*
X124911504Y-70718175D01*
X124924065Y-70726201D01*
X124945721Y-70741042D01*
X124967039Y-70754473D01*
X124988020Y-70766492D01*
X125008664Y-70777100D01*
X125028971Y-70786298D01*
X125048940Y-70794085D01*
X125068571Y-70800461D01*
X125087865Y-70805425D01*
X125106822Y-70808980D01*
X125125440Y-70811123D01*
X125143721Y-70811855D01*
X125161664Y-70811176D01*
X125179268Y-70809087D01*
X125196535Y-70805586D01*
X125213464Y-70800675D01*
X125230055Y-70794353D01*
X125258773Y-70782065D01*
X125268133Y-70777815D01*
X125277228Y-70773189D01*
X125286058Y-70768187D01*
X125294624Y-70762811D01*
X125302924Y-70757059D01*
X125310960Y-70750932D01*
X125318731Y-70744430D01*
X125326237Y-70737552D01*
X125333478Y-70730299D01*
X125340454Y-70722672D01*
X125347165Y-70714669D01*
X125353611Y-70706291D01*
X125359792Y-70697537D01*
X125365709Y-70688409D01*
X125371360Y-70678906D01*
X125376747Y-70669027D01*
X125381868Y-70658774D01*
X125386725Y-70648145D01*
X125391316Y-70637142D01*
X125395643Y-70625763D01*
X125399704Y-70614010D01*
X125403501Y-70601881D01*
X125407032Y-70589378D01*
X125410299Y-70576499D01*
X125413300Y-70563246D01*
X125416037Y-70549618D01*
X125418508Y-70535615D01*
X125420714Y-70521237D01*
X125424332Y-70491357D01*
X125426889Y-70459977D01*
X125426969Y-70447121D01*
X125426478Y-70433771D01*
X125425415Y-70419926D01*
X125423781Y-70405587D01*
X125421574Y-70390753D01*
X125418796Y-70375424D01*
X125415446Y-70359601D01*
X125411524Y-70343284D01*
X125407030Y-70326472D01*
X125401964Y-70309166D01*
X125396326Y-70291365D01*
X125390115Y-70273070D01*
X125383332Y-70254280D01*
X125375977Y-70234996D01*
X125368049Y-70215217D01*
X125359548Y-70194944D01*
X125082846Y-69548482D01*
X125075088Y-69528449D01*
X125068943Y-69508370D01*
X125064408Y-69488247D01*
X125061486Y-69468079D01*
X125060176Y-69447866D01*
X125060477Y-69427608D01*
X125062390Y-69407304D01*
X125065915Y-69386956D01*
X125071052Y-69366563D01*
X125077801Y-69346124D01*
X125086161Y-69325640D01*
X125096133Y-69305110D01*
X125107717Y-69284535D01*
X125120913Y-69263915D01*
X125135720Y-69243249D01*
X125152140Y-69222537D01*
X125163364Y-69213755D01*
X125174462Y-69205554D01*
X125185433Y-69197936D01*
X125196276Y-69190902D01*
X125206989Y-69184453D01*
X125217572Y-69178589D01*
X125228023Y-69173313D01*
X125233199Y-69170896D01*
X125238341Y-69168625D01*
X125250676Y-69163387D01*
X125271945Y-69155132D01*
X125293175Y-69148601D01*
X125314366Y-69143795D01*
X125335517Y-69140714D01*
X125356630Y-69139357D01*
X125377703Y-69139725D01*
G37*
G36*
X128411508Y-73437696D02*
G01*
X128429159Y-73439848D01*
X128446548Y-73443224D01*
X128463673Y-73447824D01*
X128480534Y-73453649D01*
X128497132Y-73460699D01*
X128513467Y-73468973D01*
X128529538Y-73478471D01*
X128545346Y-73489194D01*
X128560891Y-73501141D01*
X128576172Y-73514313D01*
X128591189Y-73528710D01*
X128605944Y-73544330D01*
X128620434Y-73561176D01*
X128626140Y-73570588D01*
X128631543Y-73579948D01*
X128636641Y-73589256D01*
X128641436Y-73598510D01*
X128645926Y-73607712D01*
X128650112Y-73616861D01*
X128653993Y-73625957D01*
X128657570Y-73635001D01*
X128660842Y-73643991D01*
X128663810Y-73652928D01*
X128666472Y-73661812D01*
X128668829Y-73670643D01*
X128670881Y-73679420D01*
X128672627Y-73688144D01*
X128674068Y-73696815D01*
X128675203Y-73705432D01*
X128675960Y-73715057D01*
X128676142Y-73725625D01*
X128675749Y-73737136D01*
X128674781Y-73749590D01*
X128673237Y-73762988D01*
X128671117Y-73777330D01*
X128668420Y-73792615D01*
X128665148Y-73808844D01*
X128661299Y-73826017D01*
X128656873Y-73844133D01*
X128651870Y-73863193D01*
X128646291Y-73883198D01*
X128640133Y-73904146D01*
X128633399Y-73926039D01*
X128618196Y-73972656D01*
X128003737Y-76040724D01*
X127994956Y-76060238D01*
X127985365Y-76078651D01*
X127974963Y-76095962D01*
X127963750Y-76112171D01*
X127951727Y-76127279D01*
X127945411Y-76134420D01*
X127938892Y-76141286D01*
X127932171Y-76147876D01*
X127925248Y-76154191D01*
X127918121Y-76160231D01*
X127910792Y-76165996D01*
X127903260Y-76171485D01*
X127895525Y-76176699D01*
X127887588Y-76181637D01*
X127879447Y-76186301D01*
X127871104Y-76190689D01*
X127862559Y-76194802D01*
X127844859Y-76202202D01*
X127826347Y-76208501D01*
X127807025Y-76213699D01*
X127786891Y-76217797D01*
X127765945Y-76220794D01*
X127746964Y-76222429D01*
X127728275Y-76222942D01*
X127709879Y-76222332D01*
X127691775Y-76220599D01*
X127673964Y-76217743D01*
X127656445Y-76213765D01*
X127639219Y-76208664D01*
X127622284Y-76202441D01*
X127605643Y-76195095D01*
X127589294Y-76186627D01*
X127573237Y-76177037D01*
X127557473Y-76166325D01*
X127542001Y-76154491D01*
X127526822Y-76141535D01*
X127511935Y-76127457D01*
X127497340Y-76112257D01*
X127490230Y-76102429D01*
X127483506Y-76092609D01*
X127477169Y-76082797D01*
X127471220Y-76072993D01*
X127465658Y-76063197D01*
X127460483Y-76053408D01*
X127455694Y-76043627D01*
X127451293Y-76033854D01*
X127447278Y-76024089D01*
X127443650Y-76014332D01*
X127440409Y-76004582D01*
X127437554Y-75994840D01*
X127435085Y-75985106D01*
X127433003Y-75975380D01*
X127431308Y-75965662D01*
X127429998Y-75955951D01*
X127429206Y-75945014D01*
X127429188Y-75932706D01*
X127429943Y-75919025D01*
X127431471Y-75903974D01*
X127433774Y-75887552D01*
X127436849Y-75869759D01*
X127440699Y-75850595D01*
X127445321Y-75830061D01*
X127450718Y-75808157D01*
X127456888Y-75784882D01*
X127463831Y-75760238D01*
X127471548Y-75734225D01*
X127489303Y-75678090D01*
X127510152Y-75616480D01*
X127593685Y-75326015D01*
X127593447Y-75323778D01*
X127036663Y-74348364D01*
X126890449Y-74087335D01*
X126832353Y-73977418D01*
X126829857Y-73969489D01*
X126827620Y-73961952D01*
X126825640Y-73954808D01*
X126823918Y-73948057D01*
X126822452Y-73941700D01*
X126821243Y-73935734D01*
X126820289Y-73930162D01*
X126819590Y-73924983D01*
X126818064Y-73911649D01*
X126816370Y-73891334D01*
X126815984Y-73871414D01*
X126816906Y-73851887D01*
X126819137Y-73832754D01*
X126822676Y-73814015D01*
X126827524Y-73795670D01*
X126833680Y-73777718D01*
X126841145Y-73760160D01*
X126849918Y-73742995D01*
X126860001Y-73726223D01*
X126871392Y-73709845D01*
X126884093Y-73693860D01*
X126898102Y-73678268D01*
X126913421Y-73663070D01*
X126930049Y-73648264D01*
X126947986Y-73633852D01*
X126955806Y-73628877D01*
X126963588Y-73624170D01*
X126971330Y-73619729D01*
X126979033Y-73615556D01*
X126986697Y-73611650D01*
X126994321Y-73608012D01*
X127001906Y-73604641D01*
X127009451Y-73601538D01*
X127016957Y-73598703D01*
X127024423Y-73596136D01*
X127031849Y-73593837D01*
X127039236Y-73591806D01*
X127046582Y-73590044D01*
X127053889Y-73588550D01*
X127061155Y-73587325D01*
X127068382Y-73586369D01*
X127095005Y-73583273D01*
X127112899Y-73581795D01*
X127130540Y-73581487D01*
X127147930Y-73582349D01*
X127165067Y-73584381D01*
X127181953Y-73587582D01*
X127198587Y-73591953D01*
X127214968Y-73597494D01*
X127231098Y-73604204D01*
X127246977Y-73612085D01*
X127262603Y-73621135D01*
X127277979Y-73631355D01*
X127293102Y-73642745D01*
X127307975Y-73655305D01*
X127322595Y-73669034D01*
X127336965Y-73683933D01*
X127351084Y-73700002D01*
X127426861Y-73829502D01*
X127531744Y-74011839D01*
X127828810Y-74535059D01*
X127831049Y-74534773D01*
X128029211Y-73862654D01*
X128085847Y-73678086D01*
X128114180Y-73594513D01*
X128125297Y-73577725D01*
X128136750Y-73561899D01*
X128148541Y-73547037D01*
X128160670Y-73533138D01*
X128173136Y-73520201D01*
X128185940Y-73508227D01*
X128199081Y-73497215D01*
X128212561Y-73487166D01*
X128226380Y-73478079D01*
X128240536Y-73469954D01*
X128255031Y-73462791D01*
X128269865Y-73456589D01*
X128285037Y-73451350D01*
X128300548Y-73447071D01*
X128316399Y-73443754D01*
X128332588Y-73441399D01*
X128356973Y-73438589D01*
X128375414Y-73437067D01*
X128393593Y-73436769D01*
X128411508Y-73437696D01*
G37*
G36*
X113588800Y-70205600D02*
G01*
X113714662Y-70222911D01*
X113845011Y-70251817D01*
X113977421Y-70293307D01*
X114043642Y-70319081D01*
X114109469Y-70348372D01*
X114174600Y-70381305D01*
X114238731Y-70418003D01*
X114301559Y-70458590D01*
X114362782Y-70503190D01*
X114422096Y-70551927D01*
X114479199Y-70604924D01*
X114533786Y-70662305D01*
X114585557Y-70724195D01*
X114634206Y-70790716D01*
X114679432Y-70861992D01*
X114720931Y-70938149D01*
X114758400Y-71019308D01*
X114791536Y-71105595D01*
X114820037Y-71197132D01*
X114843598Y-71294044D01*
X114861918Y-71396455D01*
X114874693Y-71504487D01*
X114881621Y-71618266D01*
X114881495Y-71670669D01*
X114877780Y-71726279D01*
X114859907Y-71845865D01*
X114828651Y-71974510D01*
X114784663Y-72109700D01*
X114728593Y-72248920D01*
X114661092Y-72389657D01*
X114582811Y-72529396D01*
X114494400Y-72665623D01*
X114396509Y-72795824D01*
X114289789Y-72917484D01*
X114233322Y-72974325D01*
X114174891Y-73028089D01*
X114114579Y-73078460D01*
X114052466Y-73125124D01*
X113988633Y-73167768D01*
X113923163Y-73206076D01*
X113856136Y-73239735D01*
X113787633Y-73268431D01*
X113717737Y-73291848D01*
X113646527Y-73309673D01*
X113574087Y-73321592D01*
X113500496Y-73327289D01*
X113428539Y-73324757D01*
X113342527Y-73312652D01*
X113244902Y-73290641D01*
X113138103Y-73258392D01*
X113024573Y-73215571D01*
X112906752Y-73161846D01*
X112787083Y-73096884D01*
X112668005Y-73020352D01*
X112609451Y-72977644D01*
X112551961Y-72931918D01*
X112495839Y-72883133D01*
X112441391Y-72831248D01*
X112388922Y-72776220D01*
X112338737Y-72718009D01*
X112291141Y-72656573D01*
X112246440Y-72591869D01*
X112204938Y-72523857D01*
X112166941Y-72452495D01*
X112132753Y-72377742D01*
X112102681Y-72299555D01*
X112077029Y-72217893D01*
X112056102Y-72132714D01*
X112040206Y-72043978D01*
X112029645Y-71951641D01*
X112022769Y-71805556D01*
X112026417Y-71659866D01*
X112040733Y-71515558D01*
X112065857Y-71373617D01*
X112101934Y-71235026D01*
X112149105Y-71100770D01*
X112176896Y-71035576D01*
X112207513Y-70971836D01*
X112240976Y-70909671D01*
X112277301Y-70849206D01*
X112316507Y-70790563D01*
X112358611Y-70733866D01*
X112403631Y-70679238D01*
X112451586Y-70626801D01*
X112502492Y-70576680D01*
X112556367Y-70528996D01*
X112613230Y-70483873D01*
X112673098Y-70441435D01*
X112735990Y-70401804D01*
X112801922Y-70365103D01*
X112870913Y-70331455D01*
X112942980Y-70300984D01*
X113018142Y-70273813D01*
X113096416Y-70250065D01*
X113177819Y-70229862D01*
X113262371Y-70213329D01*
X113360230Y-70201799D01*
X113469848Y-70198893D01*
X113588800Y-70205600D01*
G37*
G36*
X126022169Y-73717940D02*
G01*
X126043318Y-73721042D01*
X126063935Y-73725787D01*
X126084021Y-73732172D01*
X126103575Y-73740198D01*
X126122597Y-73749866D01*
X126141089Y-73761174D01*
X126159049Y-73774123D01*
X126176477Y-73788713D01*
X126193376Y-73804943D01*
X126209743Y-73822813D01*
X126225579Y-73842323D01*
X126240886Y-73863474D01*
X126255661Y-73886264D01*
X126260224Y-73898524D01*
X126264340Y-73910553D01*
X126268009Y-73922351D01*
X126271229Y-73933918D01*
X126274000Y-73945256D01*
X126276322Y-73956364D01*
X126278194Y-73967243D01*
X126279616Y-73977894D01*
X126450542Y-75468319D01*
X126452348Y-75490794D01*
X126452549Y-75512751D01*
X126451146Y-75534188D01*
X126448139Y-75555108D01*
X126443528Y-75575508D01*
X126437312Y-75595391D01*
X126429492Y-75614755D01*
X126420068Y-75633601D01*
X126409039Y-75651929D01*
X126396405Y-75669740D01*
X126382167Y-75687032D01*
X126366324Y-75703808D01*
X126348876Y-75720066D01*
X126329823Y-75735806D01*
X126309165Y-75751030D01*
X126286902Y-75765736D01*
X126273238Y-75771516D01*
X126260067Y-75776676D01*
X126247390Y-75781216D01*
X126235206Y-75785138D01*
X126223512Y-75788441D01*
X126212308Y-75791126D01*
X126201593Y-75793194D01*
X126191365Y-75794645D01*
X126173760Y-75795971D01*
X126165061Y-75796103D01*
X126156430Y-75795879D01*
X126147869Y-75795301D01*
X126139377Y-75794368D01*
X126130953Y-75793081D01*
X126122599Y-75791439D01*
X126114313Y-75789442D01*
X126106097Y-75787090D01*
X126097949Y-75784384D01*
X126089871Y-75781324D01*
X126073921Y-75774138D01*
X126058248Y-75765534D01*
X126042851Y-75755511D01*
X126027730Y-75744069D01*
X126012885Y-75731209D01*
X125998317Y-75716929D01*
X125984025Y-75701232D01*
X125970011Y-75684115D01*
X125956272Y-75665580D01*
X125942811Y-75645626D01*
X125920465Y-75669688D01*
X125897754Y-75692404D01*
X125874678Y-75713775D01*
X125851238Y-75733799D01*
X125827433Y-75752478D01*
X125803263Y-75769812D01*
X125778729Y-75785800D01*
X125753830Y-75800443D01*
X125728566Y-75813741D01*
X125702938Y-75825694D01*
X125676946Y-75836302D01*
X125650590Y-75845566D01*
X125623869Y-75853486D01*
X125596784Y-75860060D01*
X125569336Y-75865291D01*
X125541523Y-75869178D01*
X125484793Y-75873863D01*
X125428830Y-75874826D01*
X125373636Y-75872068D01*
X125319208Y-75865588D01*
X125265548Y-75855387D01*
X125212656Y-75841465D01*
X125160530Y-75823821D01*
X125109172Y-75802455D01*
X125058580Y-75777368D01*
X125008755Y-75748560D01*
X124959696Y-75716030D01*
X124911404Y-75679779D01*
X124863879Y-75639807D01*
X124817119Y-75596112D01*
X124771125Y-75548697D01*
X124725898Y-75497560D01*
X124703353Y-75467073D01*
X124681975Y-75436030D01*
X124661762Y-75404432D01*
X124642716Y-75372278D01*
X124624836Y-75339569D01*
X124608121Y-75306305D01*
X124592572Y-75272485D01*
X124578188Y-75238111D01*
X124564970Y-75203182D01*
X124552917Y-75167698D01*
X124542029Y-75131660D01*
X124532306Y-75095068D01*
X124523748Y-75057921D01*
X124516354Y-75020221D01*
X124510125Y-74981966D01*
X124505060Y-74943158D01*
X124417811Y-74182396D01*
X124416134Y-74162078D01*
X124415820Y-74142147D01*
X124416867Y-74122605D01*
X124419276Y-74103449D01*
X124423046Y-74084681D01*
X124428178Y-74066301D01*
X124434672Y-74048309D01*
X124442528Y-74030704D01*
X124451746Y-74013488D01*
X124462325Y-73996659D01*
X124474267Y-73980218D01*
X124487570Y-73964165D01*
X124502235Y-73948501D01*
X124518261Y-73933225D01*
X124535650Y-73918337D01*
X124554400Y-73903837D01*
X124560698Y-73899578D01*
X124567107Y-73895535D01*
X124573629Y-73891707D01*
X124580262Y-73888094D01*
X124587008Y-73884697D01*
X124593866Y-73881515D01*
X124600836Y-73878549D01*
X124607919Y-73875798D01*
X124615115Y-73873262D01*
X124622423Y-73870942D01*
X124629845Y-73868838D01*
X124637379Y-73866949D01*
X124645027Y-73865275D01*
X124652788Y-73863816D01*
X124660663Y-73862574D01*
X124668652Y-73861546D01*
X124668653Y-73861546D01*
X124693038Y-73858736D01*
X124713619Y-73857069D01*
X124733786Y-73856836D01*
X124753539Y-73858038D01*
X124772877Y-73860674D01*
X124791801Y-73864744D01*
X124810311Y-73870249D01*
X124828406Y-73877188D01*
X124846086Y-73885561D01*
X124863352Y-73895369D01*
X124880203Y-73906611D01*
X124896639Y-73919287D01*
X124912660Y-73933397D01*
X124928267Y-73948942D01*
X124943458Y-73965922D01*
X124958235Y-73984335D01*
X124972596Y-74004183D01*
X124976349Y-74010775D01*
X124979911Y-74017390D01*
X124983283Y-74024026D01*
X124986464Y-74030685D01*
X124989454Y-74037366D01*
X124992252Y-74044069D01*
X124994861Y-74050794D01*
X124997278Y-74057541D01*
X124999504Y-74064309D01*
X125001539Y-74071099D01*
X125003384Y-74077911D01*
X125005038Y-74084744D01*
X125006500Y-74091599D01*
X125007772Y-74098475D01*
X125008853Y-74105373D01*
X125009743Y-74112292D01*
X125087562Y-74790948D01*
X125091290Y-74821099D01*
X125095418Y-74849992D01*
X125099947Y-74877625D01*
X125104876Y-74904000D01*
X125110206Y-74929117D01*
X125115936Y-74952976D01*
X125122066Y-74975577D01*
X125128597Y-74996920D01*
X125135528Y-75017006D01*
X125142859Y-75035835D01*
X125150590Y-75053407D01*
X125158721Y-75069722D01*
X125167251Y-75084780D01*
X125176182Y-75098582D01*
X125185512Y-75111128D01*
X125195242Y-75122418D01*
X125211748Y-75142839D01*
X125228333Y-75161811D01*
X125244998Y-75179335D01*
X125261742Y-75195409D01*
X125278566Y-75210035D01*
X125295469Y-75223212D01*
X125312452Y-75234940D01*
X125329515Y-75245219D01*
X125346657Y-75254050D01*
X125363879Y-75261431D01*
X125381182Y-75267364D01*
X125398564Y-75271848D01*
X125407285Y-75273546D01*
X125416026Y-75274883D01*
X125424788Y-75275857D01*
X125433569Y-75276469D01*
X125442370Y-75276719D01*
X125451192Y-75276606D01*
X125460033Y-75276132D01*
X125468895Y-75275295D01*
X125499948Y-75271723D01*
X125510134Y-75270331D01*
X125520174Y-75268504D01*
X125530068Y-75266241D01*
X125539814Y-75263543D01*
X125549414Y-75260410D01*
X125558867Y-75256842D01*
X125568174Y-75252838D01*
X125577334Y-75248399D01*
X125586347Y-75243524D01*
X125595213Y-75238214D01*
X125603933Y-75232469D01*
X125612507Y-75226289D01*
X125620933Y-75219673D01*
X125629214Y-75212622D01*
X125637347Y-75205135D01*
X125645334Y-75197214D01*
X125653175Y-75188857D01*
X125660869Y-75180064D01*
X125675818Y-75161173D01*
X125690182Y-75140541D01*
X125703959Y-75118168D01*
X125717151Y-75094053D01*
X125729758Y-75068198D01*
X125741780Y-75040600D01*
X125753217Y-75011262D01*
X125756979Y-74998968D01*
X125760334Y-74986038D01*
X125763283Y-74972469D01*
X125765825Y-74958263D01*
X125767961Y-74943420D01*
X125769690Y-74927939D01*
X125771012Y-74911820D01*
X125771927Y-74895063D01*
X125772436Y-74877668D01*
X125772538Y-74859635D01*
X125772233Y-74840964D01*
X125771520Y-74821656D01*
X125770401Y-74801708D01*
X125768875Y-74781123D01*
X125766941Y-74759899D01*
X125764600Y-74738037D01*
X125684495Y-74039426D01*
X125682791Y-74018008D01*
X125682646Y-73997008D01*
X125684058Y-73976427D01*
X125687029Y-73956264D01*
X125691558Y-73936520D01*
X125697645Y-73917195D01*
X125705289Y-73898288D01*
X125714491Y-73879799D01*
X125725251Y-73861730D01*
X125737569Y-73844078D01*
X125751444Y-73826846D01*
X125766877Y-73810031D01*
X125783867Y-73793636D01*
X125802414Y-73777659D01*
X125822519Y-73762101D01*
X125844181Y-73746961D01*
X125857448Y-73741757D01*
X125870425Y-73737076D01*
X125883112Y-73732919D01*
X125895509Y-73729286D01*
X125907616Y-73726178D01*
X125919432Y-73723594D01*
X125930958Y-73721537D01*
X125942194Y-73720005D01*
X125955529Y-73718481D01*
X125978274Y-73716659D01*
X126000488Y-73716479D01*
X126022169Y-73717940D01*
G37*
G36*
X123020831Y-74065671D02*
G01*
X123077709Y-74070942D01*
X123133808Y-74079673D01*
X123189128Y-74091864D01*
X123243668Y-74107515D01*
X123297428Y-74126627D01*
X123350409Y-74149199D01*
X123402610Y-74175232D01*
X123454031Y-74204724D01*
X123504672Y-74237677D01*
X123554533Y-74274090D01*
X123603615Y-74313963D01*
X123651916Y-74357297D01*
X123699437Y-74404091D01*
X123726895Y-74434716D01*
X123752906Y-74466190D01*
X123777469Y-74498514D01*
X123800584Y-74531688D01*
X123822252Y-74565711D01*
X123842473Y-74600584D01*
X123861246Y-74636307D01*
X123878572Y-74672880D01*
X123894451Y-74710303D01*
X123908883Y-74748576D01*
X123921868Y-74787699D01*
X123933406Y-74827672D01*
X123943497Y-74868496D01*
X123952141Y-74910170D01*
X123959338Y-74952694D01*
X123965089Y-74996069D01*
X123970694Y-75059873D01*
X123972757Y-75122643D01*
X123971279Y-75184379D01*
X123966259Y-75245082D01*
X123957697Y-75304751D01*
X123945593Y-75363387D01*
X123929948Y-75420989D01*
X123910761Y-75477558D01*
X123888032Y-75533092D01*
X123861762Y-75587594D01*
X123831949Y-75641061D01*
X123798595Y-75693495D01*
X123761699Y-75744895D01*
X123721262Y-75795262D01*
X123677283Y-75844595D01*
X123629762Y-75892895D01*
X123599188Y-75919533D01*
X123568047Y-75944743D01*
X123536337Y-75968526D01*
X123504060Y-75990881D01*
X123471216Y-76011809D01*
X123437803Y-76031310D01*
X123403824Y-76049383D01*
X123369277Y-76066030D01*
X123334163Y-76081249D01*
X123298483Y-76095041D01*
X123262235Y-76107407D01*
X123225421Y-76118345D01*
X123188041Y-76127857D01*
X123150094Y-76135942D01*
X123111581Y-76142600D01*
X123072502Y-76147832D01*
X123043177Y-76150665D01*
X123013975Y-76152431D01*
X122984897Y-76153129D01*
X122955943Y-76152761D01*
X122927112Y-76151325D01*
X122898405Y-76148823D01*
X122869821Y-76145253D01*
X122841360Y-76140616D01*
X122813023Y-76134913D01*
X122784810Y-76128142D01*
X122756719Y-76120304D01*
X122728751Y-76111398D01*
X122700907Y-76101426D01*
X122673186Y-76090387D01*
X122645587Y-76078280D01*
X122618112Y-76065107D01*
X122668452Y-76504256D01*
X122670326Y-76527540D01*
X122670538Y-76550258D01*
X122669086Y-76572411D01*
X122665971Y-76594001D01*
X122661193Y-76615025D01*
X122654752Y-76635485D01*
X122646649Y-76655381D01*
X122636883Y-76674712D01*
X122625454Y-76693479D01*
X122612363Y-76711682D01*
X122597609Y-76729321D01*
X122581193Y-76746396D01*
X122563115Y-76762907D01*
X122543375Y-76778854D01*
X122521972Y-76794237D01*
X122498907Y-76809056D01*
X122484256Y-76814423D01*
X122470448Y-76819201D01*
X122457484Y-76823391D01*
X122445364Y-76826993D01*
X122434088Y-76830008D01*
X122423656Y-76832437D01*
X122414068Y-76834279D01*
X122405324Y-76835536D01*
X122383411Y-76837358D01*
X122362018Y-76837753D01*
X122341144Y-76836719D01*
X122320789Y-76834257D01*
X122300954Y-76830368D01*
X122281640Y-76825050D01*
X122262845Y-76818303D01*
X122244572Y-76810128D01*
X122226819Y-76800524D01*
X122209586Y-76789491D01*
X122192875Y-76777030D01*
X122176686Y-76763139D01*
X122161017Y-76747818D01*
X122145871Y-76731069D01*
X122131247Y-76712889D01*
X122117145Y-76693280D01*
X122113151Y-76686930D01*
X122109349Y-76680417D01*
X122105739Y-76673741D01*
X122102322Y-76666903D01*
X122099096Y-76659901D01*
X122096062Y-76652738D01*
X122093220Y-76645411D01*
X122090570Y-76637922D01*
X122088112Y-76630271D01*
X122085846Y-76622457D01*
X122083773Y-76614481D01*
X122081891Y-76606343D01*
X122080201Y-76598043D01*
X122078703Y-76589580D01*
X122077396Y-76580956D01*
X122076282Y-76572170D01*
X121908502Y-75109153D01*
X122511149Y-75109153D01*
X122511446Y-75121916D01*
X122512076Y-75134676D01*
X122513040Y-75147432D01*
X122514337Y-75160186D01*
X122514336Y-75160185D01*
X122518867Y-75191542D01*
X122525154Y-75221835D01*
X122533199Y-75251067D01*
X122543000Y-75279236D01*
X122554559Y-75306343D01*
X122567874Y-75332387D01*
X122582946Y-75357370D01*
X122599775Y-75381290D01*
X122618361Y-75404148D01*
X122638704Y-75425944D01*
X122660804Y-75446678D01*
X122684661Y-75466350D01*
X122710274Y-75484961D01*
X122737645Y-75502509D01*
X122766773Y-75518996D01*
X122797657Y-75534422D01*
X122822776Y-75541546D01*
X122846912Y-75547450D01*
X122870065Y-75552134D01*
X122881273Y-75554018D01*
X122892235Y-75555597D01*
X122902950Y-75556871D01*
X122913419Y-75557840D01*
X122923642Y-75558503D01*
X122933619Y-75558860D01*
X122943349Y-75558912D01*
X122952832Y-75558659D01*
X122962069Y-75558099D01*
X122971060Y-75557234D01*
X123010970Y-75552663D01*
X123034807Y-75549190D01*
X123058079Y-75544307D01*
X123080785Y-75538015D01*
X123102927Y-75530313D01*
X123124504Y-75521201D01*
X123145516Y-75510680D01*
X123165962Y-75498750D01*
X123185843Y-75485411D01*
X123205159Y-75470662D01*
X123223909Y-75454504D01*
X123242094Y-75436937D01*
X123259713Y-75417961D01*
X123276767Y-75397576D01*
X123293255Y-75375782D01*
X123309177Y-75352580D01*
X123324534Y-75327968D01*
X123332037Y-75312717D01*
X123338937Y-75297413D01*
X123345234Y-75282056D01*
X123350929Y-75266647D01*
X123356020Y-75251184D01*
X123360509Y-75235668D01*
X123364394Y-75220099D01*
X123367676Y-75204477D01*
X123370354Y-75188800D01*
X123372430Y-75173071D01*
X123373902Y-75157287D01*
X123374770Y-75141449D01*
X123375035Y-75125558D01*
X123374696Y-75109612D01*
X123373753Y-75093611D01*
X123372206Y-75077556D01*
X123370921Y-75066459D01*
X123370912Y-75066323D01*
X123370912Y-75066189D01*
X123370921Y-75066059D01*
X123370939Y-75065932D01*
X123370966Y-75065809D01*
X123371002Y-75065689D01*
X123371046Y-75065572D01*
X123371100Y-75065459D01*
X123371163Y-75065349D01*
X123371235Y-75065243D01*
X123371316Y-75065139D01*
X123371405Y-75065039D01*
X123371504Y-75064943D01*
X123371612Y-75064850D01*
X123371729Y-75064760D01*
X123371855Y-75064673D01*
X123371990Y-75064590D01*
X123372135Y-75064510D01*
X123372288Y-75064434D01*
X123372450Y-75064361D01*
X123372622Y-75064291D01*
X123372802Y-75064224D01*
X123372992Y-75064161D01*
X123373191Y-75064102D01*
X123373399Y-75064045D01*
X123373616Y-75063992D01*
X123373843Y-75063943D01*
X123374078Y-75063896D01*
X123374323Y-75063853D01*
X123374577Y-75063814D01*
X123375112Y-75063744D01*
X123369920Y-75057601D01*
X123368395Y-75044266D01*
X123364393Y-75016668D01*
X123358814Y-74989865D01*
X123351659Y-74963855D01*
X123342928Y-74938639D01*
X123332621Y-74914218D01*
X123320738Y-74890592D01*
X123307279Y-74867760D01*
X123292244Y-74845723D01*
X123275632Y-74824482D01*
X123257445Y-74804036D01*
X123237681Y-74784387D01*
X123216341Y-74765533D01*
X123193425Y-74747475D01*
X123168933Y-74730213D01*
X123142865Y-74713748D01*
X123115221Y-74698080D01*
X123101345Y-74692595D01*
X123087434Y-74687570D01*
X123073488Y-74683005D01*
X123059508Y-74678901D01*
X123045494Y-74675256D01*
X123031444Y-74672073D01*
X123017360Y-74669350D01*
X123003242Y-74667088D01*
X122989089Y-74665287D01*
X122974901Y-74663947D01*
X122960679Y-74663069D01*
X122946422Y-74662652D01*
X122932131Y-74662696D01*
X122917805Y-74663202D01*
X122903445Y-74664170D01*
X122889050Y-74665600D01*
X122858553Y-74670065D01*
X122829161Y-74676353D01*
X122800872Y-74684464D01*
X122773687Y-74694398D01*
X122747607Y-74706154D01*
X122722630Y-74719733D01*
X122698757Y-74735136D01*
X122675988Y-74752360D01*
X122654323Y-74771408D01*
X122633762Y-74792278D01*
X122614305Y-74814972D01*
X122595951Y-74839487D01*
X122578702Y-74865826D01*
X122562557Y-74893988D01*
X122547515Y-74923972D01*
X122533577Y-74955779D01*
X122529877Y-74968574D01*
X122526510Y-74981367D01*
X122523475Y-74994157D01*
X122520773Y-75006945D01*
X122518404Y-75019731D01*
X122516368Y-75032514D01*
X122514665Y-75045294D01*
X122513296Y-75058071D01*
X122512259Y-75070846D01*
X122511556Y-75083618D01*
X122511186Y-75096387D01*
X122511149Y-75109153D01*
X121908502Y-75109153D01*
X121835919Y-74476241D01*
X121834166Y-74454303D01*
X121833997Y-74432852D01*
X121835411Y-74411887D01*
X121838409Y-74391408D01*
X121842990Y-74371415D01*
X121849155Y-74351908D01*
X121856902Y-74332887D01*
X121866233Y-74314352D01*
X121877146Y-74296302D01*
X121889642Y-74278738D01*
X121903720Y-74261659D01*
X121919381Y-74245065D01*
X121936624Y-74228956D01*
X121955448Y-74213332D01*
X121975855Y-74198193D01*
X121997844Y-74183538D01*
X122009486Y-74178511D01*
X122020909Y-74174001D01*
X122032112Y-74170009D01*
X122043094Y-74166536D01*
X122053855Y-74163580D01*
X122064395Y-74161142D01*
X122074713Y-74159223D01*
X122084807Y-74157821D01*
X122084807Y-74157822D01*
X122115858Y-74154297D01*
X122130524Y-74153174D01*
X122145145Y-74153181D01*
X122159720Y-74154317D01*
X122174249Y-74156582D01*
X122188733Y-74159976D01*
X122203170Y-74164499D01*
X122217562Y-74170151D01*
X122231908Y-74176931D01*
X122246208Y-74184840D01*
X122260463Y-74193877D01*
X122274672Y-74204042D01*
X122288835Y-74215336D01*
X122302952Y-74227757D01*
X122317024Y-74241307D01*
X122331050Y-74255983D01*
X122345030Y-74271788D01*
X122346261Y-74273034D01*
X122347418Y-74274253D01*
X122348502Y-74275445D01*
X122349513Y-74276611D01*
X122350450Y-74277750D01*
X122351314Y-74278863D01*
X122352104Y-74279949D01*
X122352822Y-74281009D01*
X122353466Y-74282043D01*
X122354037Y-74283051D01*
X122354535Y-74284032D01*
X122354961Y-74284988D01*
X122355314Y-74285918D01*
X122355593Y-74286821D01*
X122355801Y-74287699D01*
X122355935Y-74288552D01*
X122358174Y-74288267D01*
X122385001Y-74265600D01*
X122411850Y-74244194D01*
X122438722Y-74224050D01*
X122465616Y-74205167D01*
X122492532Y-74187545D01*
X122519471Y-74171185D01*
X122546432Y-74156086D01*
X122573415Y-74142248D01*
X122600421Y-74129672D01*
X122627449Y-74118357D01*
X122654499Y-74108303D01*
X122681571Y-74099511D01*
X122708666Y-74091980D01*
X122735784Y-74085710D01*
X122762923Y-74080701D01*
X122790085Y-74076954D01*
X122845520Y-74070621D01*
X122904736Y-74065511D01*
X122963173Y-74063861D01*
X123020831Y-74065671D01*
G37*
D11*
%TO.C,J4*%
X130810000Y-62941200D03*
X130810000Y-60401200D03*
X133350000Y-62941200D03*
D12*
X133350000Y-60401200D03*
%TD*%
D13*
%TO.C,J3*%
X115687901Y-52854200D03*
X115687901Y-53704201D03*
X115687901Y-54554199D03*
X115687901Y-55404200D03*
X115687901Y-56254201D03*
X115687901Y-57104202D03*
X115687901Y-57954200D03*
X115687901Y-58804201D03*
X114337901Y-58804201D03*
X114337901Y-57954200D03*
X114337901Y-57104202D03*
X114337901Y-56254201D03*
X114337901Y-55404200D03*
X114337901Y-54554199D03*
X114337901Y-53704201D03*
X114337901Y-52854200D03*
D14*
X114707900Y-51504200D03*
D15*
X111322901Y-51504215D03*
D14*
X114707901Y-60154185D03*
D15*
X111322901Y-60154185D03*
%TD*%
D16*
%TO.C,R10*%
X147841200Y-52714400D03*
X147841200Y-50714400D03*
%TD*%
%TO.C,R9*%
X149876800Y-52714400D03*
X149876800Y-50714400D03*
%TD*%
D17*
%TO.C,D5*%
X134909600Y-55427400D03*
X133009600Y-55427400D03*
X133959600Y-57302400D03*
%TD*%
D12*
%TO.C,JP1*%
X110744000Y-63093600D03*
D11*
X110744000Y-65633600D03*
%TD*%
D18*
%TO.C,C1*%
X143948400Y-63808700D03*
X143948400Y-65883700D03*
%TD*%
D19*
%TO.C,R3*%
X135858400Y-69799200D03*
X135858400Y-67799200D03*
%TD*%
D18*
%TO.C,C4*%
X116615200Y-64643000D03*
X116615200Y-62568000D03*
%TD*%
D20*
%TO.C,R7*%
X142256000Y-57531000D03*
X144256000Y-57531000D03*
%TD*%
D19*
%TO.C,R6*%
X151098400Y-68259200D03*
X151098400Y-66259200D03*
%TD*%
D21*
%TO.C,U1*%
X144494400Y-67767200D03*
X144494400Y-69037200D03*
X144494400Y-70307200D03*
X144494400Y-71577200D03*
X144494400Y-72847200D03*
X144494400Y-74117200D03*
X144494400Y-75387200D03*
X144494400Y-76657200D03*
X139344400Y-76657200D03*
X139344400Y-75387200D03*
X139344400Y-74117200D03*
X139344400Y-72847200D03*
X139344400Y-71577200D03*
X139344400Y-70307200D03*
X139344400Y-69037200D03*
X139344400Y-67767200D03*
%TD*%
D22*
%TO.C,REF\u002A\u002A*%
X162084000Y-78264000D03*
%TD*%
%TO.C,REF\u002A\u002A*%
X110204000Y-78264000D03*
%TD*%
D23*
%TO.C,SW1*%
X133767401Y-76621201D03*
X133767401Y-72121199D03*
X135917399Y-76621201D03*
X135917399Y-72121199D03*
%TD*%
D24*
%TO.C,C5*%
X118676500Y-52679600D03*
X120751500Y-52679600D03*
%TD*%
D25*
%TO.C,C7*%
X126695200Y-62736900D03*
X126695200Y-64811900D03*
%TD*%
D20*
%TO.C,R2*%
X138684400Y-63465200D03*
X136684400Y-63465200D03*
%TD*%
D26*
%TO.C,D1*%
X147025400Y-71323200D03*
X149075400Y-71323200D03*
%TD*%
D27*
%TO.C,TP1*%
X129032000Y-48483600D03*
%TD*%
D28*
%TO.C,D3*%
X146071000Y-57515000D03*
X148121000Y-57515000D03*
%TD*%
D16*
%TO.C,R5*%
X151098400Y-71585200D03*
X151098400Y-73585200D03*
%TD*%
D24*
%TO.C,C6*%
X123270100Y-52679600D03*
X125345100Y-52679600D03*
%TD*%
D20*
%TO.C,R8*%
X142256000Y-55372000D03*
X144256000Y-55372000D03*
%TD*%
D12*
%TO.C,J1*%
X156718000Y-74930000D03*
D11*
X159258000Y-74930000D03*
X156718000Y-72390000D03*
X159258000Y-72390000D03*
X156718000Y-69850000D03*
X159258000Y-69850000D03*
X156718000Y-67310000D03*
X159258000Y-67310000D03*
X156718000Y-64770000D03*
X159258000Y-64770000D03*
X156718000Y-62230000D03*
X159258000Y-62230000D03*
X156718000Y-59690000D03*
X159258000Y-59690000D03*
X156718000Y-57150000D03*
X159258000Y-57150000D03*
X156718000Y-54610000D03*
X159258000Y-54610000D03*
X156718000Y-52070000D03*
X159258000Y-52070000D03*
%TD*%
D25*
%TO.C,C8*%
X126695200Y-56976100D03*
X126695200Y-59051100D03*
%TD*%
D20*
%TO.C,R4*%
X138684400Y-65751200D03*
X136684400Y-65751200D03*
%TD*%
D28*
%TO.C,D4*%
X146071000Y-55372000D03*
X148121000Y-55372000D03*
%TD*%
D24*
%TO.C,C9*%
X118676500Y-50414000D03*
X120751500Y-50414000D03*
%TD*%
D26*
%TO.C,D2*%
X147025400Y-69037200D03*
X149075400Y-69037200D03*
%TD*%
D18*
%TO.C,C2*%
X146234400Y-63808700D03*
X146234400Y-65883700D03*
%TD*%
D12*
%TO.C,J2*%
X133355000Y-52197000D03*
D11*
X133355000Y-49657000D03*
X135895000Y-52197000D03*
X135895000Y-49657000D03*
X138435000Y-52197000D03*
X138435000Y-49657000D03*
X140975000Y-52197000D03*
X140975000Y-49657000D03*
X143515000Y-52197000D03*
X143515000Y-49657000D03*
%TD*%
D29*
%TO.C,U2*%
X119155200Y-55311200D03*
X119155200Y-56581200D03*
X119155200Y-57851200D03*
X119155200Y-59121200D03*
X119155200Y-60391200D03*
X119155200Y-61661200D03*
X119155200Y-62931200D03*
X119155200Y-64201200D03*
X124155200Y-64201200D03*
X124155200Y-62931200D03*
X124155200Y-61661200D03*
X124155200Y-60391200D03*
X124155200Y-59121200D03*
X124155200Y-57851200D03*
X124155200Y-56581200D03*
X124155200Y-55311200D03*
%TD*%
D19*
%TO.C,R1*%
X140684400Y-65481200D03*
X140684400Y-63481200D03*
%TD*%
D18*
%TO.C,C3*%
X133588400Y-67761700D03*
X133588400Y-69836700D03*
%TD*%
D22*
%TO.C,REF\u002A\u002A*%
X162084000Y-48736000D03*
%TD*%
%TO.C,REF\u002A\u002A*%
X110204000Y-48736000D03*
%TD*%
M02*
