M48
; DRILL file {KiCad 7.0.6} date Wed Jul 26 12:25:34 2023
; FORMAT={-:-/ absolute / inch / decimal}
; #@! TF.CreationDate,2023-07-26T12:25:34-06:00
; #@! TF.GenerationSoftware,Kicad,Pcbnew,7.0.6
; #@! TF.FileFunction,Plated,1,2,PTH
FMAT,2
INCH
; #@! TA.AperFunction,Plated,PTH,ViaDrill
T1C0.0157
; #@! TA.AperFunction,Plated,PTH,ComponentDrill
T2C0.0160
; #@! TA.AperFunction,Plated,PTH,ComponentDrill
T3C0.0315
; #@! TA.AperFunction,Plated,PTH,ComponentDrill
T4C0.0394
; #@! TA.AperFunction,Plated,PTH,ComponentDrill
T5C0.0433
%
G90
G05
T1
X3.29Y-4.29
X3.4176Y-5.045
X3.6324Y-4.963
X3.6324Y-5.045
X3.635Y-4.4054
X3.635Y-4.775
X3.69Y-4.325
X3.93Y-4.89
X3.94Y-4.4048
X4.01Y-3.9231
X4.061Y-4.6387
X4.21Y-4.355
X4.215Y-4.255
X4.29Y-4.33
X4.3Y-4.71
X4.3Y-4.8872
X4.3528Y-4.4002
X4.4444Y-4.3889
X4.4706Y-4.5243
X4.5406Y-4.4822
X4.5532Y-4.5864
X4.5966Y-4.5576
X4.615Y-4.355
X4.6527Y-4.6739
X4.6624Y-4.4609
X4.6815Y-4.3333
X4.71Y-4.255
X4.7102Y-4.444
X4.72Y-4.22
X4.855Y-4.855
X4.8756Y-3.9989
X4.8768Y-4.6163
X4.8888Y-4.2452
X4.92Y-4.49
X4.9291Y-4.6889
X4.9291Y-4.7735
X4.953Y-3.9546
X4.9535Y-4.095
X4.96Y-4.635
X5.005Y-4.505
X5.005Y-4.545
X5.045Y-4.505
X5.045Y-4.545
X5.095Y-4.095
X5.1063Y-4.6889
X5.1063Y-4.7735
X5.17Y-4.33
X5.17Y-4.37
X5.21Y-4.33
X5.21Y-4.37
T2
X3.4376Y-4.6031
X3.4376Y-4.6366
X3.4376Y-4.6701
X3.4376Y-4.7035
X3.4376Y-4.737
X3.4376Y-4.7705
X3.4376Y-4.8039
X3.4376Y-4.8374
X3.4907Y-4.6031
X3.4907Y-4.6366
X3.4907Y-4.6701
X3.4907Y-4.7035
X3.4907Y-4.737
X3.4907Y-4.7705
X3.4907Y-4.8039
X3.4907Y-4.8374
T4
X3.2752Y-4.41
X3.3752Y-4.41
X3.53Y-3.602
X3.63Y-3.602
X3.73Y-3.602
X3.73Y-5.202
X3.83Y-3.602
X3.83Y-5.202
X3.93Y-3.602
X3.93Y-5.202
X4.03Y-3.602
X4.03Y-5.202
X4.0348Y-4.1502
X4.0348Y-4.2502
X4.13Y-3.602
X4.13Y-5.202
X4.1348Y-4.1502
X4.1348Y-4.2502
X4.23Y-3.602
X4.23Y-5.202
X4.33Y-3.602
X4.33Y-5.202
X4.43Y-3.602
X4.43Y-5.202
X4.58Y-3.602
X4.58Y-5.202
X4.68Y-3.602
X4.68Y-5.202
X4.78Y-3.602
X4.78Y-5.202
X4.88Y-3.602
X4.88Y-5.202
X4.98Y-3.602
X4.98Y-5.202
X5.08Y-3.602
X5.08Y-5.202
X5.18Y-3.602
X5.18Y-5.202
X5.28Y-3.602
X5.28Y-5.202
X5.3316Y-4.2511
X5.3316Y-4.3511
X5.3316Y-4.4511
X5.3316Y-4.5511
X5.3316Y-4.6511
X5.38Y-3.602
X5.38Y-5.202
X5.4316Y-4.2511
X5.4316Y-4.3511
X5.4316Y-4.4511
X5.4316Y-4.5511
X5.4316Y-4.6511
X5.48Y-3.602
X5.48Y-5.202
T5
X3.345Y-3.865
X3.345Y-3.965
T3
G00X3.2992Y-4.55
M15
G01X3.3385Y-4.55
M16
G05
G00X3.2992Y-4.8906
M15
G01X3.3385Y-4.8906
M16
G05
G00X3.4246Y-4.55
M15
G01X3.4797Y-4.55
M16
G05
G00X3.4246Y-4.8906
M15
G01X3.4797Y-4.8906
M16
G05
T0
M30
