%TF.GenerationSoftware,KiCad,Pcbnew,7.0.6*%
%TF.CreationDate,2023-07-26T12:25:32-06:00*%
%TF.ProjectId,PuyoPuy030,5075796f-5075-4793-9033-302e6b696361,rev?*%
%TF.SameCoordinates,Original*%
%TF.FileFunction,Copper,L1,Top*%
%TF.FilePolarity,Positive*%
%FSLAX46Y46*%
G04 Gerber Fmt 4.6, Leading zero omitted, Abs format (unit mm)*
G04 Created by KiCad (PCBNEW 7.0.6) date 2023-07-26 12:25:32*
%MOMM*%
%LPD*%
G01*
G04 APERTURE LIST*
G04 Aperture macros list*
%AMRoundRect*
0 Rectangle with rounded corners*
0 $1 Rounding radius*
0 $2 $3 $4 $5 $6 $7 $8 $9 X,Y pos of 4 corners*
0 Add a 4 corners polygon primitive as box body*
4,1,4,$2,$3,$4,$5,$6,$7,$8,$9,$2,$3,0*
0 Add four circle primitives for the rounded corners*
1,1,$1+$1,$2,$3*
1,1,$1+$1,$4,$5*
1,1,$1+$1,$6,$7*
1,1,$1+$1,$8,$9*
0 Add four rect primitives between the rounded corners*
20,1,$1+$1,$2,$3,$4,$5,0*
20,1,$1+$1,$4,$5,$6,$7,0*
20,1,$1+$1,$6,$7,$8,$9,0*
20,1,$1+$1,$8,$9,$2,$3,0*%
G04 Aperture macros list end*
%TA.AperFunction,SMDPad,CuDef*%
%ADD10R,0.711200X0.990600*%
%TD*%
%TA.AperFunction,SMDPad,CuDef*%
%ADD11R,0.990600X0.711200*%
%TD*%
%TA.AperFunction,ComponentPad*%
%ADD12R,1.700000X1.700000*%
%TD*%
%TA.AperFunction,ComponentPad*%
%ADD13O,1.700000X1.700000*%
%TD*%
%TA.AperFunction,SMDPad,CuDef*%
%ADD14RoundRect,0.250000X0.325000X0.450000X-0.325000X0.450000X-0.325000X-0.450000X0.325000X-0.450000X0*%
%TD*%
%TA.AperFunction,SMDPad,CuDef*%
%ADD15RoundRect,0.250000X-0.250000X-0.475000X0.250000X-0.475000X0.250000X0.475000X-0.250000X0.475000X0*%
%TD*%
%TA.AperFunction,SMDPad,CuDef*%
%ADD16RoundRect,0.250000X0.475000X-0.250000X0.475000X0.250000X-0.475000X0.250000X-0.475000X-0.250000X0*%
%TD*%
%TA.AperFunction,SMDPad,CuDef*%
%ADD17RoundRect,0.250000X0.250000X0.475000X-0.250000X0.475000X-0.250000X-0.475000X0.250000X-0.475000X0*%
%TD*%
%TA.AperFunction,SMDPad,CuDef*%
%ADD18RoundRect,0.150000X-0.150000X0.587500X-0.150000X-0.587500X0.150000X-0.587500X0.150000X0.587500X0*%
%TD*%
%TA.AperFunction,SMDPad,CuDef*%
%ADD19RoundRect,0.250000X0.450000X-0.262500X0.450000X0.262500X-0.450000X0.262500X-0.450000X-0.262500X0*%
%TD*%
%TA.AperFunction,SMDPad,CuDef*%
%ADD20RoundRect,0.250000X0.262500X0.450000X-0.262500X0.450000X-0.262500X-0.450000X0.262500X-0.450000X0*%
%TD*%
%TA.AperFunction,SMDPad,CuDef*%
%ADD21RoundRect,0.124500X0.444982X0.621052X-0.621052X-0.444982X-0.444982X-0.621052X0.621052X0.444982X0*%
%TD*%
%TA.AperFunction,SMDPad,CuDef*%
%ADD22RoundRect,0.125000X0.444275X0.621052X-0.621052X-0.444275X-0.444275X-0.621052X0.621052X0.444275X0*%
%TD*%
%TA.AperFunction,SMDPad,CuDef*%
%ADD23RoundRect,0.124400X0.445124X0.621052X-0.621052X-0.445124X-0.445124X-0.621052X0.621052X0.445124X0*%
%TD*%
%TA.AperFunction,SMDPad,CuDef*%
%ADD24RoundRect,0.124500X-0.444982X0.621052X-0.621052X0.444982X0.444982X-0.621052X0.621052X-0.444982X0*%
%TD*%
%TA.AperFunction,SMDPad,CuDef*%
%ADD25RoundRect,0.125000X-0.444275X0.621052X-0.621052X0.444275X0.444275X-0.621052X0.621052X-0.444275X0*%
%TD*%
%TA.AperFunction,SMDPad,CuDef*%
%ADD26RoundRect,0.250000X-0.450000X0.262500X-0.450000X-0.262500X0.450000X-0.262500X0.450000X0.262500X0*%
%TD*%
%TA.AperFunction,SMDPad,CuDef*%
%ADD27RoundRect,0.250000X-0.325000X-0.450000X0.325000X-0.450000X0.325000X0.450000X-0.325000X0.450000X0*%
%TD*%
%TA.AperFunction,ComponentPad*%
%ADD28C,0.660400*%
%TD*%
%TA.AperFunction,ComponentPad*%
%ADD29O,2.700000X1.200000*%
%TD*%
%TA.AperFunction,ComponentPad*%
%ADD30O,2.200000X1.200000*%
%TD*%
%TA.AperFunction,SMDPad,CuDef*%
%ADD31RoundRect,0.250000X-0.262500X-0.450000X0.262500X-0.450000X0.262500X0.450000X-0.262500X0.450000X0*%
%TD*%
%TA.AperFunction,SMDPad,CuDef*%
%ADD32RoundRect,0.250000X-0.475000X0.250000X-0.475000X-0.250000X0.475000X-0.250000X0.475000X0.250000X0*%
%TD*%
%TA.AperFunction,SMDPad,CuDef*%
%ADD33RoundRect,0.150000X0.150000X-0.850000X0.150000X0.850000X-0.150000X0.850000X-0.150000X-0.850000X0*%
%TD*%
%TA.AperFunction,ComponentPad*%
%ADD34R,2.100000X2.100000*%
%TD*%
%TA.AperFunction,ComponentPad*%
%ADD35C,2.100000*%
%TD*%
%TA.AperFunction,SMDPad,CuDef*%
%ADD36C,1.500000*%
%TD*%
%TA.AperFunction,ViaPad*%
%ADD37C,0.600000*%
%TD*%
%TA.AperFunction,Conductor*%
%ADD38C,0.250000*%
%TD*%
%TA.AperFunction,Conductor*%
%ADD39C,1.000000*%
%TD*%
%TA.AperFunction,Conductor*%
%ADD40C,0.400000*%
%TD*%
%TA.AperFunction,Conductor*%
%ADD41C,0.200000*%
%TD*%
G04 APERTURE END LIST*
D10*
%TO.P,SW1,1,1*%
%TO.N,/PF3*%
X107070001Y-124134001D03*
X107070001Y-119633999D03*
%TO.P,SW1,2,2*%
%TO.N,GND*%
X109219999Y-124134001D03*
X109219999Y-119633999D03*
%TD*%
D11*
%TO.P,SW3,1,1*%
%TO.N,/NRST*%
X130306601Y-100447999D03*
X125806599Y-100447999D03*
%TO.P,SW3,2,2*%
%TO.N,Net-(R8-Pad1)*%
X130306601Y-98298001D03*
X125806599Y-98298001D03*
%TD*%
%TO.P,SW2,1,1*%
%TO.N,/BOOT0*%
X129699801Y-121246499D03*
X125199799Y-121246499D03*
%TO.P,SW2,2,2*%
%TO.N,GND*%
X129699801Y-119096501D03*
X125199799Y-119096501D03*
%TD*%
D12*
%TO.P,J5,1,Pin_1*%
%TO.N,VCC*%
X116332000Y-91490800D03*
D13*
%TO.P,J5,2,Pin_2*%
%TO.N,GND*%
X118872000Y-91490800D03*
%TO.P,J5,3,Pin_3*%
%TO.N,/PA8*%
X121412000Y-91490800D03*
%TO.P,J5,4,Pin_4*%
%TO.N,/PA9*%
X123952000Y-91490800D03*
%TO.P,J5,5,Pin_5*%
%TO.N,/PA10*%
X126492000Y-91490800D03*
%TO.P,J5,6,Pin_6*%
%TO.N,/PA11*%
X129032000Y-91490800D03*
%TO.P,J5,7,Pin_7*%
%TO.N,/PA12*%
X131572000Y-91490800D03*
%TO.P,J5,8,Pin_8*%
%TO.N,/PA13{slash}SWDIO*%
X134112000Y-91490800D03*
%TO.P,J5,9,Pin_9*%
%TO.N,/PA14{slash}SWDCLK*%
X136652000Y-91490800D03*
%TO.P,J5,10,Pin_10*%
%TO.N,/PA15*%
X139192000Y-91490800D03*
%TD*%
D14*
%TO.P,D1,1,K*%
%TO.N,Net-(D1-K)*%
X96099100Y-107823000D03*
%TO.P,D1,2,A*%
%TO.N,Net-(D1-A)*%
X94049100Y-107823000D03*
%TD*%
D15*
%TO.P,C1,1*%
%TO.N,VCC*%
X123068000Y-111760000D03*
%TO.P,C1,2*%
%TO.N,GND*%
X124968000Y-111760000D03*
%TD*%
D16*
%TO.P,C4,1*%
%TO.N,VCC*%
X92329000Y-113795800D03*
%TO.P,C4,2*%
%TO.N,GND*%
X92329000Y-111895800D03*
%TD*%
D17*
%TO.P,C9,1*%
%TO.N,VCC*%
X88707000Y-128143000D03*
%TO.P,C9,2*%
%TO.N,GND*%
X86807000Y-128143000D03*
%TD*%
D12*
%TO.P,J3,1,Pin_1*%
%TO.N,Net-(J3-Pin_1)*%
X137962600Y-118137700D03*
D13*
%TO.P,J3,2,Pin_2*%
%TO.N,/PA13{slash}SWDIO*%
X135422600Y-118137700D03*
%TO.P,J3,3,Pin_3*%
%TO.N,GND*%
X137962600Y-115597700D03*
%TO.P,J3,4,Pin_4*%
%TO.N,/PA14{slash}SWDCLK*%
X135422600Y-115597700D03*
%TO.P,J3,5,Pin_5*%
%TO.N,GND*%
X137962600Y-113057700D03*
%TO.P,J3,6,Pin_6*%
%TO.N,/SWO*%
X135422600Y-113057700D03*
%TO.P,J3,7,Pin_7*%
%TO.N,unconnected-(J3-Pin_7-Pad7)*%
X137962600Y-110517700D03*
%TO.P,J3,8,Pin_8*%
%TO.N,unconnected-(J3-Pin_8-Pad8)*%
X135422600Y-110517700D03*
%TO.P,J3,9,Pin_9*%
%TO.N,GND*%
X137962600Y-107977700D03*
%TO.P,J3,10,Pin_10*%
%TO.N,/NRST*%
X135422600Y-107977700D03*
%TD*%
D18*
%TO.P,D3,1*%
%TO.N,Net-(J3-Pin_1)*%
X135189000Y-121236500D03*
%TO.P,D3,2*%
X133289000Y-121236500D03*
%TO.P,D3,3*%
%TO.N,VCC*%
X134239000Y-123111500D03*
%TD*%
D12*
%TO.P,J6,1,Pin_1*%
%TO.N,/PB0*%
X116332000Y-132130800D03*
D13*
%TO.P,J6,2,Pin_2*%
%TO.N,/PB1*%
X118872000Y-132130800D03*
%TO.P,J6,3,Pin_3*%
%TO.N,/PB2*%
X121412000Y-132130800D03*
%TO.P,J6,4,Pin_4*%
%TO.N,/PB3*%
X123952000Y-132130800D03*
%TO.P,J6,5,Pin_5*%
%TO.N,/PB4*%
X126492000Y-132130800D03*
%TO.P,J6,6,Pin_6*%
%TO.N,/PB5*%
X129032000Y-132130800D03*
%TO.P,J6,7,Pin_7*%
%TO.N,/PB6*%
X131572000Y-132130800D03*
%TO.P,J6,8,Pin_8*%
%TO.N,/PB7*%
X134112000Y-132130800D03*
%TO.P,J6,9,Pin_9*%
%TO.N,/PB8*%
X136652000Y-132130800D03*
%TO.P,J6,10,Pin_10*%
%TO.N,GND*%
X139192000Y-132130800D03*
%TD*%
D19*
%TO.P,R10,1*%
%TO.N,GND*%
X83566000Y-108966000D03*
%TO.P,R10,2*%
%TO.N,Net-(D4-K)*%
X83566000Y-107141000D03*
%TD*%
D20*
%TO.P,R1,1*%
%TO.N,Net-(D1-A)*%
X92278200Y-107823000D03*
%TO.P,R1,2*%
%TO.N,VCC*%
X90453200Y-107823000D03*
%TD*%
%TO.P,R4,1*%
%TO.N,/PY32_TXD*%
X99794700Y-105714800D03*
%TO.P,R4,2*%
%TO.N,Net-(D2-K)*%
X97969700Y-105714800D03*
%TD*%
D16*
%TO.P,C5,1*%
%TO.N,Net-(U2-DTR)*%
X96189800Y-113780600D03*
%TO.P,C5,2*%
%TO.N,/NRST*%
X96189800Y-111880600D03*
%TD*%
D21*
%TO.P,U1,1,VCC*%
%TO.N,VCC*%
X120607284Y-111763099D03*
D22*
%TO.P,U1,2,OSCIN-PF0*%
%TO.N,/PY32_RX*%
X120042306Y-111198121D03*
%TO.P,U1,3,OSCOUT-PF1*%
%TO.N,/PY32_TX*%
X119476621Y-110632436D03*
%TO.P,U1,4,PF2-NRST*%
%TO.N,/NRST*%
X118910935Y-110066750D03*
D23*
%TO.P,U1,5,PF3*%
%TO.N,/PF3*%
X118344401Y-109500216D03*
D22*
%TO.P,U1,6,PA0*%
%TO.N,/PA0*%
X117779564Y-108935379D03*
%TO.P,U1,7,PA1*%
%TO.N,/PA1*%
X117213879Y-108369694D03*
%TO.P,U1,8,PA2*%
%TO.N,/PA2*%
X116648194Y-107804008D03*
D24*
%TO.P,U1,9,PA3*%
%TO.N,/PA3*%
X114521499Y-107804716D03*
D25*
%TO.P,U1,10,PA4*%
%TO.N,/PA4*%
X113956521Y-108369694D03*
%TO.P,U1,11,PA5*%
%TO.N,/PA5*%
X113390836Y-108935379D03*
%TO.P,U1,12,PA6*%
%TO.N,/PA6*%
X112825150Y-109501065D03*
%TO.P,U1,13,PA7*%
%TO.N,/PA7*%
X112259465Y-110066750D03*
%TO.P,U1,14,PB0*%
%TO.N,/PB0*%
X111693779Y-110632436D03*
%TO.P,U1,15,PB1*%
%TO.N,/PB1*%
X111128094Y-111198121D03*
%TO.P,U1,16,VSS*%
%TO.N,GND*%
X110562408Y-111763806D03*
D22*
%TO.P,U1,17,PB2*%
%TO.N,/PB2*%
X110562408Y-113889794D03*
%TO.P,U1,18,PA8*%
%TO.N,/PA8*%
X111128094Y-114455479D03*
%TO.P,U1,19,PA9-OSC32OUT*%
%TO.N,/PA9*%
X111693779Y-115021164D03*
%TO.P,U1,20,PA10-OSC32IN*%
%TO.N,/PA10*%
X112259465Y-115586850D03*
%TO.P,U1,21,PA11*%
%TO.N,/PA11*%
X112825150Y-116152535D03*
%TO.P,U1,22,PA12*%
%TO.N,/PA12*%
X113390836Y-116718221D03*
%TO.P,U1,23,PA13*%
%TO.N,/PA13{slash}SWDIO*%
X113956521Y-117283906D03*
%TO.P,U1,24,PA14*%
%TO.N,/PA14{slash}SWDCLK*%
X114522206Y-117849592D03*
D25*
%TO.P,U1,25,PA15*%
%TO.N,/PA15*%
X116648194Y-117849592D03*
%TO.P,U1,26,PB3*%
%TO.N,/PB3*%
X117213879Y-117283906D03*
%TO.P,U1,27,PB4*%
%TO.N,/PB4*%
X117779564Y-116718221D03*
%TO.P,U1,28,PB5*%
%TO.N,/PB5*%
X118345250Y-116152535D03*
%TO.P,U1,29,PB6*%
%TO.N,/PB6*%
X118910935Y-115586850D03*
%TO.P,U1,30,PB7*%
%TO.N,/PB7*%
X119476621Y-115021164D03*
%TO.P,U1,31,PF4-BOOT0*%
%TO.N,/BOOT0*%
X120042306Y-114455479D03*
%TO.P,U1,32,PB8*%
%TO.N,/PB8*%
X120607992Y-113889794D03*
%TD*%
D15*
%TO.P,C8,1*%
%TO.N,VCC*%
X90363000Y-128143000D03*
%TO.P,C8,2*%
%TO.N,GND*%
X92263000Y-128143000D03*
%TD*%
D26*
%TO.P,R5,1*%
%TO.N,VCC*%
X99771200Y-98936800D03*
%TO.P,R5,2*%
%TO.N,/PY32_RX*%
X99771200Y-100761800D03*
%TD*%
D27*
%TO.P,D4,1,K*%
%TO.N,Net-(D4-K)*%
X83557000Y-105210600D03*
%TO.P,D4,2,A*%
%TO.N,Net-(D4-A)*%
X85607000Y-105210600D03*
%TD*%
D26*
%TO.P,R9,1*%
%TO.N,Net-(D4-A)*%
X85598000Y-107141000D03*
%TO.P,R9,2*%
%TO.N,VCC*%
X85598000Y-108966000D03*
%TD*%
%TO.P,R8,1*%
%TO.N,Net-(R8-Pad1)*%
X123840200Y-99747700D03*
%TO.P,R8,2*%
%TO.N,GND*%
X123840200Y-101572700D03*
%TD*%
D12*
%TO.P,J7,1,Pin_1*%
%TO.N,VCC*%
X94742000Y-132130800D03*
D13*
%TO.P,J7,2,Pin_2*%
%TO.N,GND*%
X97282000Y-132130800D03*
%TO.P,J7,3,Pin_3*%
%TO.N,/NRST*%
X99822000Y-132130800D03*
%TO.P,J7,4,Pin_4*%
%TO.N,/PF3*%
X102362000Y-132130800D03*
%TO.P,J7,5,Pin_5*%
%TO.N,/BOOT0*%
X104902000Y-132130800D03*
%TO.P,J7,6,Pin_6*%
%TO.N,/PY32_RX*%
X107442000Y-132130800D03*
%TO.P,J7,7,Pin_7*%
%TO.N,/PY32_TX*%
X109982000Y-132130800D03*
%TO.P,J7,8,Pin_8*%
%TO.N,VCC*%
X112522000Y-132130800D03*
%TD*%
D12*
%TO.P,J2,1,Pin_1*%
%TO.N,/PY32_RXD*%
X102484000Y-107955000D03*
D13*
%TO.P,J2,2,Pin_2*%
%TO.N,/PY32_RX*%
X102484000Y-105415000D03*
%TO.P,J2,3,Pin_3*%
%TO.N,/PY32_TXD*%
X105024000Y-107955000D03*
%TO.P,J2,4,Pin_4*%
%TO.N,/PY32_TX*%
X105024000Y-105415000D03*
%TD*%
D28*
%TO.P,J1,A1,GND*%
%TO.N,GND*%
X88664000Y-116920000D03*
%TO.P,J1,A4,VBUS*%
%TO.N,Net-(JP1-A)*%
X88664000Y-117770001D03*
%TO.P,J1,A5,CC1*%
%TO.N,unconnected-(J1-CC1-PadA5)*%
X88664000Y-118619999D03*
%TO.P,J1,A6,Dp1*%
%TO.N,/USB_D+*%
X88664000Y-119470000D03*
%TO.P,J1,A7,Dn1*%
%TO.N,/USB_D-*%
X88664000Y-120320001D03*
%TO.P,J1,A8,SBU1*%
%TO.N,unconnected-(J1-SBU1-PadA8)*%
X88664000Y-121170002D03*
%TO.P,J1,A9,VBUS*%
%TO.N,Net-(JP1-A)*%
X88664000Y-122020000D03*
%TO.P,J1,A12,GND*%
%TO.N,GND*%
X88664000Y-122870001D03*
%TO.P,J1,B1,GND*%
X87314000Y-122870001D03*
%TO.P,J1,B4,VBUS*%
%TO.N,Net-(JP1-A)*%
X87314000Y-122020000D03*
%TO.P,J1,B5,CC2*%
%TO.N,unconnected-(J1-CC2-PadB5)*%
X87314000Y-121170002D03*
%TO.P,J1,B6,Dp2*%
%TO.N,/USB_D+*%
X87314000Y-120320001D03*
%TO.P,J1,B7,Dn2*%
%TO.N,/USB_D-*%
X87314000Y-119470000D03*
%TO.P,J1,B8,SBU2*%
%TO.N,unconnected-(J1-SBU2-PadB8)*%
X87314000Y-118619999D03*
%TO.P,J1,B9,VBUS*%
%TO.N,Net-(JP1-A)*%
X87314000Y-117770001D03*
%TO.P,J1,B12,GND*%
%TO.N,GND*%
X87314000Y-116920000D03*
D29*
%TO.P,J1,S,Shell*%
X87683999Y-115570000D03*
D30*
X84299000Y-115570015D03*
D29*
X87684000Y-124219985D03*
D30*
X84299000Y-124219985D03*
%TD*%
D12*
%TO.P,J4,1,Pin_1*%
%TO.N,VCC*%
X89662000Y-91490800D03*
D13*
%TO.P,J4,2,Pin_2*%
%TO.N,GND*%
X92202000Y-91490800D03*
%TO.P,J4,3,Pin_3*%
%TO.N,/PA7*%
X94742000Y-91490800D03*
%TO.P,J4,4,Pin_4*%
%TO.N,/PA6*%
X97282000Y-91490800D03*
%TO.P,J4,5,Pin_5*%
%TO.N,/PA5*%
X99822000Y-91490800D03*
%TO.P,J4,6,Pin_6*%
%TO.N,/PA4*%
X102362000Y-91490800D03*
%TO.P,J4,7,Pin_7*%
%TO.N,/PA3*%
X104902000Y-91490800D03*
%TO.P,J4,8,Pin_8*%
%TO.N,/PA2*%
X107442000Y-91490800D03*
%TO.P,J4,9,Pin_9*%
%TO.N,/PA1*%
X109982000Y-91490800D03*
%TO.P,J4,10,Pin_10*%
%TO.N,/PA0*%
X112522000Y-91490800D03*
%TD*%
D14*
%TO.P,D2,1,K*%
%TO.N,Net-(D2-K)*%
X96148000Y-105714800D03*
%TO.P,D2,2,A*%
%TO.N,Net-(D2-A)*%
X94098000Y-105714800D03*
%TD*%
D15*
%TO.P,C7,1*%
%TO.N,VCC*%
X90363000Y-126060200D03*
%TO.P,C7,2*%
%TO.N,GND*%
X92263000Y-126060200D03*
%TD*%
%TO.P,C2,1*%
%TO.N,VCC*%
X123068000Y-114046000D03*
%TO.P,C2,2*%
%TO.N,GND*%
X124968000Y-114046000D03*
%TD*%
D20*
%TO.P,R3,1*%
%TO.N,/PY32_RXD*%
X99747700Y-107823000D03*
%TO.P,R3,2*%
%TO.N,Net-(D1-K)*%
X97922700Y-107823000D03*
%TD*%
D31*
%TO.P,R7,1*%
%TO.N,VCC*%
X123994500Y-104013000D03*
%TO.P,R7,2*%
%TO.N,/NRST*%
X125819500Y-104013000D03*
%TD*%
D20*
%TO.P,R2,1*%
%TO.N,Net-(D2-A)*%
X92327100Y-105714800D03*
%TO.P,R2,2*%
%TO.N,VCC*%
X90502100Y-105714800D03*
%TD*%
D12*
%TO.P,JP1,1,A*%
%TO.N,Net-(JP1-A)*%
X85730000Y-112014000D03*
D13*
%TO.P,JP1,2,B*%
%TO.N,VCC*%
X83190000Y-112014000D03*
%TD*%
D32*
%TO.P,C3,1*%
%TO.N,GND*%
X103149400Y-117824200D03*
%TO.P,C3,2*%
%TO.N,Net-(U2-V3)*%
X103149400Y-119724200D03*
%TD*%
D15*
%TO.P,C6,1*%
%TO.N,/NRST*%
X127513000Y-104013000D03*
%TO.P,C6,2*%
%TO.N,GND*%
X129413000Y-104013000D03*
%TD*%
D33*
%TO.P,U2,1,GND*%
%TO.N,GND*%
X92329000Y-121285000D03*
%TO.P,U2,2,TXD*%
%TO.N,/PY32_RXD*%
X93599000Y-121285000D03*
%TO.P,U2,3,RXD*%
%TO.N,/PY32_TXD*%
X94869000Y-121285000D03*
%TO.P,U2,4,V3*%
%TO.N,Net-(U2-V3)*%
X96139000Y-121285000D03*
%TO.P,U2,5,UD+*%
%TO.N,/USB_D+*%
X97409000Y-121285000D03*
%TO.P,U2,6,UD-*%
%TO.N,/USB_D-*%
X98679000Y-121285000D03*
%TO.P,U2,7,NC*%
%TO.N,unconnected-(U2-NC-Pad7)*%
X99949000Y-121285000D03*
%TO.P,U2,8,NC*%
%TO.N,unconnected-(U2-NC-Pad8)*%
X101219000Y-121285000D03*
%TO.P,U2,9,CTS*%
%TO.N,unconnected-(U2-CTS-Pad9)*%
X101219000Y-116285000D03*
%TO.P,U2,10,DSR*%
%TO.N,unconnected-(U2-DSR-Pad10)*%
X99949000Y-116285000D03*
%TO.P,U2,11,RI*%
%TO.N,unconnected-(U2-RI-Pad11)*%
X98679000Y-116285000D03*
%TO.P,U2,12,DCD*%
%TO.N,unconnected-(U2-DCD-Pad12)*%
X97409000Y-116285000D03*
%TO.P,U2,13,DTR*%
%TO.N,Net-(U2-DTR)*%
X96139000Y-116285000D03*
%TO.P,U2,14,RTS*%
%TO.N,unconnected-(U2-RTS-Pad14)*%
X94869000Y-116285000D03*
%TO.P,U2,15,R232*%
%TO.N,unconnected-(U2-R232-Pad15)*%
X93599000Y-116285000D03*
%TO.P,U2,16,VCC*%
%TO.N,VCC*%
X92329000Y-116285000D03*
%TD*%
D34*
%TO.P,J8,1,Pin_1*%
%TO.N,VCC*%
X84963000Y-98171000D03*
D35*
%TO.P,J8,2,Pin_2*%
%TO.N,GND*%
X84963000Y-100711000D03*
%TD*%
D36*
%TO.P,TP1,1,1*%
%TO.N,/SWO*%
X136743400Y-104828100D03*
%TD*%
D19*
%TO.P,R6,1*%
%TO.N,/PY32_TX*%
X101854000Y-101473000D03*
%TO.P,R6,2*%
%TO.N,GND*%
X101854000Y-99648000D03*
%TD*%
D37*
%TO.N,/PA14{slash}SWDCLK*%
X123317000Y-123317000D03*
%TO.N,GND*%
X103149000Y-117824000D03*
X92329000Y-111896000D03*
X86807000Y-128143000D03*
X124968000Y-114046000D03*
X129699600Y-119097000D03*
X109220000Y-119634000D03*
X125199600Y-119097000D03*
X101854000Y-99648000D03*
X132334000Y-109982000D03*
X127127000Y-115443000D03*
X92263000Y-128143000D03*
X109220000Y-124134000D03*
X123840000Y-101573000D03*
X128143000Y-114427000D03*
X92329000Y-121285000D03*
X110562000Y-111764000D03*
X127127000Y-114427000D03*
X131318000Y-109982000D03*
X129413000Y-104013000D03*
X92263000Y-126060000D03*
X131318000Y-110998000D03*
X83566000Y-108966000D03*
X128143000Y-115443000D03*
X132334000Y-110998000D03*
%TO.N,/NRST*%
X108966000Y-109982000D03*
X125820000Y-104013000D03*
X99822000Y-124206000D03*
X125806599Y-100447999D03*
X100076000Y-111881000D03*
X118911000Y-110067000D03*
%TO.N,/PA13{slash}SWDIO*%
X115652000Y-116495800D03*
%TO.N,/PA8*%
X119639000Y-112877400D03*
%TO.N,/PA9*%
X115332200Y-113848100D03*
%TO.N,/PA10*%
X113553800Y-114917600D03*
%TO.N,/PA11*%
X124175900Y-107827900D03*
X118424500Y-113307800D03*
%TO.N,/PA12*%
X116754200Y-115763500D03*
%TO.N,/PA15*%
X118178700Y-118717800D03*
%TO.N,/PB0*%
X112888200Y-111478500D03*
%TO.N,/PB8*%
X123871600Y-117253100D03*
%TO.N,/PF3*%
X106934000Y-110617000D03*
X117221000Y-110617000D03*
%TO.N,/BOOT0*%
X129699801Y-121246499D03*
X125199799Y-121246499D03*
X125984000Y-117729000D03*
%TO.N,/PY32_RX*%
X119888000Y-107188000D03*
%TO.N,/PY32_TX*%
X107061000Y-108077000D03*
X119634000Y-108077000D03*
%TO.N,/PY32_RXD*%
X93726000Y-109855000D03*
%TD*%
D38*
%TO.N,/PA14{slash}SWDCLK*%
X119989600Y-123317000D02*
X123317000Y-123317000D01*
X119275000Y-122602400D02*
X119989600Y-123317000D01*
%TO.N,/PB3*%
X122323000Y-121975500D02*
X118438400Y-118090900D01*
X123952000Y-132130800D02*
X123952000Y-122955200D01*
X122972300Y-121975500D02*
X122323000Y-121975500D01*
X123952000Y-122955200D02*
X122972300Y-121975500D01*
%TO.N,/PA14{slash}SWDCLK*%
X119275000Y-122602400D02*
X119300400Y-122602400D01*
D39*
%TO.N,GND*%
X129159000Y-115443000D02*
X128143000Y-115443000D01*
D40*
X87314000Y-122870001D02*
X88664000Y-122870001D01*
D39*
X129413000Y-104013000D02*
X129413000Y-103844497D01*
X129699801Y-115983801D02*
X129159000Y-115443000D01*
X129699801Y-119096501D02*
X129699801Y-115983801D01*
X127141203Y-101572700D02*
X123840200Y-101572700D01*
X129413000Y-103844497D02*
X127141203Y-101572700D01*
D40*
X125199799Y-119096501D02*
X129699801Y-119096501D01*
D38*
X129699300Y-119097000D02*
X129700000Y-119097000D01*
X129699300Y-119097000D02*
X129699800Y-119096500D01*
X125200300Y-119097000D02*
X125199800Y-119096500D01*
D40*
X87314000Y-116920000D02*
X88664000Y-116920000D01*
D38*
%TO.N,Net-(U2-V3)*%
X102786700Y-119361500D02*
X103149400Y-119724200D01*
X96139000Y-119888000D02*
X97028000Y-118999000D01*
X102786500Y-119361500D02*
X102786700Y-119361500D01*
X96139000Y-121285000D02*
X96139000Y-119888000D01*
X102786500Y-119361500D02*
X103149000Y-119724000D01*
X102424000Y-118999000D02*
X102786500Y-119361500D01*
X97028000Y-118999000D02*
X102424000Y-118999000D01*
%TO.N,VCC*%
X123994500Y-104013000D02*
X123994000Y-104013000D01*
D39*
X131826000Y-121713000D02*
X131826000Y-117348000D01*
X86252500Y-125520000D02*
X83260500Y-125520000D01*
X90453200Y-107823000D02*
X90453200Y-109689000D01*
X91570800Y-113796000D02*
X92329000Y-113796000D01*
X90453200Y-107823000D02*
X90453200Y-105714800D01*
X131826000Y-117348000D02*
X130937000Y-116459000D01*
X116332000Y-89877800D02*
X116332000Y-91490800D01*
X110972000Y-133680800D02*
X112522000Y-132130800D01*
D38*
X120607400Y-111763000D02*
X120607300Y-111763100D01*
D39*
X89662000Y-91490800D02*
X89662000Y-89640800D01*
X88707000Y-128143000D02*
X88707000Y-127974000D01*
X89310200Y-108966000D02*
X90453200Y-107823000D01*
X123068000Y-109728000D02*
X123068000Y-104940000D01*
D38*
X90502100Y-105714800D02*
X90453200Y-105714800D01*
D39*
X83190000Y-112014000D02*
X83190000Y-111605000D01*
X90424000Y-112649000D02*
X91570800Y-113796000D01*
X82499000Y-124758000D02*
X82499000Y-112705000D01*
X82499000Y-112705000D02*
X83190000Y-112014000D01*
X116332000Y-93218000D02*
X116332000Y-91490800D01*
X85598000Y-108966000D02*
X89310200Y-108966000D01*
X83190000Y-111605000D02*
X85598000Y-109197000D01*
X85598000Y-109197000D02*
X85598000Y-108966000D01*
X83260500Y-125520000D02*
X82499000Y-124758000D01*
X89662000Y-89640800D02*
X89679000Y-89623800D01*
X94742000Y-132130800D02*
X96292000Y-133680800D01*
X94742000Y-132131000D02*
X92694800Y-132131000D01*
D40*
X92329000Y-116285000D02*
X92329000Y-113796000D01*
D39*
X123868000Y-103886000D02*
X121412000Y-103886000D01*
X89535000Y-98171000D02*
X84963000Y-98171000D01*
X99618800Y-99089200D02*
X99771200Y-98936800D01*
X90453200Y-99089200D02*
X89535000Y-98171000D01*
X90424000Y-109718000D02*
X90424000Y-112649000D01*
X119507000Y-96393000D02*
X116332000Y-93218000D01*
D38*
X134239000Y-123111500D02*
X134239000Y-123112000D01*
D39*
X90453200Y-99089200D02*
X99618800Y-99089200D01*
X123068000Y-111760000D02*
X123068000Y-109728000D01*
D40*
X123065000Y-111763000D02*
X123068000Y-111760000D01*
D39*
X130937000Y-116459000D02*
X130937000Y-114173000D01*
X89535000Y-98171000D02*
X89662000Y-98044000D01*
X121412000Y-103886000D02*
X119507000Y-101981000D01*
X96292000Y-133680800D02*
X110972000Y-133680800D01*
X116078000Y-89623800D02*
X116332000Y-89877800D01*
X92694800Y-132131000D02*
X88707000Y-128143000D01*
D38*
X92329000Y-113795800D02*
X92329000Y-113796000D01*
D39*
X123068000Y-111760000D02*
X123068000Y-114046000D01*
X130937000Y-114173000D02*
X126492000Y-109728000D01*
X90453200Y-109689000D02*
X90424000Y-109718000D01*
X88707000Y-128143000D02*
X90363000Y-128143000D01*
D38*
X94742000Y-132130800D02*
X94742000Y-132131000D01*
D39*
X119507000Y-101981000D02*
X119507000Y-96393000D01*
X90363000Y-126060200D02*
X90363000Y-128143000D01*
X126492000Y-109728000D02*
X123068000Y-109728000D01*
D40*
X120607400Y-111763000D02*
X123065000Y-111763000D01*
D39*
X133224000Y-123112000D02*
X131826000Y-121713000D01*
X88707000Y-127974000D02*
X86252500Y-125520000D01*
X89662000Y-98044000D02*
X89662000Y-91490800D01*
X89679000Y-89623800D02*
X116078000Y-89623800D01*
X123068000Y-104940000D02*
X123994000Y-104013000D01*
X123994000Y-104013000D02*
X123868000Y-103886000D01*
X134239000Y-123112000D02*
X133224000Y-123112000D01*
X90453200Y-105714800D02*
X90453200Y-99089200D01*
D38*
%TO.N,Net-(U2-DTR)*%
X96164400Y-113806000D02*
X96189800Y-113780600D01*
X96164400Y-113806000D02*
X96189800Y-113781000D01*
X96139000Y-116285000D02*
X96139000Y-113831000D01*
X96139000Y-113831000D02*
X96164400Y-113806000D01*
%TO.N,/NRST*%
X100844000Y-111881000D02*
X102743000Y-109982000D01*
X130306601Y-100447999D02*
X130306601Y-101096601D01*
X127513000Y-104013000D02*
X125820000Y-104013000D01*
X96189800Y-111881000D02*
X100076000Y-111881000D01*
X132080000Y-102870000D02*
X132080000Y-104635000D01*
X130306601Y-101096601D02*
X132080000Y-102870000D01*
X125806599Y-100447999D02*
X125807399Y-100447600D01*
X100076000Y-111881000D02*
X100844000Y-111881000D01*
X99822000Y-132130800D02*
X99822000Y-124206000D01*
X118911000Y-110067000D02*
X118910900Y-110066900D01*
X125807000Y-100447600D02*
X125806601Y-100447600D01*
X96189800Y-111880600D02*
X96189800Y-111881000D01*
X132080000Y-104635000D02*
X135422600Y-107977600D01*
X125819500Y-104013000D02*
X125820000Y-104013000D01*
X125806601Y-100447600D02*
X125806599Y-100447999D01*
X135422600Y-107977600D02*
X135422600Y-107977700D01*
X102743000Y-109982000D02*
X108966000Y-109982000D01*
X125807399Y-100447600D02*
X130306200Y-100447600D01*
X118910900Y-110066900D02*
X118910900Y-110066800D01*
%TO.N,Net-(D1-K)*%
X97922700Y-107823000D02*
X96099100Y-107823000D01*
%TO.N,Net-(D1-A)*%
X94049100Y-107823000D02*
X92278200Y-107823000D01*
%TO.N,Net-(D2-K)*%
X96148200Y-105715000D02*
X96148000Y-105715000D01*
X96148200Y-105715000D02*
X96148000Y-105714800D01*
X97969500Y-105715000D02*
X97969700Y-105714800D01*
X97969700Y-105715000D02*
X97969500Y-105715000D01*
X97969500Y-105715000D02*
X96148200Y-105715000D01*
%TO.N,Net-(D2-A)*%
X94097800Y-105715000D02*
X94098000Y-105714800D01*
X94097800Y-105715000D02*
X92327300Y-105715000D01*
X92327300Y-105715000D02*
X92327100Y-105715000D01*
X94098000Y-105715000D02*
X94097800Y-105715000D01*
X92327300Y-105715000D02*
X92327100Y-105714800D01*
D39*
%TO.N,Net-(J3-Pin_1)*%
X135189000Y-121236000D02*
X133289000Y-121236000D01*
D38*
X135189000Y-121236500D02*
X135189000Y-121236000D01*
X133289000Y-121236500D02*
X133289000Y-121236000D01*
X137962600Y-118300100D02*
X137962600Y-118137700D01*
D39*
X137963000Y-118463000D02*
X135189000Y-121236000D01*
X137963000Y-118300500D02*
X137963000Y-118463000D01*
D38*
X137963000Y-118300500D02*
X137962600Y-118300100D01*
D39*
X137963000Y-118138000D02*
X137963000Y-118300500D01*
D38*
%TO.N,Net-(D4-K)*%
X83557000Y-105211000D02*
X83557000Y-107132000D01*
X83557000Y-107132000D02*
X83566000Y-107141000D01*
X83557000Y-105211000D02*
X83557000Y-105210600D01*
%TO.N,Net-(D4-A)*%
X85607000Y-105211000D02*
X85607000Y-107132000D01*
X85607000Y-105211000D02*
X85607000Y-105210600D01*
X85607000Y-107132000D02*
X85598000Y-107141000D01*
D40*
%TO.N,Net-(JP1-A)*%
X85979000Y-121152000D02*
X86847000Y-122020000D01*
X86847000Y-122020000D02*
X87314000Y-122020000D01*
X88664000Y-117770000D02*
X87314000Y-117770000D01*
X85799000Y-112083000D02*
X85799000Y-118438000D01*
X85799000Y-118438000D02*
X85989000Y-118628000D01*
X87314000Y-117770000D02*
X86847000Y-117770000D01*
X88664000Y-122020000D02*
X87314000Y-122020000D01*
X86847000Y-117770000D02*
X85989000Y-118628000D01*
X85979000Y-118638000D02*
X85979000Y-121152000D01*
X85730000Y-112014000D02*
X85799000Y-112083000D01*
X85989000Y-118628000D02*
X85979000Y-118638000D01*
D41*
%TO.N,/USB_D+*%
X88664000Y-119470000D02*
X88883800Y-119690000D01*
X97819000Y-122395000D02*
X97409000Y-121985000D01*
X91533200Y-123092000D02*
X97569800Y-123092000D01*
X89294200Y-120100000D02*
X90776000Y-121582000D01*
X90776000Y-121582000D02*
X90776000Y-122335000D01*
X90776000Y-122335000D02*
X91533200Y-123092000D01*
X88883800Y-119690000D02*
X88925000Y-119690000D01*
X88925000Y-119690000D02*
X89294200Y-120059000D01*
X97819000Y-122843000D02*
X97819000Y-122395000D01*
X97409000Y-121985000D02*
X97409000Y-121285000D01*
X89294200Y-120059000D02*
X89294200Y-120100000D01*
X97569800Y-123092000D02*
X97819000Y-122843000D01*
%TO.N,/USB_D-*%
X98269000Y-122395000D02*
X98679000Y-121985000D01*
X98269000Y-123029000D02*
X98269000Y-122395000D01*
X88877600Y-120320000D02*
X90326000Y-121768000D01*
D38*
X88587400Y-120320000D02*
X88664000Y-120320000D01*
D41*
X90326000Y-121768000D02*
X90326000Y-122521000D01*
X98679000Y-121985000D02*
X98679000Y-121285000D01*
D38*
X87737400Y-119470000D02*
X88587400Y-120320000D01*
D41*
X88664000Y-120320000D02*
X88877600Y-120320000D01*
X97756200Y-123542000D02*
X98269000Y-123029000D01*
X91346800Y-123542000D02*
X97756200Y-123542000D01*
X90326000Y-122521000D02*
X91346800Y-123542000D01*
D38*
X87314000Y-119470000D02*
X87737400Y-119470000D01*
%TO.N,/PA13{slash}SWDIO*%
X114744600Y-116495800D02*
X113956500Y-117283900D01*
X115652000Y-116495800D02*
X114744600Y-116495800D01*
D40*
%TO.N,/SWO*%
X136743000Y-104828000D02*
X136728000Y-104843500D01*
X136713000Y-104859000D02*
X136713000Y-111768000D01*
X136713000Y-111768000D02*
X135423000Y-113058000D01*
D38*
X136728000Y-104843500D02*
X136743400Y-104828100D01*
X135422700Y-113057700D02*
X135423000Y-113058000D01*
D40*
X136728000Y-104843500D02*
X136713000Y-104859000D01*
D38*
X135422600Y-113057700D02*
X135422700Y-113057700D01*
%TO.N,/PA0*%
X117780000Y-108935000D02*
X118285000Y-108430000D01*
X118285000Y-97253700D02*
X112522000Y-91490800D01*
X117780000Y-108935000D02*
X117779600Y-108935400D01*
X118285000Y-108430000D02*
X118285000Y-97253700D01*
%TO.N,/PA1*%
X117466500Y-108117000D02*
X117213900Y-108369600D01*
X117214000Y-108370000D02*
X117466500Y-108117000D01*
X117466500Y-108117000D02*
X117719000Y-107864000D01*
X117213900Y-108369600D02*
X117213900Y-108369700D01*
X117719000Y-107864000D02*
X117719000Y-99228000D01*
X117719000Y-99228000D02*
X109982000Y-91490800D01*
%TO.N,/PA2*%
X116648000Y-104250500D02*
X116648000Y-100697000D01*
X116648000Y-104250500D02*
X116648200Y-104250700D01*
X116648000Y-100697000D02*
X107442000Y-91490800D01*
X116648000Y-107804000D02*
X116648000Y-104250500D01*
X116648200Y-104250700D02*
X116648200Y-107804000D01*
%TO.N,/PA3*%
X114521000Y-107805000D02*
X114521000Y-104457500D01*
X114521500Y-104458000D02*
X114521500Y-107804700D01*
X114521000Y-104457500D02*
X114521000Y-101110000D01*
X114521000Y-101110000D02*
X104902000Y-91490800D01*
X114521000Y-104457500D02*
X114521500Y-104458000D01*
%TO.N,/PA4*%
X113956500Y-108369500D02*
X113956500Y-108369700D01*
X113411000Y-107824000D02*
X113411000Y-102540000D01*
X113411000Y-102540000D02*
X102362000Y-91490800D01*
X113956500Y-108369500D02*
X113411000Y-107824000D01*
%TO.N,/PA5*%
X113083500Y-108628000D02*
X112776000Y-108321000D01*
X112776000Y-104445000D02*
X99822000Y-91490800D01*
X113391000Y-108935000D02*
X113083500Y-108628000D01*
X113390800Y-108935300D02*
X113390800Y-108935400D01*
X113083500Y-108628000D02*
X113390800Y-108935300D01*
X112776000Y-108321000D02*
X112776000Y-104445000D01*
%TO.N,/PA6*%
X112825000Y-109501000D02*
X112356000Y-109032000D01*
X112356100Y-109032000D02*
X112825200Y-109501100D01*
X111887000Y-106096000D02*
X97282000Y-91490800D01*
X111887000Y-108563000D02*
X111887000Y-106096000D01*
X112356000Y-109032000D02*
X111887000Y-108563000D01*
X112356000Y-109032000D02*
X112356100Y-109032000D01*
%TO.N,/PA7*%
X97358200Y-94107000D02*
X94742000Y-91490800D01*
X111628500Y-109436000D02*
X111628700Y-109436000D01*
X110998000Y-106299000D02*
X98806000Y-94107000D01*
X98806000Y-94107000D02*
X97358200Y-94107000D01*
X110998000Y-108805000D02*
X110998000Y-106299000D01*
X112259000Y-110067000D02*
X111628500Y-109436000D01*
X111628500Y-109436000D02*
X110998000Y-108805000D01*
X111628700Y-109436000D02*
X112259500Y-110066800D01*
%TO.N,/PA8*%
X119427200Y-112665600D02*
X119639000Y-112877400D01*
X112918000Y-112665600D02*
X119427200Y-112665600D01*
X111128100Y-114455500D02*
X112918000Y-112665600D01*
%TO.N,/PA9*%
X111693800Y-115021200D02*
X112866900Y-113848100D01*
X112866900Y-113848100D02*
X115332200Y-113848100D01*
%TO.N,/PA10*%
X112928700Y-114917600D02*
X113553800Y-114917600D01*
X112259500Y-115586800D02*
X112928700Y-114917600D01*
%TO.N,/PA11*%
X129032000Y-91490800D02*
X129032000Y-92667700D01*
X112825200Y-116152500D02*
X113433200Y-115544500D01*
X124219400Y-102699100D02*
X124834900Y-103314600D01*
X122781500Y-98918200D02*
X122781500Y-102050600D01*
X113433200Y-115544500D02*
X113813500Y-115544500D01*
X116674600Y-115057700D02*
X118424500Y-113307800D01*
X113813500Y-115544500D02*
X114300300Y-115057700D01*
X122781500Y-102050600D02*
X123430000Y-102699100D01*
X129032000Y-92667700D02*
X122781500Y-98918200D01*
X124834900Y-103314600D02*
X124834900Y-107168900D01*
X124834900Y-107168900D02*
X124175900Y-107827900D01*
X114300300Y-115057700D02*
X116674600Y-115057700D01*
X123430000Y-102699100D02*
X124219400Y-102699100D01*
%TO.N,/PA12*%
X116754200Y-115763500D02*
X114345500Y-115763500D01*
X114345500Y-115763500D02*
X113390800Y-116718200D01*
%TO.N,/PA15*%
X117516400Y-118717800D02*
X116648200Y-117849600D01*
X118178700Y-118717800D02*
X117516400Y-118717800D01*
%TO.N,/PB0*%
X112888200Y-111478500D02*
X112539900Y-111478500D01*
X112539900Y-111478500D02*
X111693800Y-110632400D01*
%TO.N,/PB1*%
X108529600Y-112085300D02*
X109977900Y-110637000D01*
X118872000Y-132130800D02*
X118872000Y-130953900D01*
X118872000Y-130953900D02*
X108529600Y-120611500D01*
X110567000Y-110637000D02*
X111128100Y-111198100D01*
X108529600Y-120611500D02*
X108529600Y-112085300D01*
X109977900Y-110637000D02*
X110567000Y-110637000D01*
%TO.N,/PB2*%
X121412000Y-132130800D02*
X121412000Y-130953900D01*
X110035800Y-119577700D02*
X110035800Y-114416400D01*
X110035800Y-114416400D02*
X110562400Y-113889800D01*
X121412000Y-130953900D02*
X110035800Y-119577700D01*
%TO.N,/PB3*%
X118438400Y-118090900D02*
X118020900Y-118090900D01*
X118020900Y-118090900D02*
X117213900Y-117283900D01*
%TO.N,/PB4*%
X122585000Y-121523600D02*
X117779600Y-116718200D01*
X126492000Y-132130800D02*
X126492000Y-124856100D01*
X126492000Y-124856100D02*
X123159500Y-121523600D01*
X123159500Y-121523600D02*
X122585000Y-121523600D01*
%TO.N,/PB5*%
X129032000Y-132130800D02*
X129032000Y-126757000D01*
X118427500Y-116152500D02*
X118345200Y-116152500D01*
X129032000Y-126757000D02*
X118427500Y-116152500D01*
%TO.N,/PB6*%
X125600300Y-120333800D02*
X131572000Y-126305500D01*
X123657900Y-120333800D02*
X125600300Y-120333800D01*
X118910900Y-115586800D02*
X123657900Y-120333800D01*
X131572000Y-126305500D02*
X131572000Y-132130800D01*
%TO.N,/PB7*%
X134112000Y-132130800D02*
X134112000Y-128176800D01*
X134112000Y-128176800D02*
X125817100Y-119881900D01*
X125817100Y-119881900D02*
X124337300Y-119881900D01*
X124337300Y-119881900D02*
X119476600Y-115021200D01*
%TO.N,/PB8*%
X120608000Y-113989500D02*
X120608000Y-113889800D01*
X123871600Y-117253100D02*
X120608000Y-113989500D01*
%TO.N,/PF3*%
X118344000Y-109500000D02*
X118338000Y-109500000D01*
X118338000Y-109500000D02*
X117221000Y-110617000D01*
X106934000Y-110617000D02*
X107070000Y-110753000D01*
X107070000Y-124134000D02*
X107070000Y-124197000D01*
X107070000Y-110753000D02*
X107070000Y-119634000D01*
X118344200Y-109500000D02*
X118344400Y-109500200D01*
X107070000Y-124197000D02*
X102362000Y-128905000D01*
X107070000Y-119634000D02*
X107070000Y-124134000D01*
X118344000Y-109500000D02*
X118344200Y-109500000D01*
X102362000Y-128905000D02*
X102362000Y-132130800D01*
%TO.N,/BOOT0*%
X130668002Y-122214700D02*
X130760500Y-122214700D01*
X135289700Y-132672100D02*
X134654100Y-133307700D01*
X124841000Y-117729000D02*
X124460000Y-118110000D01*
X125984000Y-117729000D02*
X124841000Y-117729000D01*
X113284000Y-130175000D02*
X105791000Y-130175000D01*
X123696827Y-118110000D02*
X120042306Y-114455479D01*
X129699801Y-121246499D02*
X130668002Y-122214700D01*
X115272700Y-133307700D02*
X114300000Y-132335000D01*
X130760500Y-122214700D02*
X135289700Y-126743900D01*
X124460000Y-118110000D02*
X123696827Y-118110000D01*
X114300000Y-131191000D02*
X113284000Y-130175000D01*
X114300000Y-132335000D02*
X114300000Y-131191000D01*
X134654100Y-133307700D02*
X115272700Y-133307700D01*
X104902000Y-131064000D02*
X104902000Y-132130800D01*
X135289700Y-126743900D02*
X135289700Y-132672100D01*
X105791000Y-130175000D02*
X104902000Y-131064000D01*
%TO.N,Net-(R8-Pad1)*%
X125807000Y-98298000D02*
X130306600Y-98298000D01*
X124356900Y-99747700D02*
X125806599Y-98298001D01*
X123840200Y-99747700D02*
X124356900Y-99747700D01*
%TO.N,/PY32_RX*%
X120042000Y-111198000D02*
X120295000Y-110945500D01*
X99771200Y-100762000D02*
X99771200Y-100761800D01*
X120295000Y-110945500D02*
X120294900Y-110945500D01*
X120294900Y-110945500D02*
X120042300Y-111198100D01*
X102484000Y-105415000D02*
X99771200Y-102702000D01*
X99771200Y-102702000D02*
X99771200Y-100762000D01*
X120548000Y-107848000D02*
X119888000Y-107188000D01*
X120295000Y-110945500D02*
X120548000Y-110693000D01*
X120548000Y-110693000D02*
X120548000Y-107848000D01*
%TO.N,/PY32_TX*%
X119982000Y-108425000D02*
X119634000Y-108077000D01*
X119477000Y-110632000D02*
X119476600Y-110632400D01*
X119492000Y-110632000D02*
X119982000Y-110142000D01*
X107061000Y-108077000D02*
X107061000Y-107452000D01*
X119982000Y-110142000D02*
X119982000Y-108425000D01*
X105024000Y-105415000D02*
X101854000Y-102245000D01*
X107061000Y-107452000D02*
X105024000Y-105415000D01*
X119477000Y-110632000D02*
X119492000Y-110632000D01*
X101854000Y-102245000D02*
X101854000Y-101473000D01*
%TO.N,/PY32_RXD*%
X93726000Y-114486000D02*
X92974000Y-115238000D01*
X99747700Y-107823000D02*
X99879700Y-107955000D01*
X92974000Y-120660000D02*
X93599000Y-121285000D01*
X93726000Y-109855000D02*
X93726000Y-114486000D01*
X92974000Y-115238000D02*
X92974000Y-120660000D01*
X99879700Y-107955000D02*
X102484000Y-107955000D01*
%TO.N,/PY32_TXD*%
X99455000Y-106590000D02*
X98806000Y-107239000D01*
X99794700Y-105714800D02*
X99794700Y-105715000D01*
X100670000Y-106590000D02*
X103659000Y-106590000D01*
X99794700Y-105715000D02*
X100670000Y-106590000D01*
X98806000Y-107239000D02*
X98806000Y-108465000D01*
X98806000Y-108465000D02*
X96273400Y-110998000D01*
X100670000Y-106590000D02*
X99455000Y-106590000D01*
X94244000Y-120660000D02*
X94869000Y-121285000D01*
X94244000Y-112288000D02*
X94244000Y-120660000D01*
X103659000Y-106590000D02*
X105024000Y-107955000D01*
X96273400Y-110998000D02*
X95534200Y-110998000D01*
X95534200Y-110998000D02*
X94244000Y-112288000D01*
%TO.N,/PA14{slash}SWDCLK*%
X114522200Y-117849600D02*
X119275000Y-122602400D01*
%TD*%
%TA.AperFunction,Conductor*%
%TO.N,GND*%
G36*
X81709503Y-125383820D02*
G01*
X81716011Y-125389882D01*
X81719387Y-125393260D01*
X81719389Y-125393263D01*
X81736609Y-125410494D01*
X81762876Y-125436779D01*
X81766064Y-125440220D01*
X81806130Y-125486891D01*
X81806132Y-125486892D01*
X81806134Y-125486895D01*
X81806138Y-125486898D01*
X81833155Y-125507812D01*
X81839064Y-125513018D01*
X82352162Y-126026451D01*
X82543945Y-126218359D01*
X82605441Y-126283053D01*
X82655657Y-126318004D01*
X82659423Y-126320846D01*
X82706817Y-126359516D01*
X82737412Y-126375510D01*
X82744112Y-126379571D01*
X82756117Y-126387926D01*
X82772451Y-126399295D01*
X82828691Y-126423429D01*
X82832920Y-126425439D01*
X82887144Y-126453787D01*
X82920334Y-126463295D01*
X82927714Y-126465924D01*
X82959442Y-126479540D01*
X82959445Y-126479540D01*
X82959446Y-126479541D01*
X82966386Y-126480967D01*
X83019383Y-126491857D01*
X83023940Y-126492977D01*
X83082757Y-126509828D01*
X83117182Y-126512460D01*
X83124939Y-126513550D01*
X83158754Y-126520499D01*
X83158756Y-126520500D01*
X83158759Y-126520500D01*
X83219927Y-126520500D01*
X83224657Y-126520681D01*
X83242095Y-126522014D01*
X83285646Y-126525345D01*
X83304132Y-126522996D01*
X83319897Y-126520995D01*
X83327717Y-126520500D01*
X85786784Y-126520500D01*
X85853823Y-126540185D01*
X85874456Y-126556810D01*
X86166234Y-126848528D01*
X86199726Y-126909847D01*
X86194748Y-126979540D01*
X86152883Y-127035477D01*
X86143659Y-127041756D01*
X86088659Y-127075680D01*
X86088655Y-127075683D01*
X85964684Y-127199654D01*
X85872643Y-127348875D01*
X85872641Y-127348880D01*
X85817494Y-127515302D01*
X85817493Y-127515309D01*
X85807000Y-127618013D01*
X85807000Y-127893000D01*
X86933000Y-127893000D01*
X87000039Y-127912685D01*
X87045794Y-127965489D01*
X87057000Y-128017000D01*
X87057000Y-129367999D01*
X87106972Y-129367999D01*
X87106986Y-129367998D01*
X87209697Y-129357505D01*
X87376119Y-129302358D01*
X87376124Y-129302356D01*
X87525345Y-129210315D01*
X87649318Y-129086342D01*
X87651165Y-129083348D01*
X87652969Y-129081724D01*
X87653798Y-129080677D01*
X87653976Y-129080818D01*
X87703110Y-129036621D01*
X87772073Y-129025396D01*
X87836156Y-129053236D01*
X87862242Y-129083339D01*
X87864288Y-129086656D01*
X87988344Y-129210712D01*
X88137666Y-129302814D01*
X88304203Y-129357999D01*
X88406991Y-129368500D01*
X88466188Y-129368499D01*
X88533227Y-129388182D01*
X88553872Y-129404820D01*
X91405709Y-132256800D01*
X91978342Y-132829462D01*
X92039741Y-132894053D01*
X92039744Y-132894055D01*
X92039747Y-132894058D01*
X92090074Y-132929085D01*
X92093839Y-132931924D01*
X92141368Y-132970681D01*
X92141372Y-132970684D01*
X92171835Y-132986597D01*
X92178544Y-132990662D01*
X92206751Y-133010295D01*
X92241506Y-133025209D01*
X92263106Y-133034479D01*
X92267364Y-133036502D01*
X92321725Y-133064899D01*
X92321727Y-133064900D01*
X92354769Y-133074354D01*
X92362161Y-133076987D01*
X92393742Y-133090540D01*
X92453815Y-133102885D01*
X92458387Y-133104007D01*
X92517357Y-133120882D01*
X92551637Y-133123492D01*
X92559386Y-133124579D01*
X92593059Y-133131500D01*
X92654390Y-133131500D01*
X92659100Y-133131679D01*
X92662788Y-133131959D01*
X92720251Y-133136337D01*
X92754335Y-133131997D01*
X92762175Y-133131500D01*
X93327932Y-133131500D01*
X93394971Y-133151185D01*
X93440726Y-133203989D01*
X93444113Y-133212166D01*
X93448200Y-133223123D01*
X93448206Y-133223135D01*
X93534452Y-133338344D01*
X93534455Y-133338347D01*
X93649664Y-133424593D01*
X93649671Y-133424597D01*
X93784517Y-133474891D01*
X93784516Y-133474891D01*
X93791444Y-133475635D01*
X93844127Y-133481300D01*
X94626216Y-133481299D01*
X94693255Y-133500983D01*
X94713897Y-133517618D01*
X95481898Y-134285619D01*
X95515383Y-134346942D01*
X95510399Y-134416634D01*
X95468527Y-134472567D01*
X95403063Y-134496984D01*
X95394217Y-134497300D01*
X83106833Y-134497300D01*
X83039794Y-134477615D01*
X83019152Y-134460981D01*
X81540619Y-132982448D01*
X81507134Y-132921125D01*
X81504300Y-132894767D01*
X81504300Y-131297800D01*
X83348141Y-131297800D01*
X83368736Y-131533203D01*
X83368738Y-131533213D01*
X83429894Y-131761455D01*
X83429896Y-131761459D01*
X83429897Y-131761463D01*
X83479830Y-131868546D01*
X83529764Y-131975628D01*
X83529765Y-131975630D01*
X83665305Y-132169202D01*
X83832397Y-132336294D01*
X84025969Y-132471834D01*
X84025971Y-132471835D01*
X84240137Y-132571703D01*
X84468392Y-132632863D01*
X84644834Y-132648300D01*
X84762766Y-132648300D01*
X84939208Y-132632863D01*
X85167463Y-132571703D01*
X85381629Y-132471835D01*
X85575201Y-132336295D01*
X85742295Y-132169201D01*
X85877835Y-131975630D01*
X85977703Y-131761463D01*
X86038863Y-131533208D01*
X86059459Y-131297800D01*
X86038863Y-131062392D01*
X85983802Y-130856898D01*
X85977705Y-130834144D01*
X85977704Y-130834143D01*
X85977703Y-130834137D01*
X85877835Y-130619971D01*
X85877834Y-130619969D01*
X85742294Y-130426397D01*
X85575202Y-130259305D01*
X85381630Y-130123765D01*
X85381628Y-130123764D01*
X85274546Y-130073830D01*
X85167463Y-130023897D01*
X85167459Y-130023896D01*
X85167455Y-130023894D01*
X84939213Y-129962738D01*
X84939203Y-129962736D01*
X84762766Y-129947300D01*
X84644834Y-129947300D01*
X84468396Y-129962736D01*
X84468386Y-129962738D01*
X84240144Y-130023894D01*
X84240135Y-130023898D01*
X84025971Y-130123764D01*
X84025969Y-130123765D01*
X83832397Y-130259305D01*
X83665306Y-130426397D01*
X83665301Y-130426404D01*
X83529767Y-130619965D01*
X83529765Y-130619969D01*
X83429898Y-130834135D01*
X83429894Y-130834144D01*
X83368738Y-131062386D01*
X83368736Y-131062396D01*
X83348141Y-131297799D01*
X83348141Y-131297800D01*
X81504300Y-131297800D01*
X81504300Y-128393000D01*
X85807001Y-128393000D01*
X85807001Y-128667986D01*
X85817494Y-128770697D01*
X85872641Y-128937119D01*
X85872643Y-128937124D01*
X85964684Y-129086345D01*
X86088654Y-129210315D01*
X86237875Y-129302356D01*
X86237880Y-129302358D01*
X86404302Y-129357505D01*
X86404309Y-129357506D01*
X86507019Y-129367999D01*
X86556999Y-129367998D01*
X86557000Y-129367998D01*
X86557000Y-128393000D01*
X85807001Y-128393000D01*
X81504300Y-128393000D01*
X81504300Y-125477533D01*
X81523985Y-125410494D01*
X81576789Y-125364739D01*
X81645947Y-125354795D01*
X81709503Y-125383820D01*
G37*
%TD.AperFunction*%
%TA.AperFunction,Conductor*%
G36*
X140734206Y-89143985D02*
G01*
X140754848Y-89160619D01*
X142233381Y-90639152D01*
X142266866Y-90700475D01*
X142269700Y-90726833D01*
X142269700Y-132894767D01*
X142250015Y-132961806D01*
X142233381Y-132982448D01*
X140754848Y-134460981D01*
X140693525Y-134494466D01*
X140667167Y-134497300D01*
X111869782Y-134497300D01*
X111802743Y-134477615D01*
X111756988Y-134424811D01*
X111747044Y-134355653D01*
X111776069Y-134292097D01*
X111782101Y-134285619D01*
X112168403Y-133899317D01*
X112555031Y-133512688D01*
X112616352Y-133479205D01*
X112631896Y-133476844D01*
X112757408Y-133465863D01*
X112985663Y-133404703D01*
X113199830Y-133304835D01*
X113393401Y-133169295D01*
X113560495Y-133002201D01*
X113690555Y-132816456D01*
X113745131Y-132772832D01*
X113814629Y-132765638D01*
X113871166Y-132792034D01*
X113873475Y-132793944D01*
X113876313Y-132796291D01*
X113880631Y-132800221D01*
X114771894Y-133691484D01*
X114781719Y-133703748D01*
X114781940Y-133703566D01*
X114786910Y-133709573D01*
X114786913Y-133709576D01*
X114786914Y-133709577D01*
X114837351Y-133756941D01*
X114858230Y-133777820D01*
X114863704Y-133782066D01*
X114868142Y-133785856D01*
X114902118Y-133817762D01*
X114902122Y-133817764D01*
X114919673Y-133827413D01*
X114935931Y-133838092D01*
X114951764Y-133850374D01*
X114973715Y-133859872D01*
X114994537Y-133868883D01*
X114999781Y-133871452D01*
X115040608Y-133893897D01*
X115060012Y-133898879D01*
X115078410Y-133905178D01*
X115096805Y-133913138D01*
X115142829Y-133920426D01*
X115148532Y-133921607D01*
X115193681Y-133933200D01*
X115213716Y-133933200D01*
X115233113Y-133934726D01*
X115252896Y-133937860D01*
X115299283Y-133933475D01*
X115305122Y-133933200D01*
X134571357Y-133933200D01*
X134586977Y-133934924D01*
X134587004Y-133934639D01*
X134594760Y-133935371D01*
X134594767Y-133935373D01*
X134663914Y-133933200D01*
X134693450Y-133933200D01*
X134700328Y-133932330D01*
X134706141Y-133931872D01*
X134752727Y-133930409D01*
X134771969Y-133924817D01*
X134791012Y-133920874D01*
X134810892Y-133918364D01*
X134854222Y-133901207D01*
X134859746Y-133899317D01*
X134863496Y-133898227D01*
X134904490Y-133886318D01*
X134921729Y-133876122D01*
X134939203Y-133867562D01*
X134957827Y-133860188D01*
X134957827Y-133860187D01*
X134957832Y-133860186D01*
X134995549Y-133832782D01*
X135000405Y-133829592D01*
X135040520Y-133805870D01*
X135054689Y-133791699D01*
X135069479Y-133779068D01*
X135085687Y-133767294D01*
X135115399Y-133731376D01*
X135119312Y-133727076D01*
X135646150Y-133200239D01*
X135707471Y-133166756D01*
X135777163Y-133171740D01*
X135804948Y-133186344D01*
X135974170Y-133304835D01*
X136188337Y-133404703D01*
X136416592Y-133465863D01*
X136593034Y-133481300D01*
X136651999Y-133486459D01*
X136652000Y-133486459D01*
X136652001Y-133486459D01*
X136710966Y-133481300D01*
X136887408Y-133465863D01*
X137115663Y-133404703D01*
X137329830Y-133304835D01*
X137523401Y-133169295D01*
X137690495Y-133002201D01*
X137820730Y-132816205D01*
X137875307Y-132772581D01*
X137944805Y-132765387D01*
X138007160Y-132796910D01*
X138023879Y-132816205D01*
X138153890Y-133001878D01*
X138320917Y-133168905D01*
X138514421Y-133304400D01*
X138728507Y-133404229D01*
X138728516Y-133404233D01*
X138942000Y-133461434D01*
X138942000Y-132566301D01*
X139049685Y-132615480D01*
X139156237Y-132630800D01*
X139227763Y-132630800D01*
X139334315Y-132615480D01*
X139442000Y-132566301D01*
X139442000Y-133461433D01*
X139655483Y-133404233D01*
X139655492Y-133404229D01*
X139869578Y-133304400D01*
X140063082Y-133168905D01*
X140230105Y-133001882D01*
X140365600Y-132808378D01*
X140465429Y-132594292D01*
X140465432Y-132594286D01*
X140522636Y-132380800D01*
X139625686Y-132380800D01*
X139651493Y-132340644D01*
X139692000Y-132202689D01*
X139692000Y-132058911D01*
X139651493Y-131920956D01*
X139625686Y-131880800D01*
X140522636Y-131880800D01*
X140522635Y-131880799D01*
X140465432Y-131667313D01*
X140465429Y-131667307D01*
X140365600Y-131453222D01*
X140365599Y-131453220D01*
X140230113Y-131259726D01*
X140230108Y-131259720D01*
X140063082Y-131092694D01*
X139869578Y-130957199D01*
X139655492Y-130857370D01*
X139655486Y-130857367D01*
X139442000Y-130800164D01*
X139442000Y-131695298D01*
X139334315Y-131646120D01*
X139227763Y-131630800D01*
X139156237Y-131630800D01*
X139049685Y-131646120D01*
X138942000Y-131695298D01*
X138942000Y-130800164D01*
X138941999Y-130800164D01*
X138728513Y-130857367D01*
X138728507Y-130857370D01*
X138514422Y-130957199D01*
X138514420Y-130957200D01*
X138320926Y-131092686D01*
X138320920Y-131092691D01*
X138153891Y-131259720D01*
X138153890Y-131259722D01*
X138023880Y-131445395D01*
X137969303Y-131489019D01*
X137899804Y-131496212D01*
X137837450Y-131464690D01*
X137820730Y-131445394D01*
X137690494Y-131259397D01*
X137523402Y-131092306D01*
X137523395Y-131092301D01*
X137329834Y-130956767D01*
X137329830Y-130956765D01*
X137309247Y-130947167D01*
X137115663Y-130856897D01*
X137115659Y-130856896D01*
X137115655Y-130856894D01*
X136887413Y-130795738D01*
X136887403Y-130795736D01*
X136652001Y-130775141D01*
X136651999Y-130775141D01*
X136416596Y-130795736D01*
X136416586Y-130795738D01*
X136188344Y-130856894D01*
X136188335Y-130856898D01*
X136091605Y-130902004D01*
X136022527Y-130912496D01*
X135958743Y-130883976D01*
X135920504Y-130825500D01*
X135915200Y-130789622D01*
X135915200Y-126826638D01*
X135916924Y-126811024D01*
X135916638Y-126810997D01*
X135917372Y-126803234D01*
X135915200Y-126734103D01*
X135915200Y-126704551D01*
X135915200Y-126704550D01*
X135914329Y-126697659D01*
X135913872Y-126691845D01*
X135912409Y-126645272D01*
X135906822Y-126626044D01*
X135902874Y-126606984D01*
X135900364Y-126587108D01*
X135900363Y-126587106D01*
X135900363Y-126587104D01*
X135883212Y-126543787D01*
X135881319Y-126538258D01*
X135868318Y-126493509D01*
X135868316Y-126493506D01*
X135858123Y-126476271D01*
X135849561Y-126458794D01*
X135842187Y-126440170D01*
X135842186Y-126440168D01*
X135814779Y-126402445D01*
X135811588Y-126397586D01*
X135787872Y-126357483D01*
X135787865Y-126357474D01*
X135773706Y-126343315D01*
X135761068Y-126328519D01*
X135749294Y-126312313D01*
X135726972Y-126293847D01*
X135713388Y-126282609D01*
X135709076Y-126278686D01*
X135648190Y-126217800D01*
X137714541Y-126217800D01*
X137735136Y-126453203D01*
X137735138Y-126453213D01*
X137796294Y-126681455D01*
X137796296Y-126681459D01*
X137796297Y-126681463D01*
X137826938Y-126747172D01*
X137896164Y-126895628D01*
X137896165Y-126895630D01*
X138031705Y-127089202D01*
X138198797Y-127256294D01*
X138392369Y-127391834D01*
X138392371Y-127391835D01*
X138606537Y-127491703D01*
X138834792Y-127552863D01*
X139011234Y-127568300D01*
X139129166Y-127568300D01*
X139305608Y-127552863D01*
X139533863Y-127491703D01*
X139748029Y-127391835D01*
X139941601Y-127256295D01*
X140108695Y-127089201D01*
X140244235Y-126895630D01*
X140344103Y-126681463D01*
X140405263Y-126453208D01*
X140425859Y-126217800D01*
X140405263Y-125982392D01*
X140344103Y-125754137D01*
X140244235Y-125539971D01*
X140244234Y-125539969D01*
X140108694Y-125346397D01*
X139941602Y-125179305D01*
X139748030Y-125043765D01*
X139748028Y-125043764D01*
X139625969Y-124986847D01*
X139533863Y-124943897D01*
X139533859Y-124943896D01*
X139533855Y-124943894D01*
X139305613Y-124882738D01*
X139305603Y-124882736D01*
X139129166Y-124867300D01*
X139011234Y-124867300D01*
X138834796Y-124882736D01*
X138834786Y-124882738D01*
X138606544Y-124943894D01*
X138606535Y-124943898D01*
X138392371Y-125043764D01*
X138392369Y-125043765D01*
X138198797Y-125179305D01*
X138031706Y-125346397D01*
X138031701Y-125346404D01*
X137896167Y-125539965D01*
X137896165Y-125539969D01*
X137796298Y-125754135D01*
X137796294Y-125754144D01*
X137735138Y-125982386D01*
X137735136Y-125982396D01*
X137714541Y-126217799D01*
X137714541Y-126217800D01*
X135648190Y-126217800D01*
X133991571Y-124561180D01*
X133958086Y-124499858D01*
X133963070Y-124430166D01*
X134004942Y-124374233D01*
X134070406Y-124349816D01*
X134079252Y-124349500D01*
X134454696Y-124349500D01*
X134473131Y-124348049D01*
X134491569Y-124346598D01*
X134491571Y-124346597D01*
X134491573Y-124346597D01*
X134533191Y-124334505D01*
X134649398Y-124300744D01*
X134790865Y-124217081D01*
X134907081Y-124100865D01*
X134990744Y-123959398D01*
X135036598Y-123801569D01*
X135039500Y-123764694D01*
X135039500Y-123754745D01*
X135059185Y-123687706D01*
X135065445Y-123678843D01*
X135092444Y-123643963D01*
X135092443Y-123643963D01*
X135092448Y-123643958D01*
X135182060Y-123461271D01*
X135233063Y-123264285D01*
X135243369Y-123061064D01*
X135212556Y-122859929D01*
X135141886Y-122669113D01*
X135138756Y-122664092D01*
X135120000Y-122596788D01*
X135140608Y-122530027D01*
X135194039Y-122485005D01*
X135243988Y-122474500D01*
X135404696Y-122474500D01*
X135423131Y-122473049D01*
X135441569Y-122471598D01*
X135441571Y-122471597D01*
X135441573Y-122471597D01*
X135483191Y-122459505D01*
X135599398Y-122425744D01*
X135740865Y-122342081D01*
X135857081Y-122225865D01*
X135940744Y-122084398D01*
X135986598Y-121926569D01*
X135989261Y-121892720D01*
X136014143Y-121827434D01*
X136025207Y-121814758D01*
X138111514Y-119729205D01*
X138316291Y-119524502D01*
X138377620Y-119491028D01*
X138403956Y-119488199D01*
X138860471Y-119488199D01*
X138860472Y-119488199D01*
X138920083Y-119481791D01*
X139054931Y-119431496D01*
X139170146Y-119345246D01*
X139256396Y-119230031D01*
X139306691Y-119095183D01*
X139313100Y-119035573D01*
X139313099Y-117239828D01*
X139307899Y-117191457D01*
X139306691Y-117180216D01*
X139256397Y-117045371D01*
X139256393Y-117045364D01*
X139170147Y-116930155D01*
X139170144Y-116930152D01*
X139054935Y-116843906D01*
X139054928Y-116843902D01*
X138923001Y-116794697D01*
X138867067Y-116752826D01*
X138842650Y-116687362D01*
X138857502Y-116619089D01*
X138878653Y-116590833D01*
X139000708Y-116468778D01*
X139136200Y-116275278D01*
X139236029Y-116061192D01*
X139236032Y-116061186D01*
X139293236Y-115847700D01*
X138396286Y-115847700D01*
X138422093Y-115807544D01*
X138462600Y-115669589D01*
X138462600Y-115525811D01*
X138422093Y-115387856D01*
X138396286Y-115347700D01*
X139293236Y-115347700D01*
X139293235Y-115347699D01*
X139236032Y-115134213D01*
X139236029Y-115134207D01*
X139136200Y-114920122D01*
X139136199Y-114920120D01*
X139000713Y-114726626D01*
X139000708Y-114726620D01*
X138833682Y-114559594D01*
X138647568Y-114429275D01*
X138603944Y-114374698D01*
X138596751Y-114305199D01*
X138628273Y-114242845D01*
X138647568Y-114226125D01*
X138833682Y-114095805D01*
X139000705Y-113928782D01*
X139136200Y-113735278D01*
X139236029Y-113521192D01*
X139236032Y-113521186D01*
X139293236Y-113307700D01*
X138396286Y-113307700D01*
X138422093Y-113267544D01*
X138462600Y-113129589D01*
X138462600Y-112985811D01*
X138422093Y-112847856D01*
X138396286Y-112807700D01*
X139293236Y-112807700D01*
X139293235Y-112807699D01*
X139236032Y-112594213D01*
X139236029Y-112594207D01*
X139136200Y-112380122D01*
X139136199Y-112380120D01*
X139000713Y-112186626D01*
X139000708Y-112186620D01*
X138833678Y-112019590D01*
X138648005Y-111889579D01*
X138604380Y-111835002D01*
X138597188Y-111765504D01*
X138628710Y-111703149D01*
X138648006Y-111686430D01*
X138656122Y-111680747D01*
X138834001Y-111556195D01*
X139001095Y-111389101D01*
X139136635Y-111195530D01*
X139236503Y-110981363D01*
X139297663Y-110753108D01*
X139318259Y-110517700D01*
X139297663Y-110282292D01*
X139236503Y-110054037D01*
X139136635Y-109839871D01*
X139129675Y-109829930D01*
X139001094Y-109646297D01*
X138834002Y-109479206D01*
X138834001Y-109479205D01*
X138648005Y-109348969D01*
X138604381Y-109294392D01*
X138597188Y-109224893D01*
X138628710Y-109162539D01*
X138648005Y-109145819D01*
X138833682Y-109015805D01*
X139000705Y-108848782D01*
X139136200Y-108655278D01*
X139236029Y-108441192D01*
X139236032Y-108441186D01*
X139293236Y-108227700D01*
X138396286Y-108227700D01*
X138422093Y-108187544D01*
X138462600Y-108049589D01*
X138462600Y-107905811D01*
X138422093Y-107767856D01*
X138396286Y-107727700D01*
X139293236Y-107727700D01*
X139293235Y-107727699D01*
X139236032Y-107514213D01*
X139236029Y-107514207D01*
X139136200Y-107300122D01*
X139136199Y-107300120D01*
X139000713Y-107106626D01*
X139000708Y-107106620D01*
X138833682Y-106939594D01*
X138640178Y-106804099D01*
X138426092Y-106704270D01*
X138426086Y-106704267D01*
X138212600Y-106647064D01*
X138212600Y-107542198D01*
X138104915Y-107493020D01*
X137998363Y-107477700D01*
X137926837Y-107477700D01*
X137820285Y-107493020D01*
X137712600Y-107542198D01*
X137712600Y-106647064D01*
X137712599Y-106647063D01*
X137569593Y-106685382D01*
X137499744Y-106683719D01*
X137441881Y-106644556D01*
X137414377Y-106580328D01*
X137413500Y-106565607D01*
X137413500Y-105950020D01*
X137433185Y-105882981D01*
X137466377Y-105848445D01*
X137473849Y-105843213D01*
X137550277Y-105789698D01*
X137704998Y-105634977D01*
X137830502Y-105455739D01*
X137922975Y-105257430D01*
X137979607Y-105046077D01*
X137998063Y-104835119D01*
X137998677Y-104828102D01*
X137998677Y-104828097D01*
X137993182Y-104765295D01*
X137979607Y-104610123D01*
X137928302Y-104418650D01*
X137922977Y-104398777D01*
X137922976Y-104398776D01*
X137922975Y-104398770D01*
X137830502Y-104200462D01*
X137830500Y-104200459D01*
X137830499Y-104200457D01*
X137704999Y-104021224D01*
X137662450Y-103978675D01*
X137550277Y-103866502D01*
X137371039Y-103740998D01*
X137371040Y-103740998D01*
X137371038Y-103740997D01*
X137271884Y-103694761D01*
X137172730Y-103648525D01*
X137172726Y-103648524D01*
X137172722Y-103648522D01*
X136961377Y-103591893D01*
X136743402Y-103572823D01*
X136743398Y-103572823D01*
X136598081Y-103585536D01*
X136525423Y-103591893D01*
X136525420Y-103591893D01*
X136314077Y-103648522D01*
X136314068Y-103648526D01*
X136115761Y-103740998D01*
X136115757Y-103741000D01*
X135936521Y-103866502D01*
X135781802Y-104021221D01*
X135656300Y-104200457D01*
X135656298Y-104200461D01*
X135563826Y-104398768D01*
X135563822Y-104398777D01*
X135507193Y-104610120D01*
X135507193Y-104610124D01*
X135488123Y-104828097D01*
X135488123Y-104828102D01*
X135507193Y-105046075D01*
X135507193Y-105046079D01*
X135563822Y-105257422D01*
X135563824Y-105257426D01*
X135563825Y-105257430D01*
X135569901Y-105270459D01*
X135656297Y-105455738D01*
X135656298Y-105455739D01*
X135781802Y-105634977D01*
X135936523Y-105789698D01*
X135959620Y-105805871D01*
X136003247Y-105860446D01*
X136012500Y-105907447D01*
X136012500Y-106576021D01*
X135992815Y-106643060D01*
X135940011Y-106688815D01*
X135870853Y-106698759D01*
X135856408Y-106695796D01*
X135658016Y-106642639D01*
X135658012Y-106642638D01*
X135658008Y-106642637D01*
X135658006Y-106642636D01*
X135658003Y-106642636D01*
X135422601Y-106622041D01*
X135422599Y-106622041D01*
X135187190Y-106642637D01*
X135187189Y-106642637D01*
X135086803Y-106669534D01*
X135016954Y-106667870D01*
X134967031Y-106637440D01*
X132741819Y-104412228D01*
X132708334Y-104350905D01*
X132705500Y-104324547D01*
X132705500Y-103648522D01*
X132705500Y-102952732D01*
X132707225Y-102937124D01*
X132706939Y-102937097D01*
X132707671Y-102929339D01*
X132707673Y-102929333D01*
X132705499Y-102860185D01*
X132705500Y-102830650D01*
X132705023Y-102826878D01*
X132704631Y-102823770D01*
X132704172Y-102817943D01*
X132702709Y-102771372D01*
X132697122Y-102752144D01*
X132693174Y-102733084D01*
X132690663Y-102713204D01*
X132673512Y-102669887D01*
X132671619Y-102664358D01*
X132658618Y-102619609D01*
X132658616Y-102619606D01*
X132648423Y-102602371D01*
X132639861Y-102584894D01*
X132632487Y-102566270D01*
X132632486Y-102566268D01*
X132605079Y-102528545D01*
X132601888Y-102523686D01*
X132600318Y-102521032D01*
X132578170Y-102483580D01*
X132578168Y-102483578D01*
X132578165Y-102483574D01*
X132564006Y-102469415D01*
X132551368Y-102454619D01*
X132539594Y-102438413D01*
X132537910Y-102437020D01*
X132503688Y-102408709D01*
X132499376Y-102404786D01*
X131273474Y-101178883D01*
X131239989Y-101117560D01*
X131244973Y-101047868D01*
X131245694Y-101045933D01*
X131245697Y-101045930D01*
X131295992Y-100911082D01*
X131302401Y-100851472D01*
X131302400Y-100044527D01*
X131295992Y-99984916D01*
X131286880Y-99960486D01*
X131245698Y-99850070D01*
X131245694Y-99850063D01*
X131159448Y-99734854D01*
X131159445Y-99734851D01*
X131044236Y-99648605D01*
X131044229Y-99648601D01*
X130909383Y-99598307D01*
X130909384Y-99598307D01*
X130849784Y-99591900D01*
X130849782Y-99591899D01*
X130849774Y-99591899D01*
X130849765Y-99591899D01*
X129763430Y-99591899D01*
X129763424Y-99591900D01*
X129703817Y-99598307D01*
X129568972Y-99648601D01*
X129568965Y-99648605D01*
X129453756Y-99734851D01*
X129425638Y-99772412D01*
X129369704Y-99814283D01*
X129326372Y-99822100D01*
X126786828Y-99822100D01*
X126719789Y-99802415D01*
X126687562Y-99772412D01*
X126673027Y-99752996D01*
X126659445Y-99734853D01*
X126659443Y-99734852D01*
X126659443Y-99734851D01*
X126544234Y-99648605D01*
X126544227Y-99648601D01*
X126409381Y-99598307D01*
X126409382Y-99598307D01*
X126349782Y-99591900D01*
X126349780Y-99591899D01*
X126349772Y-99591899D01*
X126349764Y-99591899D01*
X125696652Y-99591899D01*
X125629613Y-99572214D01*
X125583858Y-99519410D01*
X125573914Y-99450252D01*
X125602939Y-99386696D01*
X125608971Y-99380218D01*
X125616200Y-99372990D01*
X125798770Y-99190419D01*
X125860094Y-99156934D01*
X125886452Y-99154100D01*
X126349770Y-99154100D01*
X126349771Y-99154100D01*
X126409382Y-99147692D01*
X126544230Y-99097397D01*
X126659445Y-99011147D01*
X126687859Y-98973190D01*
X126743793Y-98931318D01*
X126787127Y-98923500D01*
X129326073Y-98923500D01*
X129393112Y-98943185D01*
X129425340Y-98973190D01*
X129453750Y-99011142D01*
X129453753Y-99011145D01*
X129453755Y-99011147D01*
X129453758Y-99011149D01*
X129568965Y-99097394D01*
X129568972Y-99097398D01*
X129703818Y-99147692D01*
X129703817Y-99147692D01*
X129710745Y-99148436D01*
X129763428Y-99154101D01*
X130849773Y-99154100D01*
X130909384Y-99147692D01*
X131044232Y-99097397D01*
X131159447Y-99011147D01*
X131245697Y-98895932D01*
X131295992Y-98761084D01*
X131302401Y-98701474D01*
X131302400Y-97894529D01*
X131295992Y-97834918D01*
X131294984Y-97832216D01*
X131245698Y-97700072D01*
X131245694Y-97700065D01*
X131159448Y-97584856D01*
X131159445Y-97584853D01*
X131044236Y-97498607D01*
X131044229Y-97498603D01*
X130909383Y-97448309D01*
X130909384Y-97448309D01*
X130849784Y-97441902D01*
X130849782Y-97441901D01*
X130849774Y-97441901D01*
X130849765Y-97441901D01*
X129763430Y-97441901D01*
X129763424Y-97441902D01*
X129703817Y-97448309D01*
X129568972Y-97498603D01*
X129568965Y-97498607D01*
X129453757Y-97584852D01*
X129453754Y-97584855D01*
X129453755Y-97584855D01*
X129425340Y-97622812D01*
X129369408Y-97664682D01*
X129326075Y-97672500D01*
X126787125Y-97672500D01*
X126720086Y-97652815D01*
X126687860Y-97622813D01*
X126659445Y-97584855D01*
X126659443Y-97584853D01*
X126659442Y-97584852D01*
X126544234Y-97498607D01*
X126544227Y-97498603D01*
X126409381Y-97448309D01*
X126409382Y-97448309D01*
X126349782Y-97441902D01*
X126349780Y-97441901D01*
X126349772Y-97441901D01*
X126349764Y-97441901D01*
X125441749Y-97441901D01*
X125374710Y-97422216D01*
X125358752Y-97403800D01*
X137714541Y-97403800D01*
X137735136Y-97639203D01*
X137735138Y-97639213D01*
X137796294Y-97867455D01*
X137796296Y-97867459D01*
X137796297Y-97867463D01*
X137835571Y-97951686D01*
X137896164Y-98081628D01*
X137896165Y-98081630D01*
X138031705Y-98275202D01*
X138198797Y-98442294D01*
X138392369Y-98577834D01*
X138392371Y-98577835D01*
X138606537Y-98677703D01*
X138606543Y-98677704D01*
X138606544Y-98677705D01*
X138661485Y-98692426D01*
X138834792Y-98738863D01*
X139011234Y-98754300D01*
X139129166Y-98754300D01*
X139305608Y-98738863D01*
X139533863Y-98677703D01*
X139748029Y-98577835D01*
X139941601Y-98442295D01*
X140108695Y-98275201D01*
X140244235Y-98081630D01*
X140344103Y-97867463D01*
X140405263Y-97639208D01*
X140425859Y-97403800D01*
X140405263Y-97168392D01*
X140344103Y-96940137D01*
X140244235Y-96725971D01*
X140244234Y-96725969D01*
X140108694Y-96532397D01*
X139941602Y-96365305D01*
X139748030Y-96229765D01*
X139748028Y-96229764D01*
X139593677Y-96157789D01*
X139533863Y-96129897D01*
X139533859Y-96129896D01*
X139533855Y-96129894D01*
X139305613Y-96068738D01*
X139305603Y-96068736D01*
X139129166Y-96053300D01*
X139011234Y-96053300D01*
X138834796Y-96068736D01*
X138834786Y-96068738D01*
X138606544Y-96129894D01*
X138606535Y-96129898D01*
X138392371Y-96229764D01*
X138392369Y-96229765D01*
X138198797Y-96365305D01*
X138031706Y-96532397D01*
X138031701Y-96532404D01*
X137896167Y-96725965D01*
X137896165Y-96725969D01*
X137796298Y-96940135D01*
X137796294Y-96940144D01*
X137735138Y-97168386D01*
X137735136Y-97168396D01*
X137714541Y-97403799D01*
X137714541Y-97403800D01*
X125358752Y-97403800D01*
X125328955Y-97369412D01*
X125319011Y-97300254D01*
X125348036Y-97236698D01*
X125354053Y-97230235D01*
X129415788Y-93168501D01*
X129428042Y-93158686D01*
X129427859Y-93158464D01*
X129433866Y-93153492D01*
X129433877Y-93153486D01*
X129468788Y-93116309D01*
X129481227Y-93103064D01*
X129491671Y-93092618D01*
X129502120Y-93082171D01*
X129506379Y-93076678D01*
X129510152Y-93072261D01*
X129542062Y-93038282D01*
X129551715Y-93020720D01*
X129562389Y-93004470D01*
X129574673Y-92988636D01*
X129593180Y-92945867D01*
X129595749Y-92940624D01*
X129618196Y-92899793D01*
X129618197Y-92899792D01*
X129623177Y-92880391D01*
X129629478Y-92861988D01*
X129637438Y-92843596D01*
X129644730Y-92797549D01*
X129645911Y-92791852D01*
X129647775Y-92784595D01*
X129657500Y-92746719D01*
X129657500Y-92746717D01*
X129659440Y-92739162D01*
X129662020Y-92739824D01*
X129684813Y-92687560D01*
X129708782Y-92665568D01*
X129709826Y-92664836D01*
X129709830Y-92664835D01*
X129903401Y-92529295D01*
X130070495Y-92362201D01*
X130200426Y-92176640D01*
X130255001Y-92133017D01*
X130324499Y-92125823D01*
X130386854Y-92157346D01*
X130403574Y-92176641D01*
X130533505Y-92362201D01*
X130700599Y-92529295D01*
X130797384Y-92597065D01*
X130894165Y-92664832D01*
X130894167Y-92664833D01*
X130894170Y-92664835D01*
X131108337Y-92764703D01*
X131336592Y-92825863D01*
X131524918Y-92842339D01*
X131571999Y-92846459D01*
X131572000Y-92846459D01*
X131572001Y-92846459D01*
X131611234Y-92843026D01*
X131807408Y-92825863D01*
X132035663Y-92764703D01*
X132249830Y-92664835D01*
X132443401Y-92529295D01*
X132610495Y-92362201D01*
X132740426Y-92176641D01*
X132795002Y-92133017D01*
X132864500Y-92125823D01*
X132926855Y-92157346D01*
X132943575Y-92176642D01*
X133073500Y-92362195D01*
X133073505Y-92362201D01*
X133240599Y-92529295D01*
X133337384Y-92597065D01*
X133434165Y-92664832D01*
X133434167Y-92664833D01*
X133434170Y-92664835D01*
X133648337Y-92764703D01*
X133876592Y-92825863D01*
X134064918Y-92842339D01*
X134111999Y-92846459D01*
X134112000Y-92846459D01*
X134112001Y-92846459D01*
X134151234Y-92843026D01*
X134347408Y-92825863D01*
X134575663Y-92764703D01*
X134789830Y-92664835D01*
X134983401Y-92529295D01*
X135150495Y-92362201D01*
X135280426Y-92176641D01*
X135335002Y-92133017D01*
X135404500Y-92125823D01*
X135466855Y-92157346D01*
X135483575Y-92176642D01*
X135613500Y-92362195D01*
X135613505Y-92362201D01*
X135780599Y-92529295D01*
X135877384Y-92597065D01*
X135974165Y-92664832D01*
X135974167Y-92664833D01*
X135974170Y-92664835D01*
X136188337Y-92764703D01*
X136416592Y-92825863D01*
X136604918Y-92842339D01*
X136651999Y-92846459D01*
X136652000Y-92846459D01*
X136652001Y-92846459D01*
X136691234Y-92843026D01*
X136887408Y-92825863D01*
X137115663Y-92764703D01*
X137329830Y-92664835D01*
X137523401Y-92529295D01*
X137690495Y-92362201D01*
X137820426Y-92176641D01*
X137875002Y-92133017D01*
X137944500Y-92125823D01*
X138006855Y-92157346D01*
X138023575Y-92176642D01*
X138153500Y-92362195D01*
X138153505Y-92362201D01*
X138320599Y-92529295D01*
X138417384Y-92597065D01*
X138514165Y-92664832D01*
X138514167Y-92664833D01*
X138514170Y-92664835D01*
X138728337Y-92764703D01*
X138956592Y-92825863D01*
X139144918Y-92842339D01*
X139191999Y-92846459D01*
X139192000Y-92846459D01*
X139192001Y-92846459D01*
X139231234Y-92843026D01*
X139427408Y-92825863D01*
X139655663Y-92764703D01*
X139869830Y-92664835D01*
X140063401Y-92529295D01*
X140230495Y-92362201D01*
X140366035Y-92168630D01*
X140465903Y-91954463D01*
X140527063Y-91726208D01*
X140547659Y-91490800D01*
X140527063Y-91255392D01*
X140472002Y-91049898D01*
X140465905Y-91027144D01*
X140465904Y-91027143D01*
X140465903Y-91027137D01*
X140366035Y-90812971D01*
X140360731Y-90805395D01*
X140230494Y-90619397D01*
X140063402Y-90452306D01*
X140063395Y-90452301D01*
X139869834Y-90316767D01*
X139869830Y-90316765D01*
X139842140Y-90303853D01*
X139655663Y-90216897D01*
X139655659Y-90216896D01*
X139655655Y-90216894D01*
X139427413Y-90155738D01*
X139427403Y-90155736D01*
X139192001Y-90135141D01*
X139191999Y-90135141D01*
X138956596Y-90155736D01*
X138956586Y-90155738D01*
X138728344Y-90216894D01*
X138728335Y-90216898D01*
X138514171Y-90316764D01*
X138514169Y-90316765D01*
X138320597Y-90452305D01*
X138153505Y-90619397D01*
X138023575Y-90804958D01*
X137968998Y-90848583D01*
X137899500Y-90855777D01*
X137837145Y-90824254D01*
X137820425Y-90804958D01*
X137690494Y-90619397D01*
X137523402Y-90452306D01*
X137523395Y-90452301D01*
X137329834Y-90316767D01*
X137329830Y-90316765D01*
X137302140Y-90303853D01*
X137115663Y-90216897D01*
X137115659Y-90216896D01*
X137115655Y-90216894D01*
X136887413Y-90155738D01*
X136887403Y-90155736D01*
X136652001Y-90135141D01*
X136651999Y-90135141D01*
X136416596Y-90155736D01*
X136416586Y-90155738D01*
X136188344Y-90216894D01*
X136188335Y-90216898D01*
X135974171Y-90316764D01*
X135974169Y-90316765D01*
X135780597Y-90452305D01*
X135613508Y-90619394D01*
X135483574Y-90804960D01*
X135428997Y-90848584D01*
X135359498Y-90855777D01*
X135297144Y-90824255D01*
X135280429Y-90804964D01*
X135150495Y-90619399D01*
X135150493Y-90619396D01*
X134983402Y-90452306D01*
X134983395Y-90452301D01*
X134789834Y-90316767D01*
X134789830Y-90316765D01*
X134762140Y-90303853D01*
X134575663Y-90216897D01*
X134575659Y-90216896D01*
X134575655Y-90216894D01*
X134347413Y-90155738D01*
X134347403Y-90155736D01*
X134112001Y-90135141D01*
X134111999Y-90135141D01*
X133876596Y-90155736D01*
X133876586Y-90155738D01*
X133648344Y-90216894D01*
X133648335Y-90216898D01*
X133434171Y-90316764D01*
X133434169Y-90316765D01*
X133240597Y-90452305D01*
X133073505Y-90619397D01*
X132943575Y-90804958D01*
X132888998Y-90848583D01*
X132819500Y-90855777D01*
X132757145Y-90824254D01*
X132740425Y-90804958D01*
X132610494Y-90619397D01*
X132443402Y-90452306D01*
X132443395Y-90452301D01*
X132249834Y-90316767D01*
X132249830Y-90316765D01*
X132222140Y-90303853D01*
X132035663Y-90216897D01*
X132035659Y-90216896D01*
X132035655Y-90216894D01*
X131807413Y-90155738D01*
X131807403Y-90155736D01*
X131572001Y-90135141D01*
X131571999Y-90135141D01*
X131336596Y-90155736D01*
X131336586Y-90155738D01*
X131108344Y-90216894D01*
X131108335Y-90216898D01*
X130894171Y-90316764D01*
X130894169Y-90316765D01*
X130700597Y-90452305D01*
X130533505Y-90619397D01*
X130403575Y-90804958D01*
X130348998Y-90848583D01*
X130279500Y-90855777D01*
X130217145Y-90824254D01*
X130200425Y-90804958D01*
X130070494Y-90619397D01*
X129903402Y-90452306D01*
X129903395Y-90452301D01*
X129709834Y-90316767D01*
X129709830Y-90316765D01*
X129682140Y-90303853D01*
X129495663Y-90216897D01*
X129495659Y-90216896D01*
X129495655Y-90216894D01*
X129267413Y-90155738D01*
X129267403Y-90155736D01*
X129032001Y-90135141D01*
X129031999Y-90135141D01*
X128796596Y-90155736D01*
X128796586Y-90155738D01*
X128568344Y-90216894D01*
X128568335Y-90216898D01*
X128354171Y-90316764D01*
X128354169Y-90316765D01*
X128160597Y-90452305D01*
X127993505Y-90619397D01*
X127863575Y-90804958D01*
X127808998Y-90848583D01*
X127739500Y-90855777D01*
X127677145Y-90824254D01*
X127660425Y-90804958D01*
X127530494Y-90619397D01*
X127363402Y-90452306D01*
X127363395Y-90452301D01*
X127169834Y-90316767D01*
X127169830Y-90316765D01*
X127142140Y-90303853D01*
X126955663Y-90216897D01*
X126955659Y-90216896D01*
X126955655Y-90216894D01*
X126727413Y-90155738D01*
X126727403Y-90155736D01*
X126492001Y-90135141D01*
X126491999Y-90135141D01*
X126256596Y-90155736D01*
X126256586Y-90155738D01*
X126028344Y-90216894D01*
X126028335Y-90216898D01*
X125814171Y-90316764D01*
X125814169Y-90316765D01*
X125620597Y-90452305D01*
X125453508Y-90619394D01*
X125323574Y-90804960D01*
X125268997Y-90848584D01*
X125199498Y-90855777D01*
X125137144Y-90824255D01*
X125120429Y-90804964D01*
X124990495Y-90619399D01*
X124990493Y-90619396D01*
X124823402Y-90452306D01*
X124823395Y-90452301D01*
X124629834Y-90316767D01*
X124629830Y-90316765D01*
X124602140Y-90303853D01*
X124415663Y-90216897D01*
X124415659Y-90216896D01*
X124415655Y-90216894D01*
X124187413Y-90155738D01*
X124187403Y-90155736D01*
X123952001Y-90135141D01*
X123951999Y-90135141D01*
X123716596Y-90155736D01*
X123716586Y-90155738D01*
X123488344Y-90216894D01*
X123488335Y-90216898D01*
X123274171Y-90316764D01*
X123274169Y-90316765D01*
X123080597Y-90452305D01*
X122913505Y-90619397D01*
X122783575Y-90804958D01*
X122728998Y-90848583D01*
X122659500Y-90855777D01*
X122597145Y-90824254D01*
X122580425Y-90804958D01*
X122450494Y-90619397D01*
X122283402Y-90452306D01*
X122283395Y-90452301D01*
X122089834Y-90316767D01*
X122089830Y-90316765D01*
X122062140Y-90303853D01*
X121875663Y-90216897D01*
X121875659Y-90216896D01*
X121875655Y-90216894D01*
X121647413Y-90155738D01*
X121647403Y-90155736D01*
X121412001Y-90135141D01*
X121411999Y-90135141D01*
X121176596Y-90155736D01*
X121176586Y-90155738D01*
X120948344Y-90216894D01*
X120948335Y-90216898D01*
X120734171Y-90316764D01*
X120734169Y-90316765D01*
X120540597Y-90452305D01*
X120373508Y-90619394D01*
X120243269Y-90805395D01*
X120188692Y-90849019D01*
X120119193Y-90856212D01*
X120056839Y-90824690D01*
X120040119Y-90805394D01*
X119910113Y-90619726D01*
X119910108Y-90619720D01*
X119743082Y-90452694D01*
X119549578Y-90317199D01*
X119335492Y-90217370D01*
X119335486Y-90217367D01*
X119122000Y-90160164D01*
X119122000Y-91055298D01*
X119014315Y-91006120D01*
X118907763Y-90990800D01*
X118836237Y-90990800D01*
X118729685Y-91006120D01*
X118622000Y-91055298D01*
X118622000Y-90160164D01*
X118621999Y-90160164D01*
X118408513Y-90217367D01*
X118408507Y-90217370D01*
X118194422Y-90317199D01*
X118194420Y-90317200D01*
X118000926Y-90452686D01*
X117878865Y-90574747D01*
X117817542Y-90608231D01*
X117747850Y-90603247D01*
X117691917Y-90561375D01*
X117675002Y-90530398D01*
X117625797Y-90398471D01*
X117625793Y-90398464D01*
X117539547Y-90283255D01*
X117539544Y-90283252D01*
X117424334Y-90197005D01*
X117424333Y-90197004D01*
X117413164Y-90192839D01*
X117357231Y-90150968D01*
X117332815Y-90085503D01*
X117332500Y-90076684D01*
X117332500Y-89890475D01*
X117334756Y-89801437D01*
X117323932Y-89741047D01*
X117323282Y-89736417D01*
X117317074Y-89675362D01*
X117306790Y-89642586D01*
X117304917Y-89634954D01*
X117298858Y-89601149D01*
X117298858Y-89601147D01*
X117276102Y-89544178D01*
X117274521Y-89539737D01*
X117263754Y-89505420D01*
X117256159Y-89481212D01*
X117256158Y-89481210D01*
X117256157Y-89481207D01*
X117239488Y-89451178D01*
X117236117Y-89444078D01*
X117223378Y-89412186D01*
X117223377Y-89412183D01*
X117189620Y-89360963D01*
X117187180Y-89356934D01*
X117160284Y-89308478D01*
X117144961Y-89240309D01*
X117168925Y-89174677D01*
X117224567Y-89132421D01*
X117268703Y-89124300D01*
X140667167Y-89124300D01*
X140734206Y-89143985D01*
G37*
%TD.AperFunction*%
%TA.AperFunction,Conductor*%
G36*
X106083590Y-110627185D02*
G01*
X106129345Y-110679989D01*
X106139771Y-110717617D01*
X106148630Y-110796249D01*
X106148631Y-110796254D01*
X106208211Y-110966523D01*
X106304184Y-111119262D01*
X106408181Y-111223259D01*
X106441666Y-111284582D01*
X106444500Y-111310940D01*
X106444499Y-118653471D01*
X106424814Y-118720510D01*
X106394813Y-118752736D01*
X106356857Y-118781151D01*
X106356852Y-118781156D01*
X106270607Y-118896363D01*
X106270603Y-118896370D01*
X106220309Y-119031216D01*
X106213902Y-119090815D01*
X106213901Y-119090834D01*
X106213901Y-120177169D01*
X106213902Y-120177175D01*
X106220309Y-120236782D01*
X106270603Y-120371627D01*
X106270607Y-120371634D01*
X106356852Y-120486842D01*
X106356853Y-120486843D01*
X106356855Y-120486845D01*
X106394812Y-120515259D01*
X106436682Y-120571192D01*
X106444500Y-120614525D01*
X106444500Y-123153473D01*
X106424815Y-123220512D01*
X106394813Y-123252739D01*
X106356855Y-123281154D01*
X106356852Y-123281158D01*
X106270607Y-123396365D01*
X106270603Y-123396372D01*
X106220309Y-123531218D01*
X106215475Y-123576184D01*
X106213902Y-123590824D01*
X106213901Y-123590836D01*
X106213901Y-124117145D01*
X106194216Y-124184184D01*
X106177582Y-124204826D01*
X101978208Y-128404199D01*
X101965951Y-128414020D01*
X101966134Y-128414241D01*
X101960123Y-128419213D01*
X101912772Y-128469636D01*
X101891889Y-128490519D01*
X101891877Y-128490532D01*
X101887621Y-128496017D01*
X101883837Y-128500447D01*
X101851937Y-128534418D01*
X101851936Y-128534420D01*
X101842284Y-128551976D01*
X101831610Y-128568226D01*
X101819329Y-128584061D01*
X101819324Y-128584068D01*
X101800815Y-128626838D01*
X101798245Y-128632084D01*
X101775803Y-128672906D01*
X101770822Y-128692307D01*
X101764521Y-128710710D01*
X101756562Y-128729102D01*
X101756561Y-128729105D01*
X101749271Y-128775127D01*
X101748087Y-128780846D01*
X101736501Y-128825972D01*
X101736500Y-128825982D01*
X101736500Y-128846016D01*
X101734973Y-128865415D01*
X101731840Y-128885194D01*
X101731840Y-128885195D01*
X101736225Y-128931583D01*
X101736500Y-128937421D01*
X101736500Y-130855573D01*
X101716815Y-130922612D01*
X101683623Y-130957148D01*
X101490597Y-131092305D01*
X101323505Y-131259397D01*
X101193575Y-131444958D01*
X101138998Y-131488583D01*
X101069500Y-131495777D01*
X101007145Y-131464254D01*
X100990425Y-131444958D01*
X100860494Y-131259397D01*
X100693402Y-131092306D01*
X100693401Y-131092305D01*
X100544670Y-130988162D01*
X100500376Y-130957147D01*
X100456751Y-130902570D01*
X100447500Y-130855572D01*
X100447500Y-124750854D01*
X100466507Y-124684881D01*
X100469420Y-124680246D01*
X100528605Y-124586053D01*
X100547788Y-124555524D01*
X100547789Y-124555522D01*
X100607368Y-124385255D01*
X100607369Y-124385249D01*
X100627565Y-124206003D01*
X100627565Y-124205996D01*
X100607369Y-124026750D01*
X100607368Y-124026745D01*
X100583802Y-123959398D01*
X100547789Y-123856478D01*
X100534180Y-123834820D01*
X100458287Y-123714037D01*
X100451816Y-123703738D01*
X100324262Y-123576184D01*
X100274875Y-123545152D01*
X100171523Y-123480211D01*
X100001254Y-123420631D01*
X100001249Y-123420630D01*
X99822004Y-123400435D01*
X99821996Y-123400435D01*
X99642750Y-123420630D01*
X99642745Y-123420631D01*
X99472476Y-123480211D01*
X99319737Y-123576184D01*
X99192184Y-123703737D01*
X99096211Y-123856476D01*
X99036631Y-124026745D01*
X99036630Y-124026750D01*
X99016435Y-124205996D01*
X99016435Y-124206003D01*
X99036630Y-124385249D01*
X99036631Y-124385254D01*
X99096211Y-124555524D01*
X99149735Y-124640705D01*
X99174580Y-124680246D01*
X99177493Y-124684881D01*
X99196500Y-124750854D01*
X99196500Y-130855573D01*
X99176815Y-130922612D01*
X99143623Y-130957148D01*
X98950597Y-131092305D01*
X98783508Y-131259394D01*
X98653269Y-131445395D01*
X98598692Y-131489019D01*
X98529193Y-131496212D01*
X98466839Y-131464690D01*
X98450119Y-131445394D01*
X98320113Y-131259726D01*
X98320108Y-131259720D01*
X98153082Y-131092694D01*
X97959578Y-130957199D01*
X97745492Y-130857370D01*
X97745486Y-130857367D01*
X97532000Y-130800164D01*
X97532000Y-131695298D01*
X97424315Y-131646120D01*
X97317763Y-131630800D01*
X97246237Y-131630800D01*
X97139685Y-131646120D01*
X97032000Y-131695298D01*
X97032000Y-130800164D01*
X97031999Y-130800164D01*
X96818513Y-130857367D01*
X96818507Y-130857370D01*
X96604422Y-130957199D01*
X96604420Y-130957200D01*
X96410926Y-131092686D01*
X96288865Y-131214747D01*
X96227542Y-131248231D01*
X96157850Y-131243247D01*
X96101917Y-131201375D01*
X96085002Y-131170398D01*
X96074361Y-131141869D01*
X96056021Y-131092694D01*
X96035797Y-131038471D01*
X96035793Y-131038464D01*
X95949547Y-130923255D01*
X95949544Y-130923252D01*
X95834335Y-130837006D01*
X95834328Y-130837002D01*
X95699482Y-130786708D01*
X95699483Y-130786708D01*
X95639883Y-130780301D01*
X95639881Y-130780300D01*
X95639873Y-130780300D01*
X95639864Y-130780300D01*
X93844129Y-130780300D01*
X93844123Y-130780301D01*
X93784516Y-130786708D01*
X93649671Y-130837002D01*
X93649664Y-130837006D01*
X93534455Y-130923252D01*
X93534452Y-130923255D01*
X93448206Y-131038464D01*
X93448202Y-131038471D01*
X93443965Y-131049833D01*
X93402094Y-131105767D01*
X93336629Y-131130184D01*
X93327783Y-131130500D01*
X93160599Y-131130500D01*
X93093560Y-131110815D01*
X93072916Y-131094179D01*
X92672175Y-130693418D01*
X91221542Y-129242711D01*
X91188059Y-129181389D01*
X91193045Y-129111698D01*
X91203686Y-129089940D01*
X91205710Y-129086657D01*
X91205712Y-129086656D01*
X91207754Y-129083344D01*
X91259700Y-129036620D01*
X91328662Y-129025396D01*
X91392745Y-129053238D01*
X91418829Y-129083339D01*
X91420681Y-129086341D01*
X91420683Y-129086344D01*
X91544654Y-129210315D01*
X91693875Y-129302356D01*
X91693880Y-129302358D01*
X91860302Y-129357505D01*
X91860309Y-129357506D01*
X91963019Y-129367999D01*
X92012999Y-129367998D01*
X92013000Y-129367998D01*
X92013000Y-128393000D01*
X92513000Y-128393000D01*
X92513000Y-129367999D01*
X92562972Y-129367999D01*
X92562986Y-129367998D01*
X92665697Y-129357505D01*
X92832119Y-129302358D01*
X92832124Y-129302356D01*
X92981345Y-129210315D01*
X93105315Y-129086345D01*
X93197356Y-128937124D01*
X93197358Y-128937119D01*
X93252505Y-128770697D01*
X93252506Y-128770690D01*
X93262999Y-128667986D01*
X93263000Y-128667973D01*
X93263000Y-128393000D01*
X92513000Y-128393000D01*
X92013000Y-128393000D01*
X92013000Y-127892999D01*
X92512999Y-127892999D01*
X92513000Y-127893000D01*
X93262999Y-127893000D01*
X93262999Y-127618028D01*
X93262998Y-127618013D01*
X93252505Y-127515302D01*
X93197358Y-127348880D01*
X93197356Y-127348875D01*
X93105315Y-127199654D01*
X93094942Y-127189281D01*
X93061457Y-127127958D01*
X93066441Y-127058266D01*
X93094945Y-127013916D01*
X93105314Y-127003547D01*
X93197356Y-126854324D01*
X93197358Y-126854319D01*
X93252505Y-126687897D01*
X93252506Y-126687890D01*
X93262999Y-126585186D01*
X93263000Y-126585173D01*
X93263000Y-126310200D01*
X92513000Y-126310200D01*
X92512999Y-127892999D01*
X92013000Y-127892999D01*
X92013000Y-124835200D01*
X92513000Y-124835200D01*
X92513000Y-125810200D01*
X93262999Y-125810200D01*
X93262999Y-125535228D01*
X93262998Y-125535213D01*
X93252505Y-125432502D01*
X93197358Y-125266080D01*
X93197356Y-125266075D01*
X93105315Y-125116854D01*
X92981345Y-124992884D01*
X92832124Y-124900843D01*
X92832119Y-124900841D01*
X92665697Y-124845694D01*
X92665690Y-124845693D01*
X92562986Y-124835200D01*
X92513000Y-124835200D01*
X92013000Y-124835200D01*
X92012999Y-124835199D01*
X91963029Y-124835200D01*
X91963011Y-124835201D01*
X91860302Y-124845694D01*
X91693880Y-124900841D01*
X91693875Y-124900843D01*
X91544654Y-124992884D01*
X91420683Y-125116855D01*
X91420679Y-125116860D01*
X91418826Y-125119865D01*
X91417018Y-125121490D01*
X91416202Y-125122523D01*
X91416025Y-125122383D01*
X91366874Y-125166585D01*
X91297911Y-125177801D01*
X91233831Y-125149952D01*
X91207753Y-125119853D01*
X91207737Y-125119828D01*
X91205712Y-125116544D01*
X91081656Y-124992488D01*
X90932334Y-124900386D01*
X90765797Y-124845201D01*
X90765795Y-124845200D01*
X90663010Y-124834700D01*
X90062998Y-124834700D01*
X90062980Y-124834701D01*
X89960203Y-124845200D01*
X89960200Y-124845201D01*
X89793668Y-124900385D01*
X89793663Y-124900387D01*
X89644342Y-124992489D01*
X89520289Y-125116542D01*
X89428187Y-125265863D01*
X89428185Y-125265868D01*
X89428115Y-125266080D01*
X89373001Y-125432403D01*
X89373001Y-125432404D01*
X89373000Y-125432404D01*
X89362500Y-125535183D01*
X89362500Y-126840018D01*
X89342815Y-126907057D01*
X89290011Y-126952812D01*
X89220853Y-126962756D01*
X89199497Y-126957724D01*
X89109796Y-126928000D01*
X89103171Y-126926582D01*
X89103789Y-126923691D01*
X89051182Y-126902229D01*
X89040803Y-126892958D01*
X88174120Y-126026451D01*
X87470328Y-125322802D01*
X87436836Y-125261482D01*
X87434000Y-125235112D01*
X87434000Y-124619985D01*
X87934000Y-124619985D01*
X87934000Y-125319985D01*
X88486398Y-125319985D01*
X88643122Y-125305019D01*
X88643126Y-125305018D01*
X88844686Y-125245835D01*
X89031414Y-125149571D01*
X89196537Y-125019716D01*
X89196540Y-125019713D01*
X89334105Y-124860954D01*
X89334114Y-124860943D01*
X89439144Y-124679024D01*
X89439147Y-124679017D01*
X89507855Y-124480502D01*
X89507855Y-124480500D01*
X89509368Y-124469985D01*
X88699686Y-124469985D01*
X88711641Y-124458030D01*
X88769165Y-124345133D01*
X88788986Y-124219985D01*
X88769165Y-124094837D01*
X88711641Y-123981940D01*
X88699686Y-123969985D01*
X89505257Y-123969985D01*
X89478229Y-123858575D01*
X89390960Y-123667480D01*
X89303850Y-123545152D01*
X89280997Y-123479125D01*
X89297470Y-123411224D01*
X89312709Y-123390250D01*
X89339347Y-123360666D01*
X89426601Y-123209537D01*
X89426602Y-123209535D01*
X89480529Y-123043564D01*
X89480530Y-123043562D01*
X89498772Y-122870001D01*
X89480530Y-122696439D01*
X89480529Y-122696437D01*
X89426602Y-122530466D01*
X89426601Y-122530464D01*
X89413343Y-122507500D01*
X89396870Y-122439600D01*
X89413344Y-122383498D01*
X89427063Y-122359737D01*
X89481023Y-122193664D01*
X89481022Y-122193664D01*
X89483031Y-122187484D01*
X89485227Y-122188197D01*
X89513396Y-122136013D01*
X89574557Y-122102232D01*
X89644272Y-122106879D01*
X89700407Y-122148480D01*
X89725140Y-122213825D01*
X89725500Y-122223269D01*
X89725500Y-122477534D01*
X89724968Y-122485640D01*
X89720318Y-122520942D01*
X89725223Y-122558229D01*
X89725235Y-122558351D01*
X89730765Y-122600356D01*
X89740942Y-122677718D01*
X89740953Y-122677754D01*
X89740955Y-122677760D01*
X89740956Y-122677762D01*
X89768846Y-122745095D01*
X89770729Y-122749641D01*
X89801434Y-122823790D01*
X89801463Y-122823841D01*
X89846368Y-122882361D01*
X89874813Y-122919438D01*
X89874890Y-122919533D01*
X89897717Y-122949281D01*
X89925958Y-122970952D01*
X89932066Y-122976309D01*
X90891456Y-123935885D01*
X90896804Y-123941984D01*
X90918519Y-123970283D01*
X90983670Y-124020275D01*
X91006596Y-124037870D01*
X91043908Y-124066507D01*
X91043913Y-124066509D01*
X91043932Y-124066520D01*
X91043956Y-124066533D01*
X91043959Y-124066536D01*
X91112284Y-124094837D01*
X91113687Y-124095418D01*
X91189975Y-124127027D01*
X91189978Y-124127027D01*
X91189981Y-124127029D01*
X91189984Y-124127029D01*
X91190032Y-124127041D01*
X91190038Y-124127044D01*
X91266608Y-124137124D01*
X91346741Y-124147682D01*
X91379102Y-124143424D01*
X91382104Y-124143030D01*
X91390199Y-124142500D01*
X97712838Y-124142500D01*
X97720928Y-124143030D01*
X97732548Y-124144557D01*
X97756318Y-124147682D01*
X97833740Y-124137473D01*
X97836391Y-124137124D01*
X97912955Y-124127045D01*
X97912955Y-124127044D01*
X97912962Y-124127044D01*
X97912967Y-124127041D01*
X97913015Y-124127029D01*
X97913070Y-124127013D01*
X97913076Y-124127013D01*
X97985316Y-124097074D01*
X98059041Y-124066536D01*
X98059045Y-124066532D01*
X98059047Y-124066532D01*
X98059131Y-124066481D01*
X98059143Y-124066477D01*
X98110901Y-124026745D01*
X98121176Y-124018858D01*
X98184479Y-123970284D01*
X98184478Y-123970284D01*
X98184482Y-123970282D01*
X98206219Y-123941952D01*
X98211552Y-123935870D01*
X98662955Y-123484290D01*
X98669052Y-123478942D01*
X98697282Y-123457282D01*
X98720309Y-123427270D01*
X98720434Y-123427120D01*
X98721521Y-123425702D01*
X98721527Y-123425697D01*
X98740903Y-123400435D01*
X98744549Y-123395682D01*
X98773397Y-123358085D01*
X98793536Y-123331841D01*
X98793538Y-123331833D01*
X98793559Y-123331799D01*
X98793589Y-123331746D01*
X98793595Y-123331739D01*
X98821519Y-123264285D01*
X98823416Y-123259703D01*
X98844196Y-123209537D01*
X98854044Y-123185762D01*
X98854045Y-123185752D01*
X98854074Y-123185647D01*
X98864539Y-123106045D01*
X98869725Y-123066650D01*
X98869747Y-123066414D01*
X98874682Y-123028882D01*
X98870031Y-122993610D01*
X98869500Y-122985506D01*
X98869500Y-122893732D01*
X98889185Y-122826693D01*
X98941989Y-122780938D01*
X98958905Y-122774656D01*
X99089398Y-122736744D01*
X99230865Y-122653081D01*
X99230870Y-122653076D01*
X99237026Y-122648301D01*
X99238922Y-122650745D01*
X99287642Y-122624142D01*
X99357334Y-122629126D01*
X99389708Y-122649932D01*
X99390974Y-122648301D01*
X99397139Y-122653084D01*
X99450794Y-122684815D01*
X99538602Y-122736744D01*
X99561409Y-122743370D01*
X99696426Y-122782597D01*
X99696429Y-122782597D01*
X99696431Y-122782598D01*
X99708722Y-122783565D01*
X99733304Y-122785500D01*
X99733306Y-122785500D01*
X100164696Y-122785500D01*
X100183131Y-122784049D01*
X100201569Y-122782598D01*
X100201571Y-122782597D01*
X100201573Y-122782597D01*
X100288393Y-122757373D01*
X100359398Y-122736744D01*
X100500865Y-122653081D01*
X100500870Y-122653076D01*
X100507026Y-122648301D01*
X100508922Y-122650745D01*
X100557642Y-122624142D01*
X100627334Y-122629126D01*
X100659708Y-122649932D01*
X100660974Y-122648301D01*
X100667139Y-122653084D01*
X100720794Y-122684815D01*
X100808602Y-122736744D01*
X100831409Y-122743370D01*
X100966426Y-122782597D01*
X100966429Y-122782597D01*
X100966431Y-122782598D01*
X100978722Y-122783565D01*
X101003304Y-122785500D01*
X101003306Y-122785500D01*
X101434696Y-122785500D01*
X101453131Y-122784049D01*
X101471569Y-122782598D01*
X101471571Y-122782597D01*
X101471573Y-122782597D01*
X101558393Y-122757373D01*
X101629398Y-122736744D01*
X101770865Y-122653081D01*
X101887081Y-122536865D01*
X101970744Y-122395398D01*
X102016598Y-122237569D01*
X102019500Y-122200694D01*
X102019500Y-120674210D01*
X102039185Y-120607171D01*
X102091989Y-120561416D01*
X102161147Y-120551472D01*
X102208594Y-120568669D01*
X102355066Y-120659014D01*
X102521603Y-120714199D01*
X102624391Y-120724700D01*
X103674408Y-120724699D01*
X103674416Y-120724698D01*
X103674419Y-120724698D01*
X103730702Y-120718948D01*
X103777197Y-120714199D01*
X103943734Y-120659014D01*
X104093056Y-120566912D01*
X104217112Y-120442856D01*
X104309214Y-120293534D01*
X104364399Y-120126997D01*
X104374900Y-120024209D01*
X104374899Y-119424192D01*
X104372123Y-119397020D01*
X104364399Y-119321403D01*
X104364398Y-119321400D01*
X104358630Y-119303994D01*
X104309214Y-119154866D01*
X104217112Y-119005544D01*
X104093056Y-118881488D01*
X104089742Y-118879443D01*
X104087946Y-118877448D01*
X104087389Y-118877007D01*
X104087464Y-118876911D01*
X104043018Y-118827497D01*
X104031797Y-118758534D01*
X104059640Y-118694452D01*
X104089748Y-118668365D01*
X104092742Y-118666518D01*
X104216715Y-118542545D01*
X104308756Y-118393324D01*
X104308758Y-118393319D01*
X104363905Y-118226897D01*
X104363906Y-118226890D01*
X104374399Y-118124186D01*
X104374400Y-118124173D01*
X104374400Y-118074200D01*
X101924401Y-118074200D01*
X101924401Y-118124186D01*
X101935582Y-118233631D01*
X101933407Y-118233853D01*
X101928956Y-118293231D01*
X101886894Y-118349021D01*
X101821346Y-118373214D01*
X101812923Y-118373500D01*
X97110743Y-118373500D01*
X97095122Y-118371775D01*
X97095096Y-118372061D01*
X97087334Y-118371327D01*
X97087333Y-118371327D01*
X97018186Y-118373500D01*
X96988649Y-118373500D01*
X96981766Y-118374369D01*
X96975949Y-118374826D01*
X96929373Y-118376290D01*
X96910129Y-118381881D01*
X96891079Y-118385825D01*
X96871211Y-118388334D01*
X96827884Y-118405488D01*
X96822358Y-118407379D01*
X96777614Y-118420379D01*
X96777610Y-118420381D01*
X96760366Y-118430579D01*
X96742905Y-118439133D01*
X96724274Y-118446510D01*
X96724262Y-118446517D01*
X96686570Y-118473902D01*
X96681687Y-118477109D01*
X96641580Y-118500829D01*
X96627414Y-118514995D01*
X96612624Y-118527627D01*
X96596414Y-118539404D01*
X96596411Y-118539407D01*
X96566710Y-118575309D01*
X96562777Y-118579631D01*
X95755208Y-119387199D01*
X95742951Y-119397020D01*
X95743134Y-119397241D01*
X95737123Y-119402213D01*
X95689772Y-119452636D01*
X95668889Y-119473519D01*
X95668877Y-119473532D01*
X95664621Y-119479017D01*
X95660837Y-119483447D01*
X95628937Y-119517418D01*
X95628936Y-119517420D01*
X95619284Y-119534976D01*
X95608610Y-119551226D01*
X95596329Y-119567061D01*
X95596324Y-119567068D01*
X95577815Y-119609838D01*
X95575245Y-119615084D01*
X95552803Y-119655906D01*
X95547822Y-119675307D01*
X95541521Y-119693710D01*
X95533562Y-119712102D01*
X95533561Y-119712105D01*
X95526271Y-119758127D01*
X95525086Y-119763846D01*
X95518299Y-119790284D01*
X95482563Y-119850323D01*
X95420040Y-119881510D01*
X95350581Y-119873945D01*
X95335073Y-119866182D01*
X95318588Y-119856433D01*
X95279398Y-119833256D01*
X95279397Y-119833255D01*
X95279396Y-119833255D01*
X95279393Y-119833254D01*
X95121573Y-119787402D01*
X95121567Y-119787401D01*
X95084696Y-119784500D01*
X95084694Y-119784500D01*
X94993500Y-119784500D01*
X94926461Y-119764815D01*
X94880706Y-119712011D01*
X94869500Y-119660500D01*
X94869500Y-117909500D01*
X94889185Y-117842461D01*
X94941989Y-117796706D01*
X94993500Y-117785500D01*
X95084696Y-117785500D01*
X95103131Y-117784049D01*
X95121569Y-117782598D01*
X95121571Y-117782597D01*
X95121573Y-117782597D01*
X95191021Y-117762420D01*
X95279398Y-117736744D01*
X95420865Y-117653081D01*
X95420870Y-117653076D01*
X95427026Y-117648301D01*
X95428922Y-117650745D01*
X95477642Y-117624142D01*
X95547334Y-117629126D01*
X95579708Y-117649932D01*
X95580974Y-117648301D01*
X95587139Y-117653084D01*
X95660353Y-117696382D01*
X95728602Y-117736744D01*
X95770224Y-117748836D01*
X95886426Y-117782597D01*
X95886429Y-117782597D01*
X95886431Y-117782598D01*
X95898722Y-117783565D01*
X95923304Y-117785500D01*
X95923306Y-117785500D01*
X96354696Y-117785500D01*
X96373131Y-117784049D01*
X96391569Y-117782598D01*
X96391571Y-117782597D01*
X96391573Y-117782597D01*
X96461021Y-117762420D01*
X96549398Y-117736744D01*
X96690865Y-117653081D01*
X96690870Y-117653076D01*
X96697026Y-117648301D01*
X96698922Y-117650745D01*
X96747642Y-117624142D01*
X96817334Y-117629126D01*
X96849708Y-117649932D01*
X96850974Y-117648301D01*
X96857139Y-117653084D01*
X96930353Y-117696382D01*
X96998602Y-117736744D01*
X97040224Y-117748836D01*
X97156426Y-117782597D01*
X97156429Y-117782597D01*
X97156431Y-117782598D01*
X97168722Y-117783565D01*
X97193304Y-117785500D01*
X97193306Y-117785500D01*
X97624696Y-117785500D01*
X97643131Y-117784049D01*
X97661569Y-117782598D01*
X97661571Y-117782597D01*
X97661573Y-117782597D01*
X97731021Y-117762420D01*
X97819398Y-117736744D01*
X97960865Y-117653081D01*
X97960870Y-117653076D01*
X97967026Y-117648301D01*
X97968922Y-117650745D01*
X98017642Y-117624142D01*
X98087334Y-117629126D01*
X98119708Y-117649932D01*
X98120974Y-117648301D01*
X98127139Y-117653084D01*
X98200353Y-117696382D01*
X98268602Y-117736744D01*
X98310224Y-117748836D01*
X98426426Y-117782597D01*
X98426429Y-117782597D01*
X98426431Y-117782598D01*
X98438722Y-117783565D01*
X98463304Y-117785500D01*
X98463306Y-117785500D01*
X98894696Y-117785500D01*
X98913131Y-117784049D01*
X98931569Y-117782598D01*
X98931571Y-117782597D01*
X98931573Y-117782597D01*
X99001021Y-117762420D01*
X99089398Y-117736744D01*
X99230865Y-117653081D01*
X99230870Y-117653076D01*
X99237026Y-117648301D01*
X99238922Y-117650745D01*
X99287642Y-117624142D01*
X99357334Y-117629126D01*
X99389708Y-117649932D01*
X99390974Y-117648301D01*
X99397139Y-117653084D01*
X99470353Y-117696382D01*
X99538602Y-117736744D01*
X99580224Y-117748836D01*
X99696426Y-117782597D01*
X99696429Y-117782597D01*
X99696431Y-117782598D01*
X99708722Y-117783565D01*
X99733304Y-117785500D01*
X99733306Y-117785500D01*
X100164696Y-117785500D01*
X100183131Y-117784049D01*
X100201569Y-117782598D01*
X100201571Y-117782597D01*
X100201573Y-117782597D01*
X100271021Y-117762420D01*
X100359398Y-117736744D01*
X100500865Y-117653081D01*
X100500870Y-117653076D01*
X100507026Y-117648301D01*
X100508922Y-117650745D01*
X100557642Y-117624142D01*
X100627334Y-117629126D01*
X100659708Y-117649932D01*
X100660974Y-117648301D01*
X100667139Y-117653084D01*
X100740353Y-117696382D01*
X100808602Y-117736744D01*
X100850224Y-117748836D01*
X100966426Y-117782597D01*
X100966429Y-117782597D01*
X100966431Y-117782598D01*
X100978722Y-117783565D01*
X101003304Y-117785500D01*
X101003306Y-117785500D01*
X101434696Y-117785500D01*
X101453131Y-117784049D01*
X101471569Y-117782598D01*
X101471571Y-117782597D01*
X101471573Y-117782597D01*
X101541021Y-117762420D01*
X101629398Y-117736744D01*
X101770865Y-117653081D01*
X101775645Y-117648301D01*
X101813428Y-117610519D01*
X101874751Y-117577034D01*
X101901109Y-117574200D01*
X102899400Y-117574200D01*
X102899400Y-116824200D01*
X103399400Y-116824200D01*
X103399400Y-117574200D01*
X104374399Y-117574200D01*
X104374399Y-117524228D01*
X104374398Y-117524213D01*
X104363905Y-117421502D01*
X104308758Y-117255080D01*
X104308756Y-117255075D01*
X104216715Y-117105854D01*
X104092745Y-116981884D01*
X103943524Y-116889843D01*
X103943519Y-116889841D01*
X103777097Y-116834694D01*
X103777090Y-116834693D01*
X103674386Y-116824200D01*
X103399400Y-116824200D01*
X102899400Y-116824200D01*
X102624429Y-116824200D01*
X102624412Y-116824201D01*
X102521702Y-116834694D01*
X102355280Y-116889841D01*
X102355275Y-116889843D01*
X102208597Y-116980316D01*
X102141204Y-116998756D01*
X102074541Y-116977833D01*
X102029771Y-116924191D01*
X102019500Y-116874777D01*
X102019500Y-115369304D01*
X102016598Y-115332432D01*
X102016597Y-115332426D01*
X101982836Y-115216224D01*
X101970744Y-115174602D01*
X101887081Y-115033135D01*
X101887079Y-115033133D01*
X101887076Y-115033129D01*
X101770870Y-114916923D01*
X101770862Y-114916917D01*
X101689819Y-114868989D01*
X101629398Y-114833256D01*
X101629397Y-114833255D01*
X101629396Y-114833255D01*
X101629393Y-114833254D01*
X101471573Y-114787402D01*
X101471567Y-114787401D01*
X101434696Y-114784500D01*
X101434694Y-114784500D01*
X101003306Y-114784500D01*
X101003304Y-114784500D01*
X100966432Y-114787401D01*
X100966426Y-114787402D01*
X100808606Y-114833254D01*
X100808603Y-114833255D01*
X100667137Y-114916917D01*
X100660969Y-114921702D01*
X100659072Y-114919256D01*
X100610358Y-114945857D01*
X100540666Y-114940873D01*
X100508296Y-114920069D01*
X100507031Y-114921702D01*
X100500862Y-114916917D01*
X100419819Y-114868989D01*
X100359398Y-114833256D01*
X100359397Y-114833255D01*
X100359396Y-114833255D01*
X100359393Y-114833254D01*
X100201573Y-114787402D01*
X100201567Y-114787401D01*
X100164696Y-114784500D01*
X100164694Y-114784500D01*
X99733306Y-114784500D01*
X99733304Y-114784500D01*
X99696432Y-114787401D01*
X99696426Y-114787402D01*
X99538606Y-114833254D01*
X99538603Y-114833255D01*
X99397137Y-114916917D01*
X99390969Y-114921702D01*
X99389072Y-114919256D01*
X99340358Y-114945857D01*
X99270666Y-114940873D01*
X99238296Y-114920069D01*
X99237031Y-114921702D01*
X99230862Y-114916917D01*
X99149819Y-114868989D01*
X99089398Y-114833256D01*
X99089397Y-114833255D01*
X99089396Y-114833255D01*
X99089393Y-114833254D01*
X98931573Y-114787402D01*
X98931567Y-114787401D01*
X98894696Y-114784500D01*
X98894694Y-114784500D01*
X98463306Y-114784500D01*
X98463304Y-114784500D01*
X98426432Y-114787401D01*
X98426426Y-114787402D01*
X98268606Y-114833254D01*
X98268603Y-114833255D01*
X98127137Y-114916917D01*
X98120969Y-114921702D01*
X98119072Y-114919256D01*
X98070358Y-114945857D01*
X98000666Y-114940873D01*
X97968296Y-114920069D01*
X97967031Y-114921702D01*
X97960862Y-114916917D01*
X97879819Y-114868989D01*
X97819398Y-114833256D01*
X97819397Y-114833255D01*
X97819396Y-114833255D01*
X97819393Y-114833254D01*
X97661573Y-114787402D01*
X97661567Y-114787401D01*
X97624696Y-114784500D01*
X97624694Y-114784500D01*
X97271630Y-114784500D01*
X97204591Y-114764815D01*
X97158836Y-114712011D01*
X97148892Y-114642853D01*
X97177917Y-114579297D01*
X97183949Y-114572819D01*
X97205666Y-114551102D01*
X97257512Y-114499256D01*
X97349614Y-114349934D01*
X97404799Y-114183397D01*
X97415300Y-114080609D01*
X97415299Y-113480592D01*
X97409423Y-113423074D01*
X97404799Y-113377803D01*
X97404798Y-113377800D01*
X97398012Y-113357320D01*
X97349614Y-113211266D01*
X97257512Y-113061944D01*
X97133456Y-112937888D01*
X97130619Y-112936138D01*
X97129083Y-112934430D01*
X97127789Y-112933407D01*
X97127963Y-112933185D01*
X97083896Y-112884194D01*
X97072672Y-112815232D01*
X97100513Y-112751149D01*
X97130617Y-112725062D01*
X97133456Y-112723312D01*
X97257512Y-112599256D01*
X97278391Y-112565404D01*
X97330340Y-112518679D01*
X97383931Y-112506500D01*
X99531145Y-112506500D01*
X99597117Y-112525506D01*
X99724254Y-112605392D01*
X99726478Y-112606789D01*
X99800665Y-112632748D01*
X99896745Y-112666368D01*
X99896750Y-112666369D01*
X100075996Y-112686565D01*
X100076000Y-112686565D01*
X100076004Y-112686565D01*
X100255249Y-112666369D01*
X100255252Y-112666368D01*
X100255255Y-112666368D01*
X100425522Y-112606789D01*
X100554883Y-112525505D01*
X100620855Y-112506500D01*
X100761257Y-112506500D01*
X100776877Y-112508224D01*
X100776904Y-112507939D01*
X100784660Y-112508671D01*
X100784667Y-112508673D01*
X100853814Y-112506500D01*
X100883350Y-112506500D01*
X100890228Y-112505630D01*
X100896041Y-112505172D01*
X100942627Y-112503709D01*
X100961869Y-112498117D01*
X100980912Y-112494174D01*
X101000792Y-112491664D01*
X101044122Y-112474507D01*
X101049646Y-112472617D01*
X101055511Y-112470913D01*
X101094390Y-112459618D01*
X101111629Y-112449422D01*
X101129103Y-112440862D01*
X101147727Y-112433488D01*
X101147727Y-112433487D01*
X101147732Y-112433486D01*
X101185449Y-112406082D01*
X101190305Y-112402892D01*
X101230420Y-112379170D01*
X101244589Y-112364999D01*
X101259379Y-112352368D01*
X101275587Y-112340594D01*
X101305299Y-112304676D01*
X101309212Y-112300376D01*
X102965770Y-110643819D01*
X103027094Y-110610334D01*
X103053452Y-110607500D01*
X106016551Y-110607500D01*
X106083590Y-110627185D01*
G37*
%TD.AperFunction*%
%TA.AperFunction,Conductor*%
G36*
X107900703Y-120760276D02*
G01*
X107934815Y-120808399D01*
X107936105Y-120811661D01*
X107937986Y-120817161D01*
X107950980Y-120861888D01*
X107961180Y-120879134D01*
X107969738Y-120896603D01*
X107977114Y-120915232D01*
X108004498Y-120952923D01*
X108007706Y-120957807D01*
X108031427Y-120997916D01*
X108031433Y-120997924D01*
X108045590Y-121012080D01*
X108058228Y-121026876D01*
X108070005Y-121043086D01*
X108070006Y-121043087D01*
X108105909Y-121072788D01*
X108110220Y-121076710D01*
X117975526Y-130942017D01*
X118009010Y-131003338D01*
X118004026Y-131073030D01*
X117975525Y-131117377D01*
X117878673Y-131214229D01*
X117817350Y-131247714D01*
X117747658Y-131242730D01*
X117691725Y-131200858D01*
X117674810Y-131169881D01*
X117625797Y-131038471D01*
X117625793Y-131038464D01*
X117539547Y-130923255D01*
X117539544Y-130923252D01*
X117424335Y-130837006D01*
X117424328Y-130837002D01*
X117289482Y-130786708D01*
X117289483Y-130786708D01*
X117229883Y-130780301D01*
X117229881Y-130780300D01*
X117229873Y-130780300D01*
X117229864Y-130780300D01*
X115434129Y-130780300D01*
X115434123Y-130780301D01*
X115374516Y-130786708D01*
X115239671Y-130837002D01*
X115239664Y-130837006D01*
X115124455Y-130923252D01*
X115124454Y-130923253D01*
X115092055Y-130966532D01*
X115036121Y-131008402D01*
X114966429Y-131013385D01*
X114905107Y-130979898D01*
X114882863Y-130947167D01*
X114882592Y-130947328D01*
X114880034Y-130943004D01*
X114878986Y-130941461D01*
X114878615Y-130940603D01*
X114868423Y-130923371D01*
X114859861Y-130905894D01*
X114852487Y-130887270D01*
X114850094Y-130883976D01*
X114825079Y-130849545D01*
X114821888Y-130844686D01*
X114817346Y-130837006D01*
X114798170Y-130804580D01*
X114798168Y-130804578D01*
X114798165Y-130804574D01*
X114784006Y-130790415D01*
X114771368Y-130775619D01*
X114771021Y-130775141D01*
X114759594Y-130759413D01*
X114746095Y-130748246D01*
X114723688Y-130729709D01*
X114719376Y-130725786D01*
X113784803Y-129791212D01*
X113774980Y-129778950D01*
X113774759Y-129779134D01*
X113769786Y-129773123D01*
X113751159Y-129755631D01*
X113719364Y-129725773D01*
X113708919Y-129715328D01*
X113698475Y-129704883D01*
X113692986Y-129700625D01*
X113688561Y-129696847D01*
X113654582Y-129664938D01*
X113654580Y-129664936D01*
X113654577Y-129664935D01*
X113637029Y-129655288D01*
X113620763Y-129644604D01*
X113604933Y-129632325D01*
X113562168Y-129613818D01*
X113556922Y-129611248D01*
X113516093Y-129588803D01*
X113516092Y-129588802D01*
X113496693Y-129583822D01*
X113478281Y-129577518D01*
X113459898Y-129569562D01*
X113459892Y-129569560D01*
X113413874Y-129562272D01*
X113408152Y-129561087D01*
X113363021Y-129549500D01*
X113363019Y-129549500D01*
X113342984Y-129549500D01*
X113323586Y-129547973D01*
X113316162Y-129546797D01*
X113303805Y-129544840D01*
X113303804Y-129544840D01*
X113257416Y-129549225D01*
X113251578Y-129549500D01*
X105873743Y-129549500D01*
X105858122Y-129547775D01*
X105858096Y-129548061D01*
X105850334Y-129547327D01*
X105850333Y-129547327D01*
X105781186Y-129549500D01*
X105751649Y-129549500D01*
X105744766Y-129550369D01*
X105738949Y-129550826D01*
X105692373Y-129552290D01*
X105673129Y-129557881D01*
X105654079Y-129561825D01*
X105634211Y-129564334D01*
X105590884Y-129581488D01*
X105585358Y-129583379D01*
X105540614Y-129596379D01*
X105540610Y-129596381D01*
X105523366Y-129606579D01*
X105505905Y-129615133D01*
X105487274Y-129622510D01*
X105487262Y-129622517D01*
X105449570Y-129649902D01*
X105444687Y-129653109D01*
X105404580Y-129676829D01*
X105390414Y-129690995D01*
X105375624Y-129703627D01*
X105359414Y-129715404D01*
X105359411Y-129715407D01*
X105329710Y-129751309D01*
X105325777Y-129755631D01*
X104518208Y-130563199D01*
X104505951Y-130573020D01*
X104506134Y-130573241D01*
X104500123Y-130578213D01*
X104452772Y-130628636D01*
X104431889Y-130649519D01*
X104431877Y-130649532D01*
X104427621Y-130655017D01*
X104423837Y-130659447D01*
X104391937Y-130693418D01*
X104391936Y-130693420D01*
X104382284Y-130710976D01*
X104371610Y-130727226D01*
X104359329Y-130743061D01*
X104359324Y-130743068D01*
X104340815Y-130785838D01*
X104338245Y-130791084D01*
X104315803Y-130831906D01*
X104310822Y-130851307D01*
X104304518Y-130869716D01*
X104296343Y-130888606D01*
X104251652Y-130942313D01*
X104234953Y-130951737D01*
X104224168Y-130956766D01*
X104030597Y-131092305D01*
X103863508Y-131259394D01*
X103733574Y-131444959D01*
X103678997Y-131488584D01*
X103609498Y-131495776D01*
X103547144Y-131464254D01*
X103530424Y-131444958D01*
X103400494Y-131259397D01*
X103233402Y-131092306D01*
X103233401Y-131092305D01*
X103084670Y-130988162D01*
X103040376Y-130957147D01*
X102996751Y-130902570D01*
X102987500Y-130855572D01*
X102987500Y-129215452D01*
X103007185Y-129148413D01*
X103023819Y-129127771D01*
X106985471Y-125166119D01*
X107046794Y-125132634D01*
X107073152Y-125129800D01*
X107473472Y-125129800D01*
X107473473Y-125129800D01*
X107533084Y-125123392D01*
X107667932Y-125073097D01*
X107783147Y-124986847D01*
X107869397Y-124871632D01*
X107919692Y-124736784D01*
X107926101Y-124677174D01*
X107926101Y-124384001D01*
X108364399Y-124384001D01*
X108364399Y-124677145D01*
X108370800Y-124736673D01*
X108370802Y-124736680D01*
X108421044Y-124871387D01*
X108421048Y-124871394D01*
X108507208Y-124986488D01*
X108507211Y-124986491D01*
X108622305Y-125072651D01*
X108622312Y-125072655D01*
X108757019Y-125122897D01*
X108757026Y-125122899D01*
X108816554Y-125129300D01*
X108816571Y-125129301D01*
X108969999Y-125129301D01*
X108969999Y-124384001D01*
X109469999Y-124384001D01*
X109469999Y-125129301D01*
X109623427Y-125129301D01*
X109623443Y-125129300D01*
X109682971Y-125122899D01*
X109682978Y-125122897D01*
X109817685Y-125072655D01*
X109817692Y-125072651D01*
X109932786Y-124986491D01*
X109932789Y-124986488D01*
X110018949Y-124871394D01*
X110018953Y-124871387D01*
X110069195Y-124736680D01*
X110069197Y-124736673D01*
X110075598Y-124677145D01*
X110075599Y-124677128D01*
X110075599Y-124384001D01*
X109469999Y-124384001D01*
X108969999Y-124384001D01*
X108364399Y-124384001D01*
X107926101Y-124384001D01*
X107926100Y-123884001D01*
X108364399Y-123884001D01*
X108969999Y-123884001D01*
X108969999Y-123138701D01*
X109469999Y-123138701D01*
X109469999Y-123884001D01*
X110075599Y-123884001D01*
X110075599Y-123590873D01*
X110075598Y-123590856D01*
X110069197Y-123531328D01*
X110069195Y-123531321D01*
X110018953Y-123396614D01*
X110018949Y-123396607D01*
X109932789Y-123281513D01*
X109932786Y-123281510D01*
X109817692Y-123195350D01*
X109817685Y-123195346D01*
X109682978Y-123145104D01*
X109682971Y-123145102D01*
X109623443Y-123138701D01*
X109469999Y-123138701D01*
X108969999Y-123138701D01*
X108816554Y-123138701D01*
X108757026Y-123145102D01*
X108757019Y-123145104D01*
X108622312Y-123195346D01*
X108622305Y-123195350D01*
X108507211Y-123281510D01*
X108507208Y-123281513D01*
X108421048Y-123396607D01*
X108421044Y-123396614D01*
X108370802Y-123531321D01*
X108370800Y-123531328D01*
X108364399Y-123590856D01*
X108364399Y-123884001D01*
X107926100Y-123884001D01*
X107926100Y-123590829D01*
X107919692Y-123531218D01*
X107906690Y-123496359D01*
X107869398Y-123396372D01*
X107869394Y-123396365D01*
X107790064Y-123290395D01*
X107783147Y-123281155D01*
X107783145Y-123281153D01*
X107783143Y-123281151D01*
X107745188Y-123252738D01*
X107703318Y-123196804D01*
X107695500Y-123153472D01*
X107695500Y-120853989D01*
X107715185Y-120786950D01*
X107767989Y-120741195D01*
X107837147Y-120731251D01*
X107900703Y-120760276D01*
G37*
%TD.AperFunction*%
%TA.AperFunction,Conductor*%
G36*
X86656359Y-123981940D02*
G01*
X86598835Y-124094837D01*
X86579014Y-124219985D01*
X86598835Y-124345133D01*
X86656359Y-124458030D01*
X86668314Y-124469985D01*
X85114686Y-124469985D01*
X85126641Y-124458030D01*
X85184165Y-124345133D01*
X85203986Y-124219985D01*
X85184165Y-124094837D01*
X85126641Y-123981940D01*
X85114686Y-123969985D01*
X86668314Y-123969985D01*
X86656359Y-123981940D01*
G37*
%TD.AperFunction*%
%TA.AperFunction,Conductor*%
G36*
X84549000Y-116670015D02*
G01*
X84851408Y-116670015D01*
X84962712Y-116659386D01*
X85031319Y-116672608D01*
X85081887Y-116720823D01*
X85098500Y-116782824D01*
X85098500Y-118414951D01*
X85098387Y-118418696D01*
X85094642Y-118480603D01*
X85094642Y-118480605D01*
X85105821Y-118541612D01*
X85106384Y-118545313D01*
X85113859Y-118606870D01*
X85113860Y-118606874D01*
X85117451Y-118616343D01*
X85123474Y-118637946D01*
X85125304Y-118647930D01*
X85150759Y-118704490D01*
X85152189Y-118707941D01*
X85174182Y-118765930D01*
X85174183Y-118765931D01*
X85179936Y-118774266D01*
X85190961Y-118793813D01*
X85195120Y-118803055D01*
X85195124Y-118803060D01*
X85233371Y-118851878D01*
X85235591Y-118854896D01*
X85256550Y-118885260D01*
X85278433Y-118951615D01*
X85278500Y-118955700D01*
X85278500Y-121128951D01*
X85278387Y-121132696D01*
X85274642Y-121194603D01*
X85274642Y-121194605D01*
X85285821Y-121255612D01*
X85286384Y-121259313D01*
X85293859Y-121320870D01*
X85293860Y-121320874D01*
X85297451Y-121330343D01*
X85303474Y-121351946D01*
X85305304Y-121361930D01*
X85330759Y-121418490D01*
X85332189Y-121421941D01*
X85354182Y-121479930D01*
X85354183Y-121479931D01*
X85359936Y-121488266D01*
X85370961Y-121507813D01*
X85375120Y-121517055D01*
X85375124Y-121517060D01*
X85413371Y-121565878D01*
X85415591Y-121568896D01*
X85450812Y-121619924D01*
X85450816Y-121619928D01*
X85450817Y-121619929D01*
X85497250Y-121661064D01*
X85499941Y-121663598D01*
X86335399Y-122499056D01*
X86337935Y-122501750D01*
X86379071Y-122548183D01*
X86396714Y-122560361D01*
X86430110Y-122583413D01*
X86433122Y-122585628D01*
X86447366Y-122596788D01*
X86449312Y-122598312D01*
X86489945Y-122655151D01*
X86496161Y-122708885D01*
X86479227Y-122870000D01*
X86497469Y-123043562D01*
X86497471Y-123043567D01*
X86510512Y-123083705D01*
X86512507Y-123153546D01*
X86476426Y-123213379D01*
X86449401Y-123232237D01*
X86336589Y-123290395D01*
X86171462Y-123420253D01*
X86171459Y-123420256D01*
X86033894Y-123579015D01*
X86033888Y-123579023D01*
X85976415Y-123678568D01*
X85925847Y-123726783D01*
X85857240Y-123740005D01*
X85792375Y-123714037D01*
X85759514Y-123672248D01*
X85758914Y-123672595D01*
X85756501Y-123668416D01*
X85756230Y-123668071D01*
X85755958Y-123667476D01*
X85634110Y-123496365D01*
X85634104Y-123496359D01*
X85482067Y-123351392D01*
X85305342Y-123237818D01*
X85110314Y-123159740D01*
X84904038Y-123119985D01*
X84549000Y-123119985D01*
X84549000Y-123819985D01*
X84049000Y-123819985D01*
X84049000Y-123119985D01*
X83746602Y-123119985D01*
X83635287Y-123130614D01*
X83566680Y-123117390D01*
X83516113Y-123069175D01*
X83499500Y-123007175D01*
X83499500Y-116782716D01*
X83519185Y-116715677D01*
X83571989Y-116669922D01*
X83641147Y-116659978D01*
X83646968Y-116660957D01*
X83693963Y-116670015D01*
X84049000Y-116670015D01*
X84049000Y-115970015D01*
X84549000Y-115970015D01*
X84549000Y-116670015D01*
G37*
%TD.AperFunction*%
%TA.AperFunction,Conductor*%
G36*
X87608776Y-122826726D02*
G01*
X87652571Y-122855019D01*
X87892717Y-123095165D01*
X87924410Y-123120702D01*
X87931815Y-123134263D01*
X88018419Y-123220867D01*
X88051904Y-123282190D01*
X88046920Y-123351882D01*
X88018419Y-123396229D01*
X87934000Y-123480647D01*
X87934000Y-123819985D01*
X87434000Y-123819985D01*
X87434000Y-123343554D01*
X87152827Y-123062381D01*
X87119342Y-123001058D01*
X87123510Y-122942773D01*
X87151046Y-122999952D01*
X87223567Y-123057786D01*
X87291104Y-123073201D01*
X87336896Y-123073201D01*
X87404433Y-123057786D01*
X87476954Y-122999952D01*
X87517200Y-122916380D01*
X87517200Y-122826067D01*
X87539110Y-122821410D01*
X87608776Y-122826726D01*
G37*
%TD.AperFunction*%
%TA.AperFunction,Conductor*%
G36*
X126093256Y-110748185D02*
G01*
X126113898Y-110764819D01*
X129900181Y-114551102D01*
X129933666Y-114612425D01*
X129936500Y-114638783D01*
X129936500Y-116446283D01*
X129934243Y-116535362D01*
X129934243Y-116535370D01*
X129940295Y-116569133D01*
X129944551Y-116592880D01*
X129945064Y-116595739D01*
X129945718Y-116600404D01*
X129951925Y-116661430D01*
X129951927Y-116661444D01*
X129962208Y-116694213D01*
X129964079Y-116701837D01*
X129970142Y-116735652D01*
X129970142Y-116735655D01*
X129985259Y-116773498D01*
X129990732Y-116787201D01*
X129992894Y-116792612D01*
X129994474Y-116797051D01*
X130012841Y-116855588D01*
X130012844Y-116855595D01*
X130029509Y-116885619D01*
X130032879Y-116892714D01*
X130045622Y-116924614D01*
X130045627Y-116924624D01*
X130063279Y-116951407D01*
X130074521Y-116968466D01*
X130079377Y-116975833D01*
X130081818Y-116979863D01*
X130111588Y-117033498D01*
X130111589Y-117033499D01*
X130111591Y-117033502D01*
X130133968Y-117059567D01*
X130138693Y-117065835D01*
X130157597Y-117094518D01*
X130200965Y-117137886D01*
X130204168Y-117141342D01*
X130244135Y-117187896D01*
X130271299Y-117208923D01*
X130277186Y-117214107D01*
X130541262Y-117478182D01*
X130789180Y-117726101D01*
X130822665Y-117787424D01*
X130825499Y-117813782D01*
X130825499Y-118376116D01*
X130805814Y-118443155D01*
X130753010Y-118488910D01*
X130683852Y-118498854D01*
X130620296Y-118469829D01*
X130602232Y-118450427D01*
X130552287Y-118383709D01*
X130437194Y-118297550D01*
X130437187Y-118297546D01*
X130302480Y-118247304D01*
X130302473Y-118247302D01*
X130242945Y-118240901D01*
X129949801Y-118240901D01*
X129949801Y-119952101D01*
X130242929Y-119952101D01*
X130242945Y-119952100D01*
X130302473Y-119945699D01*
X130302480Y-119945697D01*
X130437187Y-119895455D01*
X130437194Y-119895451D01*
X130552287Y-119809292D01*
X130602232Y-119742575D01*
X130658166Y-119700704D01*
X130727858Y-119695720D01*
X130789181Y-119729205D01*
X130822665Y-119790528D01*
X130825499Y-119816886D01*
X130825499Y-120525279D01*
X130805814Y-120592318D01*
X130753010Y-120638073D01*
X130683852Y-120648017D01*
X130620296Y-120618992D01*
X130602233Y-120599591D01*
X130582068Y-120572654D01*
X130552647Y-120533353D01*
X130552645Y-120533352D01*
X130552645Y-120533351D01*
X130437436Y-120447105D01*
X130437429Y-120447101D01*
X130302583Y-120396807D01*
X130302584Y-120396807D01*
X130242984Y-120390400D01*
X130242982Y-120390399D01*
X130242974Y-120390399D01*
X130242965Y-120390399D01*
X129156630Y-120390399D01*
X129156624Y-120390400D01*
X129097017Y-120396807D01*
X128962172Y-120447101D01*
X128962165Y-120447105D01*
X128846956Y-120533351D01*
X128846953Y-120533354D01*
X128760707Y-120648563D01*
X128760703Y-120648570D01*
X128710409Y-120783416D01*
X128704002Y-120843015D01*
X128704001Y-120843034D01*
X128704001Y-121584849D01*
X128684316Y-121651888D01*
X128631512Y-121697643D01*
X128562354Y-121707587D01*
X128498798Y-121678562D01*
X128492330Y-121672539D01*
X126319719Y-119499928D01*
X128704500Y-119499928D01*
X128704501Y-119499945D01*
X128710902Y-119559473D01*
X128710904Y-119559480D01*
X128761146Y-119694187D01*
X128761150Y-119694194D01*
X128847310Y-119809288D01*
X128847313Y-119809291D01*
X128962407Y-119895451D01*
X128962414Y-119895455D01*
X129097121Y-119945697D01*
X129097128Y-119945699D01*
X129156656Y-119952100D01*
X129156673Y-119952101D01*
X129449801Y-119952101D01*
X129449801Y-119346501D01*
X128704501Y-119346501D01*
X128704500Y-119499928D01*
X126319719Y-119499928D01*
X126317903Y-119498112D01*
X126308080Y-119485850D01*
X126307859Y-119486034D01*
X126302886Y-119480023D01*
X126273721Y-119452635D01*
X126252464Y-119432673D01*
X126241939Y-119422148D01*
X126231416Y-119411624D01*
X126197932Y-119350300D01*
X126197815Y-119349217D01*
X126195099Y-119346501D01*
X126180524Y-119346501D01*
X126131277Y-119336302D01*
X126095260Y-119320715D01*
X126090030Y-119318153D01*
X126064274Y-119303994D01*
X126049191Y-119295702D01*
X126049192Y-119295702D01*
X126029793Y-119290722D01*
X126011381Y-119284418D01*
X125992998Y-119276462D01*
X125992992Y-119276460D01*
X125946974Y-119269172D01*
X125941252Y-119267987D01*
X125896121Y-119256400D01*
X125896119Y-119256400D01*
X125876084Y-119256400D01*
X125856686Y-119254873D01*
X125849262Y-119253697D01*
X125836905Y-119251740D01*
X125836904Y-119251740D01*
X125790516Y-119256125D01*
X125784678Y-119256400D01*
X125073799Y-119256400D01*
X125006760Y-119236715D01*
X124961005Y-119183911D01*
X124949799Y-119132400D01*
X124949799Y-118970501D01*
X124969484Y-118903462D01*
X125022288Y-118857707D01*
X125073799Y-118846501D01*
X126195099Y-118846501D01*
X126195099Y-118693073D01*
X128704500Y-118693073D01*
X128704501Y-118846501D01*
X129449801Y-118846501D01*
X129449801Y-118240901D01*
X129156656Y-118240901D01*
X129097128Y-118247302D01*
X129097121Y-118247304D01*
X128962414Y-118297546D01*
X128962407Y-118297550D01*
X128847313Y-118383710D01*
X128847310Y-118383713D01*
X128761150Y-118498807D01*
X128761146Y-118498814D01*
X128710904Y-118633521D01*
X128710902Y-118633528D01*
X128704501Y-118693056D01*
X128704500Y-118693073D01*
X126195099Y-118693073D01*
X126195098Y-118693056D01*
X126188696Y-118633523D01*
X126186912Y-118625968D01*
X126189710Y-118625306D01*
X126185686Y-118569153D01*
X126219161Y-118507824D01*
X126265901Y-118478450D01*
X126333522Y-118454789D01*
X126486262Y-118358816D01*
X126613816Y-118231262D01*
X126709789Y-118078522D01*
X126769368Y-117908255D01*
X126769369Y-117908249D01*
X126789565Y-117729003D01*
X126789565Y-117728996D01*
X126769369Y-117549750D01*
X126769368Y-117549745D01*
X126718264Y-117403698D01*
X126709789Y-117379478D01*
X126697999Y-117360715D01*
X126638674Y-117266299D01*
X126613816Y-117226738D01*
X126486262Y-117099184D01*
X126451208Y-117077158D01*
X126333523Y-117003211D01*
X126163254Y-116943631D01*
X126163249Y-116943630D01*
X125984004Y-116923435D01*
X125983996Y-116923435D01*
X125804750Y-116943630D01*
X125804745Y-116943631D01*
X125634476Y-117003211D01*
X125505117Y-117084494D01*
X125439145Y-117103500D01*
X124923737Y-117103500D01*
X124908120Y-117101776D01*
X124908093Y-117102062D01*
X124900331Y-117101327D01*
X124831203Y-117103500D01*
X124801650Y-117103500D01*
X124800997Y-117103582D01*
X124794756Y-117104369D01*
X124788943Y-117104826D01*
X124760025Y-117105735D01*
X124692401Y-117088165D01*
X124645010Y-117036824D01*
X124639089Y-117022750D01*
X124611404Y-116943632D01*
X124597389Y-116903578D01*
X124501416Y-116750838D01*
X124373862Y-116623284D01*
X124337449Y-116600404D01*
X124221121Y-116527310D01*
X124050849Y-116467730D01*
X124003774Y-116462426D01*
X123939360Y-116435359D01*
X123929978Y-116426887D01*
X122986271Y-115483180D01*
X122952786Y-115421857D01*
X122957770Y-115352165D01*
X122999642Y-115296232D01*
X123065106Y-115271815D01*
X123073952Y-115271499D01*
X123368002Y-115271499D01*
X123368008Y-115271499D01*
X123470797Y-115260999D01*
X123637334Y-115205814D01*
X123786656Y-115113712D01*
X123910712Y-114989656D01*
X123912752Y-114986347D01*
X123914745Y-114984555D01*
X123915193Y-114983989D01*
X123915289Y-114984065D01*
X123964694Y-114939623D01*
X124033656Y-114928395D01*
X124097740Y-114956234D01*
X124123829Y-114986339D01*
X124125681Y-114989341D01*
X124125683Y-114989344D01*
X124249654Y-115113315D01*
X124398875Y-115205356D01*
X124398880Y-115205358D01*
X124565302Y-115260505D01*
X124565309Y-115260506D01*
X124668019Y-115270999D01*
X124717999Y-115270998D01*
X124718000Y-115270998D01*
X124718000Y-114296000D01*
X125218000Y-114296000D01*
X125218000Y-115270999D01*
X125267972Y-115270999D01*
X125267986Y-115270998D01*
X125370697Y-115260505D01*
X125537119Y-115205358D01*
X125537124Y-115205356D01*
X125686345Y-115113315D01*
X125810315Y-114989345D01*
X125902356Y-114840124D01*
X125902358Y-114840119D01*
X125957505Y-114673697D01*
X125957506Y-114673690D01*
X125967999Y-114570986D01*
X125968000Y-114570973D01*
X125968000Y-114296000D01*
X125218000Y-114296000D01*
X124718000Y-114296000D01*
X124718000Y-112010000D01*
X125218000Y-112010000D01*
X125218000Y-113796000D01*
X125967999Y-113796000D01*
X125967999Y-113521028D01*
X125967998Y-113521013D01*
X125957505Y-113418302D01*
X125902358Y-113251880D01*
X125902356Y-113251875D01*
X125810315Y-113102654D01*
X125698342Y-112990681D01*
X125664857Y-112929358D01*
X125669841Y-112859666D01*
X125698342Y-112815319D01*
X125810315Y-112703345D01*
X125902356Y-112554124D01*
X125902358Y-112554119D01*
X125957505Y-112387697D01*
X125957506Y-112387690D01*
X125967999Y-112284986D01*
X125968000Y-112284973D01*
X125968000Y-112010000D01*
X125218000Y-112010000D01*
X124718000Y-112010000D01*
X124718000Y-111634000D01*
X124737685Y-111566961D01*
X124790489Y-111521206D01*
X124842000Y-111510000D01*
X125967999Y-111510000D01*
X125967999Y-111235028D01*
X125967998Y-111235013D01*
X125957505Y-111132302D01*
X125902358Y-110965880D01*
X125902355Y-110965873D01*
X125872578Y-110917598D01*
X125854137Y-110850205D01*
X125875059Y-110783542D01*
X125928701Y-110738772D01*
X125978116Y-110728500D01*
X126026217Y-110728500D01*
X126093256Y-110748185D01*
G37*
%TD.AperFunction*%
%TA.AperFunction,Conductor*%
G36*
X89299092Y-109966540D02*
G01*
X89302612Y-109966629D01*
X89369135Y-109987989D01*
X89413551Y-110041924D01*
X89423500Y-110090590D01*
X89423500Y-112636271D01*
X89421236Y-112725273D01*
X89421237Y-112725280D01*
X89432059Y-112785693D01*
X89432712Y-112790352D01*
X89438925Y-112851435D01*
X89438926Y-112851440D01*
X89449195Y-112884167D01*
X89451068Y-112891802D01*
X89457118Y-112925571D01*
X89457118Y-112925572D01*
X89479883Y-112982579D01*
X89481461Y-112987011D01*
X89499839Y-113045582D01*
X89499842Y-113045591D01*
X89516489Y-113075582D01*
X89519861Y-113082684D01*
X89532580Y-113114536D01*
X89532582Y-113114540D01*
X89566358Y-113165798D01*
X89568796Y-113169824D01*
X89598589Y-113223499D01*
X89598592Y-113223504D01*
X89620936Y-113249531D01*
X89625668Y-113255807D01*
X89644543Y-113284451D01*
X89687946Y-113327862D01*
X89691136Y-113331305D01*
X89713471Y-113357320D01*
X89731134Y-113377895D01*
X89739258Y-113384183D01*
X89758261Y-113398893D01*
X89764160Y-113404089D01*
X90854330Y-114494450D01*
X90885256Y-114526983D01*
X90915741Y-114559053D01*
X90966052Y-114594070D01*
X90969817Y-114596910D01*
X91017320Y-114635650D01*
X91047817Y-114651584D01*
X91054510Y-114655639D01*
X91082751Y-114675295D01*
X91139086Y-114699470D01*
X91143331Y-114701488D01*
X91183131Y-114722281D01*
X91197670Y-114729877D01*
X91230730Y-114739339D01*
X91238127Y-114741972D01*
X91269742Y-114755540D01*
X91329788Y-114767879D01*
X91334360Y-114769001D01*
X91393296Y-114785871D01*
X91427603Y-114788485D01*
X91435352Y-114789572D01*
X91469059Y-114796500D01*
X91504500Y-114796500D01*
X91571539Y-114816185D01*
X91617294Y-114868989D01*
X91628500Y-114920500D01*
X91628500Y-115054030D01*
X91611232Y-115117150D01*
X91577257Y-115174599D01*
X91577254Y-115174606D01*
X91531402Y-115332426D01*
X91531401Y-115332432D01*
X91528500Y-115369304D01*
X91528500Y-117200696D01*
X91531401Y-117237567D01*
X91531402Y-117237573D01*
X91577254Y-117395393D01*
X91577255Y-117395396D01*
X91660917Y-117536862D01*
X91660923Y-117536870D01*
X91777129Y-117653076D01*
X91777133Y-117653079D01*
X91777135Y-117653081D01*
X91918602Y-117736744D01*
X91960224Y-117748836D01*
X92076426Y-117782597D01*
X92076429Y-117782597D01*
X92076431Y-117782598D01*
X92088722Y-117783565D01*
X92113304Y-117785500D01*
X92113306Y-117785500D01*
X92224500Y-117785500D01*
X92291539Y-117805185D01*
X92337294Y-117857989D01*
X92348500Y-117909500D01*
X92348500Y-119661000D01*
X92328815Y-119728039D01*
X92276011Y-119773794D01*
X92224500Y-119785000D01*
X92113356Y-119785000D01*
X92076510Y-119787899D01*
X92076504Y-119787900D01*
X91918806Y-119833716D01*
X91918803Y-119833717D01*
X91777447Y-119917314D01*
X91777438Y-119917321D01*
X91661321Y-120033438D01*
X91661314Y-120033447D01*
X91577717Y-120174803D01*
X91577716Y-120174806D01*
X91531900Y-120332504D01*
X91531899Y-120332510D01*
X91529000Y-120369356D01*
X91529000Y-121035000D01*
X92410112Y-121035000D01*
X92477151Y-121054685D01*
X92510428Y-121086112D01*
X92514406Y-121091587D01*
X92534040Y-121107830D01*
X92573148Y-121165728D01*
X92579000Y-121203373D01*
X92579000Y-121411000D01*
X92559315Y-121478039D01*
X92506511Y-121523794D01*
X92455000Y-121535000D01*
X91484249Y-121535000D01*
X91417210Y-121515315D01*
X91371455Y-121462511D01*
X91363840Y-121434077D01*
X91363278Y-121434217D01*
X91361901Y-121428683D01*
X91361670Y-121427467D01*
X91361054Y-121425279D01*
X91361054Y-121425277D01*
X91361052Y-121425274D01*
X91361044Y-121425241D01*
X91361044Y-121425238D01*
X91333072Y-121357708D01*
X91327949Y-121345339D01*
X91317353Y-121319755D01*
X91300556Y-121279194D01*
X91300551Y-121279187D01*
X91300538Y-121279164D01*
X91300536Y-121279159D01*
X91285308Y-121259313D01*
X91253060Y-121217286D01*
X91240151Y-121200462D01*
X91228477Y-121185245D01*
X91228473Y-121185241D01*
X91227283Y-121183690D01*
X91227235Y-121183631D01*
X91221542Y-121176212D01*
X91204282Y-121153718D01*
X91176029Y-121132038D01*
X91169923Y-121126683D01*
X89849716Y-119806299D01*
X89822844Y-119766077D01*
X89818736Y-119756159D01*
X89818729Y-119756151D01*
X89818655Y-119756021D01*
X89818654Y-119756017D01*
X89769758Y-119692330D01*
X89722482Y-119630718D01*
X89694137Y-119608967D01*
X89688045Y-119603626D01*
X89523882Y-119439552D01*
X89490381Y-119378238D01*
X89488219Y-119364807D01*
X89487956Y-119362306D01*
X89481023Y-119296336D01*
X89441987Y-119176195D01*
X89427064Y-119130265D01*
X89418335Y-119115146D01*
X89413631Y-119106999D01*
X89397158Y-119039101D01*
X89413631Y-118982998D01*
X89427063Y-118959736D01*
X89481023Y-118793663D01*
X89499276Y-118619999D01*
X89481023Y-118446335D01*
X89427063Y-118280262D01*
X89413632Y-118256999D01*
X89397159Y-118189103D01*
X89413631Y-118133001D01*
X89427063Y-118109738D01*
X89481023Y-117943665D01*
X89499276Y-117770001D01*
X89481023Y-117596337D01*
X89427063Y-117430264D01*
X89413342Y-117406500D01*
X89396869Y-117338601D01*
X89413343Y-117282498D01*
X89426603Y-117259531D01*
X89426605Y-117259527D01*
X89480529Y-117093563D01*
X89480530Y-117093561D01*
X89498772Y-116920000D01*
X89480530Y-116746438D01*
X89480529Y-116746436D01*
X89426602Y-116580465D01*
X89426601Y-116580463D01*
X89339347Y-116429334D01*
X89313543Y-116400676D01*
X89283313Y-116337685D01*
X89291938Y-116268349D01*
X89311983Y-116236498D01*
X89334104Y-116210970D01*
X89334113Y-116210958D01*
X89439143Y-116029039D01*
X89439146Y-116029032D01*
X89507854Y-115830517D01*
X89507854Y-115830515D01*
X89509367Y-115820000D01*
X88699685Y-115820000D01*
X88711640Y-115808045D01*
X88769164Y-115695148D01*
X88788985Y-115570000D01*
X88769164Y-115444852D01*
X88711640Y-115331955D01*
X88699685Y-115320000D01*
X89505256Y-115320000D01*
X89478228Y-115208590D01*
X89390958Y-115017492D01*
X89269109Y-114846380D01*
X89269103Y-114846374D01*
X89117066Y-114701407D01*
X88940341Y-114587833D01*
X88745313Y-114509755D01*
X88539037Y-114470000D01*
X87933999Y-114470000D01*
X87933999Y-115170000D01*
X87433999Y-115170000D01*
X87433999Y-114470000D01*
X86881601Y-114470000D01*
X86724876Y-114484965D01*
X86724872Y-114484966D01*
X86658435Y-114504474D01*
X86588565Y-114504474D01*
X86529787Y-114466700D01*
X86500762Y-114403144D01*
X86499500Y-114385497D01*
X86499500Y-113488499D01*
X86519185Y-113421460D01*
X86571989Y-113375705D01*
X86623500Y-113364499D01*
X86627871Y-113364499D01*
X86627872Y-113364499D01*
X86687483Y-113358091D01*
X86822331Y-113307796D01*
X86937546Y-113221546D01*
X87023796Y-113106331D01*
X87074091Y-112971483D01*
X87080500Y-112911873D01*
X87080499Y-111116128D01*
X87074091Y-111056517D01*
X87068980Y-111042815D01*
X87023797Y-110921671D01*
X87023793Y-110921664D01*
X86937547Y-110806455D01*
X86937544Y-110806452D01*
X86822335Y-110720206D01*
X86822328Y-110720202D01*
X86687482Y-110669908D01*
X86687483Y-110669908D01*
X86627883Y-110663501D01*
X86627881Y-110663500D01*
X86627873Y-110663500D01*
X86627865Y-110663500D01*
X85845782Y-110663500D01*
X85778743Y-110643815D01*
X85732988Y-110591011D01*
X85723044Y-110521853D01*
X85752069Y-110458297D01*
X85758101Y-110451819D01*
X85927625Y-110282296D01*
X86207101Y-110002819D01*
X86268425Y-109969334D01*
X86294783Y-109966500D01*
X89297468Y-109966500D01*
X89299092Y-109966540D01*
G37*
%TD.AperFunction*%
%TA.AperFunction,Conductor*%
G36*
X129392814Y-101092785D02*
G01*
X129425040Y-101122787D01*
X129453755Y-101161145D01*
X129475110Y-101177131D01*
X129568965Y-101247392D01*
X129568972Y-101247396D01*
X129657702Y-101280490D01*
X129713636Y-101322361D01*
X129724681Y-101341408D01*
X129738181Y-101364235D01*
X129746739Y-101381704D01*
X129754115Y-101400333D01*
X129781499Y-101438024D01*
X129784707Y-101442908D01*
X129808428Y-101483017D01*
X129808434Y-101483025D01*
X129822591Y-101497181D01*
X129835229Y-101511977D01*
X129847006Y-101528187D01*
X129847007Y-101528188D01*
X129882910Y-101557889D01*
X129887221Y-101561811D01*
X130653620Y-102328210D01*
X131418181Y-103092771D01*
X131451666Y-103154094D01*
X131454500Y-103180452D01*
X131454500Y-104552255D01*
X131452775Y-104567872D01*
X131453061Y-104567899D01*
X131452326Y-104575665D01*
X131454500Y-104644814D01*
X131454500Y-104674343D01*
X131454501Y-104674360D01*
X131455368Y-104681231D01*
X131455826Y-104687050D01*
X131457290Y-104733624D01*
X131457291Y-104733627D01*
X131462880Y-104752867D01*
X131466824Y-104771911D01*
X131469336Y-104791792D01*
X131485252Y-104831993D01*
X131486490Y-104835119D01*
X131488382Y-104840647D01*
X131499695Y-104879586D01*
X131501382Y-104885390D01*
X131503530Y-104889023D01*
X131511580Y-104902634D01*
X131520136Y-104920100D01*
X131527514Y-104938732D01*
X131542231Y-104958989D01*
X131554898Y-104976423D01*
X131558106Y-104981307D01*
X131581827Y-105021416D01*
X131581833Y-105021424D01*
X131595990Y-105035580D01*
X131608627Y-105050375D01*
X131620406Y-105066587D01*
X131637480Y-105080712D01*
X131656309Y-105096288D01*
X131660620Y-105100210D01*
X132942845Y-106382435D01*
X134082383Y-107521973D01*
X134115868Y-107583296D01*
X134114477Y-107641746D01*
X134087539Y-107742283D01*
X134087536Y-107742296D01*
X134066941Y-107977699D01*
X134066941Y-107977700D01*
X134087536Y-108213103D01*
X134087538Y-108213113D01*
X134148694Y-108441355D01*
X134148696Y-108441359D01*
X134148697Y-108441363D01*
X134199733Y-108550809D01*
X134248565Y-108655530D01*
X134248567Y-108655534D01*
X134345589Y-108794094D01*
X134383826Y-108848703D01*
X134384101Y-108849095D01*
X134384106Y-108849102D01*
X134551197Y-109016193D01*
X134551203Y-109016198D01*
X134736758Y-109146125D01*
X134780383Y-109200702D01*
X134787577Y-109270200D01*
X134756054Y-109332555D01*
X134736758Y-109349275D01*
X134551197Y-109479205D01*
X134384105Y-109646297D01*
X134248565Y-109839869D01*
X134248564Y-109839871D01*
X134148698Y-110054035D01*
X134148694Y-110054044D01*
X134087538Y-110282286D01*
X134087536Y-110282296D01*
X134066941Y-110517699D01*
X134066941Y-110517700D01*
X134087536Y-110753103D01*
X134087538Y-110753113D01*
X134148694Y-110981355D01*
X134148696Y-110981359D01*
X134148697Y-110981363D01*
X134217530Y-111128976D01*
X134248565Y-111195530D01*
X134248567Y-111195534D01*
X134384101Y-111389095D01*
X134384106Y-111389102D01*
X134551197Y-111556193D01*
X134551203Y-111556198D01*
X134736758Y-111686125D01*
X134780383Y-111740702D01*
X134787577Y-111810200D01*
X134756054Y-111872555D01*
X134736758Y-111889275D01*
X134551197Y-112019205D01*
X134384105Y-112186297D01*
X134248565Y-112379869D01*
X134248564Y-112379871D01*
X134148698Y-112594035D01*
X134148694Y-112594044D01*
X134087538Y-112822286D01*
X134087536Y-112822296D01*
X134066941Y-113057699D01*
X134066941Y-113057700D01*
X134087536Y-113293103D01*
X134087538Y-113293113D01*
X134148694Y-113521355D01*
X134148696Y-113521359D01*
X134148697Y-113521363D01*
X134231755Y-113699481D01*
X134248565Y-113735530D01*
X134248567Y-113735534D01*
X134356881Y-113890221D01*
X134384101Y-113929096D01*
X134384106Y-113929102D01*
X134551197Y-114096193D01*
X134551203Y-114096198D01*
X134736758Y-114226125D01*
X134780383Y-114280702D01*
X134787577Y-114350200D01*
X134756054Y-114412555D01*
X134736758Y-114429275D01*
X134551197Y-114559205D01*
X134384105Y-114726297D01*
X134248565Y-114919869D01*
X134248564Y-114919871D01*
X134148698Y-115134035D01*
X134148694Y-115134044D01*
X134087538Y-115362286D01*
X134087536Y-115362296D01*
X134066941Y-115597699D01*
X134066941Y-115597700D01*
X134087536Y-115833103D01*
X134087538Y-115833113D01*
X134148694Y-116061355D01*
X134148696Y-116061359D01*
X134148697Y-116061363D01*
X134229909Y-116235523D01*
X134248565Y-116275530D01*
X134248567Y-116275534D01*
X134292086Y-116337685D01*
X134384101Y-116469096D01*
X134384106Y-116469102D01*
X134551197Y-116636193D01*
X134551203Y-116636198D01*
X134736758Y-116766125D01*
X134780383Y-116820702D01*
X134787577Y-116890200D01*
X134756054Y-116952555D01*
X134736758Y-116969275D01*
X134551197Y-117099205D01*
X134384105Y-117266297D01*
X134248565Y-117459869D01*
X134248564Y-117459871D01*
X134148698Y-117674035D01*
X134148694Y-117674044D01*
X134087538Y-117902286D01*
X134087536Y-117902296D01*
X134066941Y-118137699D01*
X134066941Y-118137700D01*
X134087536Y-118373103D01*
X134087538Y-118373113D01*
X134148694Y-118601355D01*
X134148696Y-118601359D01*
X134148697Y-118601363D01*
X134204328Y-118720664D01*
X134248565Y-118815530D01*
X134248567Y-118815534D01*
X134343853Y-118951615D01*
X134384105Y-119009101D01*
X134551199Y-119176195D01*
X134638767Y-119237511D01*
X134744765Y-119311732D01*
X134744767Y-119311733D01*
X134744770Y-119311735D01*
X134958937Y-119411603D01*
X134958943Y-119411604D01*
X134958944Y-119411605D01*
X135005876Y-119424180D01*
X135187192Y-119472763D01*
X135244520Y-119477778D01*
X135309587Y-119503230D01*
X135350566Y-119559821D01*
X135354445Y-119629582D01*
X135321378Y-119689003D01*
X135047402Y-119962881D01*
X134986072Y-119996355D01*
X134969465Y-119998802D01*
X134936432Y-120001401D01*
X134936426Y-120001402D01*
X134778606Y-120047254D01*
X134778603Y-120047255D01*
X134637137Y-120130917D01*
X134637133Y-120130920D01*
X134603003Y-120165050D01*
X134568871Y-120199182D01*
X134507551Y-120232666D01*
X134481192Y-120235500D01*
X133996808Y-120235500D01*
X133929769Y-120215815D01*
X133909131Y-120199185D01*
X133840865Y-120130919D01*
X133834233Y-120126997D01*
X133699396Y-120047255D01*
X133699393Y-120047254D01*
X133541573Y-120001402D01*
X133541567Y-120001401D01*
X133504696Y-119998500D01*
X133504694Y-119998500D01*
X133073306Y-119998500D01*
X133073304Y-119998500D01*
X133036432Y-120001401D01*
X132985093Y-120016317D01*
X132915224Y-120016117D01*
X132856554Y-119978174D01*
X132827711Y-119914536D01*
X132826499Y-119897240D01*
X132826500Y-118715541D01*
X132826500Y-117360715D01*
X132828482Y-117282498D01*
X132828757Y-117271641D01*
X132828756Y-117271640D01*
X132828757Y-117271637D01*
X132817933Y-117211249D01*
X132817280Y-117206587D01*
X132811074Y-117145563D01*
X132811074Y-117145562D01*
X132800784Y-117112768D01*
X132798917Y-117105155D01*
X132798858Y-117104826D01*
X132792858Y-117071347D01*
X132770100Y-117014374D01*
X132768521Y-117009938D01*
X132766410Y-117003211D01*
X132750159Y-116951412D01*
X132750158Y-116951410D01*
X132750157Y-116951407D01*
X132738360Y-116930154D01*
X132733485Y-116921371D01*
X132730117Y-116914278D01*
X132725273Y-116902152D01*
X132717377Y-116882383D01*
X132683621Y-116831164D01*
X132681183Y-116827140D01*
X132651410Y-116773500D01*
X132651409Y-116773498D01*
X132631956Y-116750838D01*
X132629031Y-116747430D01*
X132624301Y-116741157D01*
X132605401Y-116712480D01*
X132580282Y-116687362D01*
X132562019Y-116669099D01*
X132558828Y-116665655D01*
X132533536Y-116636193D01*
X132518866Y-116619105D01*
X132518845Y-116619089D01*
X132491694Y-116598072D01*
X132485807Y-116592887D01*
X132103878Y-116210958D01*
X131973819Y-116080898D01*
X131940334Y-116019575D01*
X131937500Y-115993217D01*
X131937500Y-114185676D01*
X131938712Y-114137836D01*
X131939756Y-114096637D01*
X131928932Y-114036247D01*
X131928282Y-114031617D01*
X131922074Y-113970562D01*
X131911790Y-113937786D01*
X131909917Y-113930154D01*
X131903858Y-113896349D01*
X131903858Y-113896347D01*
X131881102Y-113839378D01*
X131879521Y-113834937D01*
X131861159Y-113776412D01*
X131861158Y-113776410D01*
X131861157Y-113776407D01*
X131844488Y-113746378D01*
X131841117Y-113739278D01*
X131828378Y-113707386D01*
X131828377Y-113707383D01*
X131794620Y-113656163D01*
X131792180Y-113652134D01*
X131781379Y-113632675D01*
X131762409Y-113598498D01*
X131762407Y-113598495D01*
X131740033Y-113572434D01*
X131735302Y-113566159D01*
X131729727Y-113557700D01*
X131716402Y-113537481D01*
X131673012Y-113494091D01*
X131669822Y-113490648D01*
X131629867Y-113444106D01*
X131629863Y-113444102D01*
X131602698Y-113423074D01*
X131596803Y-113417882D01*
X127208452Y-109029532D01*
X127147061Y-108964949D01*
X127147060Y-108964948D01*
X127147059Y-108964947D01*
X127119204Y-108945559D01*
X127096709Y-108929902D01*
X127092946Y-108927064D01*
X127045413Y-108888305D01*
X127045406Y-108888300D01*
X127014959Y-108872397D01*
X127008251Y-108868334D01*
X126980049Y-108848705D01*
X126980046Y-108848703D01*
X126980045Y-108848703D01*
X126980041Y-108848701D01*
X126923680Y-108824514D01*
X126919424Y-108822493D01*
X126865057Y-108794094D01*
X126865050Y-108794091D01*
X126865049Y-108794091D01*
X126859008Y-108792362D01*
X126832030Y-108784642D01*
X126824630Y-108782008D01*
X126793057Y-108768459D01*
X126793058Y-108768459D01*
X126732966Y-108756109D01*
X126728391Y-108754986D01*
X126669420Y-108738113D01*
X126669425Y-108738113D01*
X126635158Y-108735503D01*
X126627380Y-108734412D01*
X126593742Y-108727500D01*
X126593741Y-108727500D01*
X126532402Y-108727500D01*
X126527695Y-108727321D01*
X126522121Y-108726896D01*
X126466524Y-108722662D01*
X126446589Y-108725201D01*
X126432440Y-108727003D01*
X126424611Y-108727500D01*
X124679217Y-108727500D01*
X124612178Y-108707815D01*
X124566423Y-108655011D01*
X124556479Y-108585853D01*
X124585504Y-108522297D01*
X124613245Y-108498506D01*
X124678162Y-108457716D01*
X124805716Y-108330162D01*
X124901689Y-108177422D01*
X124961268Y-108007155D01*
X124966572Y-107960073D01*
X124993637Y-107895663D01*
X125002101Y-107886287D01*
X125218686Y-107669702D01*
X125230948Y-107659880D01*
X125230765Y-107659659D01*
X125236767Y-107654692D01*
X125236777Y-107654686D01*
X125284141Y-107604248D01*
X125305020Y-107583370D01*
X125309273Y-107577886D01*
X125313050Y-107573463D01*
X125344962Y-107539482D01*
X125354614Y-107521923D01*
X125365289Y-107505672D01*
X125377574Y-107489836D01*
X125396086Y-107447052D01*
X125398642Y-107441835D01*
X125421097Y-107400992D01*
X125426080Y-107381580D01*
X125432377Y-107363191D01*
X125440338Y-107344795D01*
X125447629Y-107298753D01*
X125448808Y-107293062D01*
X125460400Y-107247919D01*
X125460400Y-107227883D01*
X125461927Y-107208482D01*
X125463017Y-107201606D01*
X125465060Y-107188704D01*
X125464993Y-107188000D01*
X125462998Y-107166894D01*
X125460672Y-107142294D01*
X125460400Y-107136499D01*
X125460400Y-105337499D01*
X125480085Y-105270459D01*
X125532889Y-105224705D01*
X125584395Y-105213499D01*
X126132008Y-105213499D01*
X126132016Y-105213498D01*
X126132019Y-105213498D01*
X126188302Y-105207748D01*
X126234797Y-105202999D01*
X126401334Y-105147814D01*
X126550656Y-105055712D01*
X126572318Y-105034049D01*
X126633640Y-105000564D01*
X126703331Y-105005547D01*
X126747681Y-105034049D01*
X126794344Y-105080712D01*
X126943666Y-105172814D01*
X127110203Y-105227999D01*
X127212991Y-105238500D01*
X127813008Y-105238499D01*
X127813016Y-105238498D01*
X127813019Y-105238498D01*
X127869302Y-105232748D01*
X127915797Y-105227999D01*
X128082334Y-105172814D01*
X128231656Y-105080712D01*
X128355712Y-104956656D01*
X128357752Y-104953347D01*
X128359745Y-104951555D01*
X128360193Y-104950989D01*
X128360289Y-104951065D01*
X128409694Y-104906623D01*
X128478656Y-104895395D01*
X128542740Y-104923234D01*
X128568829Y-104953339D01*
X128570681Y-104956341D01*
X128570683Y-104956344D01*
X128694654Y-105080315D01*
X128843875Y-105172356D01*
X128843880Y-105172358D01*
X129010302Y-105227505D01*
X129010309Y-105227506D01*
X129113019Y-105237999D01*
X129162998Y-105237998D01*
X129162999Y-105237998D01*
X129163000Y-104263000D01*
X129663000Y-104263000D01*
X129663000Y-105237999D01*
X129712972Y-105237999D01*
X129712986Y-105237998D01*
X129815697Y-105227505D01*
X129982119Y-105172358D01*
X129982124Y-105172356D01*
X130131345Y-105080315D01*
X130255315Y-104956345D01*
X130347356Y-104807124D01*
X130347358Y-104807119D01*
X130402505Y-104640697D01*
X130402506Y-104640690D01*
X130412999Y-104537986D01*
X130413000Y-104537973D01*
X130413000Y-104263000D01*
X129663000Y-104263000D01*
X129163000Y-104263000D01*
X129162999Y-102788000D01*
X129663000Y-102788000D01*
X129663000Y-103763000D01*
X130412999Y-103763000D01*
X130412999Y-103488028D01*
X130412998Y-103488013D01*
X130402505Y-103385302D01*
X130347358Y-103218880D01*
X130347356Y-103218875D01*
X130255315Y-103069654D01*
X130131345Y-102945684D01*
X129982124Y-102853643D01*
X129982119Y-102853641D01*
X129815697Y-102798494D01*
X129815690Y-102798493D01*
X129712986Y-102788000D01*
X129663000Y-102788000D01*
X129162999Y-102788000D01*
X129162998Y-102787999D01*
X129113029Y-102788000D01*
X129113011Y-102788001D01*
X129010302Y-102798494D01*
X128843880Y-102853641D01*
X128843875Y-102853643D01*
X128694654Y-102945684D01*
X128570683Y-103069655D01*
X128570679Y-103069660D01*
X128568826Y-103072665D01*
X128567018Y-103074290D01*
X128566202Y-103075323D01*
X128566025Y-103075183D01*
X128516874Y-103119385D01*
X128447911Y-103130601D01*
X128383831Y-103102752D01*
X128357753Y-103072653D01*
X128357737Y-103072628D01*
X128355712Y-103069344D01*
X128231656Y-102945288D01*
X128094625Y-102860767D01*
X128082336Y-102853187D01*
X128082331Y-102853185D01*
X128058312Y-102845226D01*
X127915797Y-102798001D01*
X127915795Y-102798000D01*
X127813010Y-102787500D01*
X127212998Y-102787500D01*
X127212980Y-102787501D01*
X127110203Y-102798000D01*
X127110200Y-102798001D01*
X126943668Y-102853185D01*
X126943663Y-102853187D01*
X126794342Y-102945289D01*
X126747680Y-102991951D01*
X126686357Y-103025435D01*
X126616665Y-103020450D01*
X126572320Y-102991952D01*
X126566356Y-102985988D01*
X126550656Y-102970288D01*
X126401334Y-102878186D01*
X126234797Y-102823001D01*
X126234795Y-102823000D01*
X126132010Y-102812500D01*
X125506998Y-102812500D01*
X125506980Y-102812501D01*
X125404203Y-102823000D01*
X125404196Y-102823002D01*
X125344375Y-102842825D01*
X125274547Y-102845226D01*
X125217691Y-102812800D01*
X124883157Y-102478266D01*
X124849672Y-102416943D01*
X124854656Y-102347251D01*
X124878745Y-102309772D01*
X124878036Y-102309212D01*
X124882513Y-102303549D01*
X124974556Y-102154324D01*
X124974558Y-102154319D01*
X125029705Y-101987897D01*
X125029706Y-101987890D01*
X125040199Y-101885186D01*
X125040200Y-101885173D01*
X125040200Y-101822700D01*
X123714200Y-101822700D01*
X123647161Y-101803015D01*
X123601406Y-101750211D01*
X123590200Y-101698700D01*
X123590200Y-101446700D01*
X123609885Y-101379661D01*
X123662689Y-101333906D01*
X123714200Y-101322700D01*
X125040198Y-101322700D01*
X125046511Y-101316387D01*
X125107833Y-101282901D01*
X125177525Y-101287885D01*
X125203813Y-101297689D01*
X125203815Y-101297690D01*
X125210743Y-101298434D01*
X125263426Y-101304099D01*
X126349771Y-101304098D01*
X126409382Y-101297690D01*
X126544230Y-101247395D01*
X126659445Y-101161145D01*
X126688159Y-101122788D01*
X126744092Y-101080918D01*
X126787425Y-101073100D01*
X129325775Y-101073100D01*
X129392814Y-101092785D01*
G37*
%TD.AperFunction*%
%TA.AperFunction,Conductor*%
G36*
X109360303Y-114591489D02*
G01*
X109387759Y-114625461D01*
X109394963Y-114638564D01*
X109410300Y-114698299D01*
X109410300Y-119494955D01*
X109408575Y-119510572D01*
X109408861Y-119510599D01*
X109408126Y-119518365D01*
X109410300Y-119587514D01*
X109410300Y-119617043D01*
X109410301Y-119617060D01*
X109411168Y-119623931D01*
X109411626Y-119629750D01*
X109413090Y-119676324D01*
X109413091Y-119676327D01*
X109418680Y-119695567D01*
X109422624Y-119714611D01*
X109424321Y-119728039D01*
X109426114Y-119742234D01*
X109423305Y-119742588D01*
X109421377Y-119798980D01*
X109381615Y-119856433D01*
X109317105Y-119883268D01*
X109303663Y-119883999D01*
X109279100Y-119883999D01*
X109212061Y-119864314D01*
X109166306Y-119811510D01*
X109155100Y-119759999D01*
X109155100Y-114685202D01*
X109174785Y-114618163D01*
X109227589Y-114572408D01*
X109296747Y-114562464D01*
X109360303Y-114591489D01*
G37*
%TD.AperFunction*%
%TA.AperFunction,Conductor*%
G36*
X87933999Y-116309350D02*
G01*
X88018420Y-116393771D01*
X88051905Y-116455094D01*
X88046921Y-116524786D01*
X88018420Y-116569133D01*
X87918785Y-116668767D01*
X87893272Y-116700423D01*
X87879744Y-116707809D01*
X87652570Y-116934982D01*
X87591247Y-116968466D01*
X87539109Y-116968590D01*
X87517200Y-116963933D01*
X87517200Y-116873621D01*
X87476954Y-116790049D01*
X87404433Y-116732215D01*
X87336896Y-116716800D01*
X87291104Y-116716800D01*
X87223567Y-116732215D01*
X87151046Y-116790049D01*
X87124578Y-116845008D01*
X87117770Y-116797654D01*
X87146795Y-116734098D01*
X87152827Y-116727620D01*
X87433998Y-116446448D01*
X87433998Y-116446447D01*
X87433999Y-115970000D01*
X87933999Y-115970000D01*
X87933999Y-116309350D01*
G37*
%TD.AperFunction*%
%TA.AperFunction,Conductor*%
G36*
X86656358Y-115331955D02*
G01*
X86598834Y-115444852D01*
X86579013Y-115570000D01*
X86598834Y-115695148D01*
X86656358Y-115808045D01*
X86668313Y-115820000D01*
X86623500Y-115820000D01*
X86556461Y-115800315D01*
X86510706Y-115747511D01*
X86499500Y-115696000D01*
X86499500Y-115444000D01*
X86519185Y-115376961D01*
X86571989Y-115331206D01*
X86623500Y-115320000D01*
X86668313Y-115320000D01*
X86656358Y-115331955D01*
G37*
%TD.AperFunction*%
%TA.AperFunction,Conductor*%
G36*
X84314340Y-112902068D02*
G01*
X84370274Y-112943939D01*
X84387189Y-112974917D01*
X84436202Y-113106328D01*
X84436206Y-113106335D01*
X84522452Y-113221544D01*
X84522455Y-113221547D01*
X84637664Y-113307793D01*
X84637671Y-113307797D01*
X84647774Y-113311565D01*
X84772517Y-113358091D01*
X84832127Y-113364500D01*
X84974500Y-113364499D01*
X85041539Y-113384183D01*
X85087294Y-113436987D01*
X85098500Y-113488499D01*
X85098500Y-114357313D01*
X85078815Y-114424352D01*
X85026011Y-114470107D01*
X84956853Y-114480051D01*
X84951035Y-114479072D01*
X84904039Y-114470015D01*
X84549000Y-114470015D01*
X84549000Y-115170015D01*
X84049000Y-115170015D01*
X84049000Y-114470015D01*
X83746602Y-114470015D01*
X83635287Y-114480644D01*
X83566680Y-114467420D01*
X83516113Y-114419205D01*
X83499500Y-114357205D01*
X83499500Y-113424359D01*
X83519185Y-113357320D01*
X83571989Y-113311565D01*
X83591408Y-113304584D01*
X83653653Y-113287906D01*
X83653654Y-113287905D01*
X83653663Y-113287903D01*
X83867830Y-113188035D01*
X84061401Y-113052495D01*
X84183329Y-112930566D01*
X84244648Y-112897084D01*
X84314340Y-112902068D01*
G37*
%TD.AperFunction*%
%TA.AperFunction,Conductor*%
G36*
X138212600Y-115162198D02*
G01*
X138104915Y-115113020D01*
X137998363Y-115097700D01*
X137926837Y-115097700D01*
X137820285Y-115113020D01*
X137712600Y-115162198D01*
X137712600Y-113493201D01*
X137820285Y-113542380D01*
X137926837Y-113557700D01*
X137998363Y-113557700D01*
X138104915Y-113542380D01*
X138212600Y-113493201D01*
X138212600Y-115162198D01*
G37*
%TD.AperFunction*%
%TA.AperFunction,Conductor*%
G36*
X110463966Y-111611207D02*
G01*
X110508314Y-111639708D01*
X110686505Y-111817899D01*
X110719990Y-111879222D01*
X110715006Y-111948914D01*
X110686505Y-111993261D01*
X110208854Y-112470912D01*
X110208854Y-112470913D01*
X110476707Y-112738766D01*
X110510192Y-112800089D01*
X110505208Y-112869781D01*
X110476707Y-112914128D01*
X109958089Y-113432747D01*
X109454399Y-113936437D01*
X109453247Y-113937786D01*
X109431298Y-113963482D01*
X109431295Y-113963486D01*
X109431295Y-113963487D01*
X109387760Y-114042675D01*
X109338215Y-114091938D01*
X109269900Y-114106594D01*
X109204506Y-114081990D01*
X109162795Y-114025937D01*
X109155100Y-113982936D01*
X109155100Y-112395750D01*
X109174785Y-112328711D01*
X109191414Y-112308074D01*
X109531034Y-111968455D01*
X109592357Y-111934970D01*
X109662049Y-111939954D01*
X109706396Y-111968455D01*
X109855301Y-112117360D01*
X109855302Y-112117360D01*
X110332952Y-111639708D01*
X110394275Y-111606223D01*
X110463966Y-111611207D01*
G37*
%TD.AperFunction*%
%TA.AperFunction,Conductor*%
G36*
X93175734Y-108801848D02*
G01*
X93220080Y-108830349D01*
X93255444Y-108865712D01*
X93357329Y-108928555D01*
X93358617Y-108929349D01*
X93405342Y-108981297D01*
X93416565Y-109050259D01*
X93388722Y-109114341D01*
X93359494Y-109139881D01*
X93223740Y-109225182D01*
X93223737Y-109225184D01*
X93096184Y-109352737D01*
X93000211Y-109505476D01*
X92940631Y-109675745D01*
X92940630Y-109675750D01*
X92920435Y-109854996D01*
X92920435Y-109855003D01*
X92940630Y-110034249D01*
X92940631Y-110034254D01*
X93000211Y-110204524D01*
X93081493Y-110333881D01*
X93100500Y-110399854D01*
X93100500Y-110783723D01*
X93080815Y-110850762D01*
X93028011Y-110896517D01*
X92963552Y-110905785D01*
X92963430Y-110906982D01*
X92853986Y-110895800D01*
X92579000Y-110895800D01*
X92579000Y-112021800D01*
X92559315Y-112088839D01*
X92506511Y-112134594D01*
X92455000Y-112145800D01*
X92203000Y-112145800D01*
X92135961Y-112126115D01*
X92090206Y-112073311D01*
X92079000Y-112021800D01*
X92079000Y-110895800D01*
X91804029Y-110895800D01*
X91804012Y-110895801D01*
X91701302Y-110906294D01*
X91587504Y-110944003D01*
X91517675Y-110946405D01*
X91457634Y-110910673D01*
X91426441Y-110848152D01*
X91424500Y-110826297D01*
X91424500Y-109949423D01*
X91429403Y-109914899D01*
X91429996Y-109912856D01*
X91442471Y-109869819D01*
X91445342Y-109833737D01*
X91446415Y-109826186D01*
X91453700Y-109790741D01*
X91453700Y-109731232D01*
X91453896Y-109726310D01*
X91458619Y-109666977D01*
X91454171Y-109631061D01*
X91453700Y-109623433D01*
X91453700Y-109030311D01*
X91473385Y-108963272D01*
X91526189Y-108917517D01*
X91595347Y-108907573D01*
X91642794Y-108924771D01*
X91696366Y-108957814D01*
X91862903Y-109012999D01*
X91965691Y-109023500D01*
X92590708Y-109023499D01*
X92590716Y-109023498D01*
X92590719Y-109023498D01*
X92647002Y-109017748D01*
X92693497Y-109012999D01*
X92860034Y-108957814D01*
X93009356Y-108865712D01*
X93044719Y-108830349D01*
X93106042Y-108796864D01*
X93175734Y-108801848D01*
G37*
%TD.AperFunction*%
%TA.AperFunction,Conductor*%
G36*
X88671719Y-89143985D02*
G01*
X88717474Y-89196789D01*
X88727418Y-89265947D01*
X88723893Y-89282422D01*
X88718639Y-89300778D01*
X88716006Y-89308172D01*
X88702459Y-89339743D01*
X88690113Y-89399819D01*
X88688990Y-89404395D01*
X88672113Y-89463377D01*
X88672113Y-89463379D01*
X88669503Y-89497641D01*
X88668414Y-89505408D01*
X88662980Y-89531852D01*
X88661500Y-89539058D01*
X88661500Y-89600397D01*
X88661321Y-89605106D01*
X88656662Y-89666274D01*
X88658707Y-89682327D01*
X88661003Y-89700360D01*
X88661500Y-89708188D01*
X88661500Y-90076658D01*
X88641815Y-90143697D01*
X88589011Y-90189452D01*
X88580847Y-90192834D01*
X88569669Y-90197004D01*
X88569664Y-90197006D01*
X88454455Y-90283252D01*
X88454452Y-90283255D01*
X88368206Y-90398464D01*
X88368202Y-90398471D01*
X88317908Y-90533317D01*
X88311501Y-90592916D01*
X88311500Y-90592935D01*
X88311500Y-92388670D01*
X88311501Y-92388676D01*
X88317908Y-92448283D01*
X88368202Y-92583128D01*
X88368206Y-92583135D01*
X88454452Y-92698344D01*
X88454455Y-92698347D01*
X88569664Y-92784593D01*
X88569666Y-92784594D01*
X88569669Y-92784596D01*
X88580828Y-92788758D01*
X88636763Y-92830626D01*
X88661183Y-92896089D01*
X88661499Y-92904941D01*
X88661500Y-97046500D01*
X88641815Y-97113539D01*
X88589011Y-97159294D01*
X88537500Y-97170500D01*
X86635351Y-97170500D01*
X86568312Y-97150815D01*
X86522557Y-97098011D01*
X86512061Y-97059752D01*
X86507091Y-97013516D01*
X86456797Y-96878671D01*
X86456793Y-96878664D01*
X86370547Y-96763455D01*
X86370544Y-96763452D01*
X86255335Y-96677206D01*
X86255328Y-96677202D01*
X86120482Y-96626908D01*
X86120483Y-96626908D01*
X86060883Y-96620501D01*
X86060881Y-96620500D01*
X86060873Y-96620500D01*
X86060864Y-96620500D01*
X83865129Y-96620500D01*
X83865123Y-96620501D01*
X83805516Y-96626908D01*
X83670671Y-96677202D01*
X83670664Y-96677206D01*
X83555455Y-96763452D01*
X83555452Y-96763455D01*
X83469206Y-96878664D01*
X83469202Y-96878671D01*
X83418908Y-97013517D01*
X83412501Y-97073116D01*
X83412500Y-97073135D01*
X83412500Y-99268870D01*
X83412501Y-99268876D01*
X83418908Y-99328483D01*
X83469202Y-99463328D01*
X83469206Y-99463335D01*
X83518082Y-99528624D01*
X83555454Y-99578546D01*
X83659434Y-99656386D01*
X83701305Y-99712319D01*
X83706289Y-99782011D01*
X83690851Y-99820441D01*
X83577667Y-100005140D01*
X83484303Y-100230542D01*
X83427348Y-100467780D01*
X83408207Y-100710999D01*
X83427348Y-100954219D01*
X83484303Y-101191457D01*
X83577668Y-101416861D01*
X83701504Y-101618942D01*
X84437070Y-100883375D01*
X84439884Y-100896915D01*
X84509442Y-101031156D01*
X84612638Y-101141652D01*
X84741819Y-101220209D01*
X84793001Y-101234549D01*
X84055056Y-101972494D01*
X84257138Y-102096331D01*
X84482542Y-102189696D01*
X84719780Y-102246651D01*
X84719779Y-102246651D01*
X84962999Y-102265792D01*
X85206219Y-102246651D01*
X85443457Y-102189696D01*
X85668861Y-102096331D01*
X85870942Y-101972494D01*
X85134569Y-101236120D01*
X85251458Y-101185349D01*
X85368739Y-101089934D01*
X85455928Y-100966415D01*
X85486354Y-100880802D01*
X86224494Y-101618942D01*
X86348331Y-101416861D01*
X86441696Y-101191457D01*
X86498651Y-100954219D01*
X86517792Y-100710999D01*
X86498651Y-100467780D01*
X86441696Y-100230542D01*
X86348331Y-100005138D01*
X86235149Y-99820442D01*
X86216904Y-99752996D01*
X86238020Y-99686394D01*
X86266560Y-99656389D01*
X86370546Y-99578546D01*
X86456796Y-99463331D01*
X86507091Y-99328483D01*
X86512062Y-99282242D01*
X86538799Y-99217694D01*
X86596191Y-99177846D01*
X86635351Y-99171500D01*
X89069217Y-99171500D01*
X89136256Y-99191185D01*
X89156898Y-99207819D01*
X89416380Y-99467301D01*
X89449865Y-99528624D01*
X89452699Y-99554982D01*
X89452700Y-105613058D01*
X89452700Y-107197740D01*
X89451039Y-107213433D01*
X89451389Y-107213469D01*
X89440200Y-107322983D01*
X89440200Y-107369717D01*
X89420515Y-107436756D01*
X89403881Y-107457398D01*
X88932099Y-107929181D01*
X88870776Y-107962666D01*
X88844418Y-107965500D01*
X86805311Y-107965500D01*
X86738272Y-107945815D01*
X86692517Y-107893011D01*
X86682573Y-107823853D01*
X86699771Y-107776405D01*
X86732814Y-107722834D01*
X86787999Y-107556297D01*
X86798500Y-107453509D01*
X86798499Y-106828492D01*
X86787999Y-106725703D01*
X86732814Y-106559166D01*
X86640712Y-106409844D01*
X86530065Y-106299198D01*
X86496581Y-106237875D01*
X86501565Y-106168183D01*
X86520483Y-106134603D01*
X86524704Y-106129263D01*
X86524712Y-106129256D01*
X86616814Y-105979934D01*
X86671999Y-105813397D01*
X86682500Y-105710609D01*
X86682499Y-104710592D01*
X86681614Y-104701933D01*
X86671999Y-104607803D01*
X86671998Y-104607800D01*
X86664554Y-104585337D01*
X86616814Y-104441266D01*
X86524712Y-104291944D01*
X86400656Y-104167888D01*
X86301707Y-104106856D01*
X86251336Y-104075787D01*
X86251331Y-104075785D01*
X86201706Y-104059341D01*
X86084797Y-104020601D01*
X86084795Y-104020600D01*
X85982010Y-104010100D01*
X85231998Y-104010100D01*
X85231980Y-104010101D01*
X85129203Y-104020600D01*
X85129200Y-104020601D01*
X84962668Y-104075785D01*
X84962663Y-104075787D01*
X84813342Y-104167889D01*
X84689285Y-104291946D01*
X84687537Y-104294782D01*
X84685829Y-104296317D01*
X84684807Y-104297611D01*
X84684585Y-104297436D01*
X84635589Y-104341505D01*
X84566626Y-104352726D01*
X84502544Y-104324882D01*
X84476463Y-104294782D01*
X84474714Y-104291946D01*
X84350657Y-104167889D01*
X84350656Y-104167888D01*
X84251707Y-104106856D01*
X84201336Y-104075787D01*
X84201331Y-104075785D01*
X84151706Y-104059341D01*
X84034797Y-104020601D01*
X84034795Y-104020600D01*
X83932010Y-104010100D01*
X83181998Y-104010100D01*
X83181980Y-104010101D01*
X83079203Y-104020600D01*
X83079200Y-104020601D01*
X82912668Y-104075785D01*
X82912663Y-104075787D01*
X82763342Y-104167889D01*
X82639289Y-104291942D01*
X82547187Y-104441263D01*
X82547185Y-104441268D01*
X82519506Y-104524800D01*
X82492001Y-104607803D01*
X82492001Y-104607804D01*
X82492000Y-104607804D01*
X82481500Y-104710583D01*
X82481500Y-105710601D01*
X82481501Y-105710619D01*
X82492000Y-105813396D01*
X82492001Y-105813399D01*
X82547185Y-105979931D01*
X82547187Y-105979936D01*
X82639289Y-106129257D01*
X82643520Y-106134608D01*
X82669659Y-106199404D01*
X82656617Y-106268046D01*
X82633934Y-106299198D01*
X82523287Y-106409845D01*
X82431187Y-106559163D01*
X82431185Y-106559168D01*
X82403527Y-106642636D01*
X82376001Y-106725703D01*
X82376001Y-106725704D01*
X82376000Y-106725704D01*
X82365500Y-106828483D01*
X82365500Y-107453501D01*
X82365501Y-107453519D01*
X82376000Y-107556296D01*
X82376001Y-107556299D01*
X82431185Y-107722831D01*
X82431187Y-107722836D01*
X82447555Y-107749372D01*
X82484117Y-107808650D01*
X82523289Y-107872157D01*
X82617304Y-107966172D01*
X82650789Y-108027495D01*
X82645805Y-108097187D01*
X82617305Y-108141534D01*
X82523682Y-108235157D01*
X82431643Y-108384375D01*
X82431641Y-108384380D01*
X82376494Y-108550802D01*
X82376493Y-108550809D01*
X82366000Y-108653513D01*
X82366000Y-108716000D01*
X83692000Y-108716000D01*
X83759039Y-108735685D01*
X83804794Y-108788489D01*
X83816000Y-108840000D01*
X83816000Y-109092000D01*
X83796315Y-109159039D01*
X83743511Y-109204794D01*
X83692000Y-109216000D01*
X82366001Y-109216000D01*
X82366001Y-109278486D01*
X82376494Y-109381197D01*
X82431641Y-109547619D01*
X82431643Y-109547624D01*
X82523684Y-109696845D01*
X82647654Y-109820815D01*
X82796875Y-109912856D01*
X82796880Y-109912858D01*
X82963302Y-109968005D01*
X82963309Y-109968006D01*
X83066019Y-109978499D01*
X83102212Y-109978499D01*
X83169252Y-109998182D01*
X83215008Y-110050985D01*
X83224953Y-110120143D01*
X83195930Y-110183699D01*
X83189896Y-110190180D01*
X82579991Y-110800087D01*
X82544719Y-110824786D01*
X82512169Y-110839965D01*
X82318597Y-110975505D01*
X82151505Y-111142597D01*
X82015965Y-111336169D01*
X82015964Y-111336171D01*
X81916098Y-111550335D01*
X81916094Y-111550344D01*
X81854938Y-111778586D01*
X81854936Y-111778596D01*
X81843955Y-111904097D01*
X81818501Y-111969166D01*
X81808115Y-111980962D01*
X81800536Y-111988543D01*
X81767008Y-112020415D01*
X81746300Y-112040100D01*
X81735945Y-112049943D01*
X81735944Y-112049944D01*
X81730073Y-112058380D01*
X81675618Y-112102157D01*
X81606140Y-112109544D01*
X81543697Y-112078195D01*
X81508116Y-112018065D01*
X81504300Y-111987540D01*
X81504300Y-92323800D01*
X83348141Y-92323800D01*
X83368736Y-92559203D01*
X83368738Y-92559213D01*
X83429894Y-92787455D01*
X83429896Y-92787459D01*
X83429897Y-92787463D01*
X83479831Y-92894545D01*
X83529764Y-93001628D01*
X83529765Y-93001630D01*
X83665305Y-93195202D01*
X83832397Y-93362294D01*
X84025969Y-93497834D01*
X84025971Y-93497835D01*
X84240137Y-93597703D01*
X84468392Y-93658863D01*
X84644834Y-93674300D01*
X84762766Y-93674300D01*
X84939208Y-93658863D01*
X85167463Y-93597703D01*
X85381629Y-93497835D01*
X85575201Y-93362295D01*
X85742295Y-93195201D01*
X85877835Y-93001630D01*
X85977703Y-92787463D01*
X86038863Y-92559208D01*
X86059459Y-92323800D01*
X86038863Y-92088392D01*
X85977703Y-91860137D01*
X85877835Y-91645971D01*
X85877834Y-91645969D01*
X85742294Y-91452397D01*
X85575202Y-91285305D01*
X85381630Y-91149765D01*
X85381628Y-91149764D01*
X85274546Y-91099831D01*
X85167463Y-91049897D01*
X85167459Y-91049896D01*
X85167455Y-91049894D01*
X84939213Y-90988738D01*
X84939203Y-90988736D01*
X84762766Y-90973300D01*
X84644834Y-90973300D01*
X84468396Y-90988736D01*
X84468386Y-90988738D01*
X84240144Y-91049894D01*
X84240135Y-91049898D01*
X84025971Y-91149764D01*
X84025969Y-91149765D01*
X83832397Y-91285305D01*
X83665306Y-91452397D01*
X83665301Y-91452404D01*
X83529767Y-91645965D01*
X83529765Y-91645969D01*
X83429898Y-91860135D01*
X83429894Y-91860144D01*
X83368738Y-92088386D01*
X83368736Y-92088396D01*
X83348141Y-92323799D01*
X83348141Y-92323800D01*
X81504300Y-92323800D01*
X81504300Y-90726833D01*
X81523985Y-90659794D01*
X81540619Y-90639152D01*
X83019153Y-89160619D01*
X83080476Y-89127134D01*
X83106834Y-89124300D01*
X88604680Y-89124300D01*
X88671719Y-89143985D01*
G37*
%TD.AperFunction*%
%TA.AperFunction,Conductor*%
G36*
X92452000Y-92821433D02*
G01*
X92665483Y-92764233D01*
X92665492Y-92764229D01*
X92879578Y-92664400D01*
X93073082Y-92528905D01*
X93240105Y-92361882D01*
X93370119Y-92176205D01*
X93424696Y-92132581D01*
X93494195Y-92125388D01*
X93556549Y-92156910D01*
X93573269Y-92176205D01*
X93703505Y-92362201D01*
X93870599Y-92529295D01*
X93967384Y-92597064D01*
X94064165Y-92664832D01*
X94064167Y-92664833D01*
X94064170Y-92664835D01*
X94278337Y-92764703D01*
X94506592Y-92825863D01*
X94694918Y-92842339D01*
X94741999Y-92846459D01*
X94742000Y-92846459D01*
X94742001Y-92846459D01*
X94781234Y-92843026D01*
X94977408Y-92825863D01*
X95077873Y-92798943D01*
X95147722Y-92800606D01*
X95197647Y-92831037D01*
X96857394Y-94490784D01*
X96867219Y-94503048D01*
X96867440Y-94502866D01*
X96872410Y-94508873D01*
X96872413Y-94508876D01*
X96872414Y-94508877D01*
X96922851Y-94556241D01*
X96943730Y-94577120D01*
X96949204Y-94581366D01*
X96953642Y-94585156D01*
X96987618Y-94617062D01*
X96987622Y-94617064D01*
X97005173Y-94626713D01*
X97021431Y-94637392D01*
X97037264Y-94649674D01*
X97059215Y-94659172D01*
X97080037Y-94668183D01*
X97085281Y-94670752D01*
X97126108Y-94693197D01*
X97145512Y-94698179D01*
X97163910Y-94704478D01*
X97182305Y-94712438D01*
X97228329Y-94719726D01*
X97234032Y-94720907D01*
X97279181Y-94732500D01*
X97299216Y-94732500D01*
X97318613Y-94734026D01*
X97338396Y-94737160D01*
X97384783Y-94732775D01*
X97390622Y-94732500D01*
X98495548Y-94732500D01*
X98562587Y-94752185D01*
X98583229Y-94768819D01*
X102238229Y-98423819D01*
X102271714Y-98485142D01*
X102266730Y-98554834D01*
X102224858Y-98610767D01*
X102159394Y-98635184D01*
X102150548Y-98635500D01*
X102104000Y-98635500D01*
X102104000Y-99398000D01*
X103061043Y-99398000D01*
X103106844Y-99372990D01*
X103176535Y-99377973D01*
X103220885Y-99406475D01*
X110336181Y-106521771D01*
X110369666Y-106583094D01*
X110372500Y-106609452D01*
X110372500Y-108722109D01*
X110370784Y-108737623D01*
X110371088Y-108737652D01*
X110370350Y-108745418D01*
X110372500Y-108814682D01*
X110372500Y-108844354D01*
X110373050Y-108848701D01*
X110373266Y-108850417D01*
X110373352Y-108851093D01*
X110373811Y-108856945D01*
X110375251Y-108903378D01*
X110377008Y-108909436D01*
X110380876Y-108922768D01*
X110384806Y-108941765D01*
X110387335Y-108961787D01*
X110387338Y-108961797D01*
X110404439Y-109004990D01*
X110406339Y-109010543D01*
X110417013Y-109047335D01*
X110419283Y-109055161D01*
X110429552Y-109072540D01*
X110438084Y-109089966D01*
X110439685Y-109094010D01*
X110445514Y-109108733D01*
X110472818Y-109146313D01*
X110476039Y-109151218D01*
X110499677Y-109191223D01*
X110513941Y-109205498D01*
X110526538Y-109220252D01*
X110538406Y-109236587D01*
X110574206Y-109266203D01*
X110578537Y-109270146D01*
X110754627Y-109446376D01*
X110788088Y-109507712D01*
X110783076Y-109577402D01*
X110754593Y-109621702D01*
X110585775Y-109790523D01*
X110585770Y-109790529D01*
X110578420Y-109799133D01*
X110562667Y-109817576D01*
X110562665Y-109817578D01*
X110491538Y-109946957D01*
X110442717Y-109995825D01*
X110442459Y-109995966D01*
X110442205Y-109996106D01*
X110382367Y-110011500D01*
X110060643Y-110011500D01*
X110045022Y-110009775D01*
X110044995Y-110010061D01*
X110037233Y-110009326D01*
X109968072Y-110011500D01*
X109938549Y-110011500D01*
X109931677Y-110012367D01*
X109925858Y-110012825D01*
X109889880Y-110013956D01*
X109822255Y-109996387D01*
X109774864Y-109945046D01*
X109762765Y-109903899D01*
X109751369Y-109802750D01*
X109751368Y-109802745D01*
X109742461Y-109777289D01*
X109691789Y-109632478D01*
X109687881Y-109626259D01*
X109638472Y-109547624D01*
X109595816Y-109479738D01*
X109468262Y-109352184D01*
X109444883Y-109337494D01*
X109315523Y-109256211D01*
X109145254Y-109196631D01*
X109145249Y-109196630D01*
X108966004Y-109176435D01*
X108965996Y-109176435D01*
X108786750Y-109196630D01*
X108786745Y-109196631D01*
X108616476Y-109256211D01*
X108487117Y-109337494D01*
X108421145Y-109356500D01*
X105770254Y-109356500D01*
X105703215Y-109336815D01*
X105657460Y-109284011D01*
X105647516Y-109214853D01*
X105676541Y-109151297D01*
X105699131Y-109130925D01*
X105754721Y-109092000D01*
X105895401Y-108993495D01*
X106062495Y-108826401D01*
X106198035Y-108632830D01*
X106215460Y-108595460D01*
X106261633Y-108543020D01*
X106328827Y-108523868D01*
X106395708Y-108544084D01*
X106425755Y-108574682D01*
X106426841Y-108573816D01*
X106431184Y-108579262D01*
X106558738Y-108706816D01*
X106614187Y-108741657D01*
X106697633Y-108794090D01*
X106711478Y-108802789D01*
X106866247Y-108856945D01*
X106881745Y-108862368D01*
X106881750Y-108862369D01*
X107060996Y-108882565D01*
X107061000Y-108882565D01*
X107061004Y-108882565D01*
X107240249Y-108862369D01*
X107240252Y-108862368D01*
X107240255Y-108862368D01*
X107410522Y-108802789D01*
X107563262Y-108706816D01*
X107690816Y-108579262D01*
X107786789Y-108426522D01*
X107846368Y-108256255D01*
X107848745Y-108235157D01*
X107866565Y-108077003D01*
X107866565Y-108076996D01*
X107846369Y-107897750D01*
X107846368Y-107897745D01*
X107845639Y-107895663D01*
X107786789Y-107727478D01*
X107744175Y-107659659D01*
X107705934Y-107598798D01*
X107686934Y-107531561D01*
X107688371Y-107519136D01*
X107687939Y-107519096D01*
X107688671Y-107511340D01*
X107688673Y-107511333D01*
X107686500Y-107442185D01*
X107686500Y-107412650D01*
X107685631Y-107405772D01*
X107685172Y-107399943D01*
X107683709Y-107353372D01*
X107678122Y-107334144D01*
X107674174Y-107315084D01*
X107671664Y-107295208D01*
X107671663Y-107295206D01*
X107671663Y-107295204D01*
X107654512Y-107251887D01*
X107652619Y-107246358D01*
X107639618Y-107201609D01*
X107639616Y-107201606D01*
X107629423Y-107184371D01*
X107620861Y-107166894D01*
X107613487Y-107148270D01*
X107609162Y-107142317D01*
X107586079Y-107110545D01*
X107582888Y-107105686D01*
X107579226Y-107099494D01*
X107559170Y-107065580D01*
X107559168Y-107065578D01*
X107559165Y-107065574D01*
X107545006Y-107051415D01*
X107532368Y-107036619D01*
X107520594Y-107020413D01*
X107484688Y-106990709D01*
X107480376Y-106986786D01*
X106364237Y-105870647D01*
X106330752Y-105809324D01*
X106332143Y-105750872D01*
X106342930Y-105710616D01*
X106359063Y-105650408D01*
X106379659Y-105415000D01*
X106359063Y-105179592D01*
X106301837Y-104966019D01*
X106297905Y-104951344D01*
X106297904Y-104951343D01*
X106297903Y-104951337D01*
X106198035Y-104737171D01*
X106197182Y-104735952D01*
X106062494Y-104543597D01*
X105895402Y-104376506D01*
X105895395Y-104376501D01*
X105701834Y-104240967D01*
X105701830Y-104240965D01*
X105614969Y-104200461D01*
X105487663Y-104141097D01*
X105487659Y-104141096D01*
X105487655Y-104141094D01*
X105259413Y-104079938D01*
X105259403Y-104079936D01*
X105024001Y-104059341D01*
X105023999Y-104059341D01*
X104788596Y-104079936D01*
X104788586Y-104079938D01*
X104688126Y-104106856D01*
X104618276Y-104105193D01*
X104568352Y-104074762D01*
X102884910Y-102391319D01*
X102851425Y-102329996D01*
X102856409Y-102260304D01*
X102884913Y-102215954D01*
X102896712Y-102204156D01*
X102988814Y-102054834D01*
X103043999Y-101888297D01*
X103054500Y-101785509D01*
X103054499Y-101160492D01*
X103052574Y-101141652D01*
X103043999Y-101057703D01*
X103043998Y-101057700D01*
X103010326Y-100956086D01*
X102988814Y-100891166D01*
X102896712Y-100741844D01*
X102802694Y-100647827D01*
X102769210Y-100586504D01*
X102774194Y-100516812D01*
X102802695Y-100472464D01*
X102896317Y-100378842D01*
X102988356Y-100229624D01*
X102988358Y-100229619D01*
X103043505Y-100063197D01*
X103043506Y-100063190D01*
X103053999Y-99960486D01*
X103054000Y-99960473D01*
X103054000Y-99898000D01*
X101728000Y-99898000D01*
X101660961Y-99878315D01*
X101615206Y-99825511D01*
X101604000Y-99774000D01*
X101604000Y-98635500D01*
X101354029Y-98635500D01*
X101354012Y-98635501D01*
X101251302Y-98645994D01*
X101129659Y-98686303D01*
X101059831Y-98688705D01*
X100999789Y-98652973D01*
X100968596Y-98590453D01*
X100967297Y-98581198D01*
X100961199Y-98521503D01*
X100961198Y-98521500D01*
X100934952Y-98442295D01*
X100906014Y-98354966D01*
X100813912Y-98205644D01*
X100689856Y-98081588D01*
X100540534Y-97989486D01*
X100373997Y-97934301D01*
X100373995Y-97934300D01*
X100271210Y-97923800D01*
X99271198Y-97923800D01*
X99271180Y-97923801D01*
X99168403Y-97934300D01*
X99168400Y-97934301D01*
X99001868Y-97989485D01*
X99001863Y-97989487D01*
X98932740Y-98032122D01*
X98870942Y-98070239D01*
X98805848Y-98088700D01*
X90918983Y-98088700D01*
X90851944Y-98069015D01*
X90831306Y-98052385D01*
X90698818Y-97919897D01*
X90665334Y-97858574D01*
X90662500Y-97832216D01*
X90662500Y-92904941D01*
X90682185Y-92837902D01*
X90734989Y-92792147D01*
X90743149Y-92788766D01*
X90754331Y-92784596D01*
X90759914Y-92780417D01*
X90805517Y-92746278D01*
X90869546Y-92698346D01*
X90955796Y-92583131D01*
X91005002Y-92451201D01*
X91046872Y-92395268D01*
X91112337Y-92370850D01*
X91180610Y-92385701D01*
X91208865Y-92406853D01*
X91330917Y-92528905D01*
X91524421Y-92664400D01*
X91738507Y-92764229D01*
X91738516Y-92764233D01*
X91952000Y-92821434D01*
X91952000Y-91926301D01*
X92059685Y-91975480D01*
X92166237Y-91990800D01*
X92237763Y-91990800D01*
X92344315Y-91975480D01*
X92452000Y-91926301D01*
X92452000Y-92821433D01*
G37*
%TD.AperFunction*%
%TA.AperFunction,Conductor*%
G36*
X119122000Y-92821433D02*
G01*
X119335483Y-92764233D01*
X119335492Y-92764229D01*
X119549578Y-92664400D01*
X119743082Y-92528905D01*
X119910105Y-92361882D01*
X120040119Y-92176205D01*
X120094696Y-92132581D01*
X120164195Y-92125388D01*
X120226549Y-92156910D01*
X120243269Y-92176205D01*
X120373505Y-92362201D01*
X120540599Y-92529295D01*
X120637384Y-92597064D01*
X120734165Y-92664832D01*
X120734167Y-92664833D01*
X120734170Y-92664835D01*
X120948337Y-92764703D01*
X121176592Y-92825863D01*
X121364918Y-92842339D01*
X121411999Y-92846459D01*
X121412000Y-92846459D01*
X121412001Y-92846459D01*
X121451234Y-92843026D01*
X121647408Y-92825863D01*
X121875663Y-92764703D01*
X122089830Y-92664835D01*
X122283401Y-92529295D01*
X122450495Y-92362201D01*
X122580426Y-92176641D01*
X122635002Y-92133017D01*
X122704500Y-92125823D01*
X122766855Y-92157346D01*
X122783575Y-92176642D01*
X122913500Y-92362195D01*
X122913505Y-92362201D01*
X123080599Y-92529295D01*
X123177384Y-92597064D01*
X123274165Y-92664832D01*
X123274167Y-92664833D01*
X123274170Y-92664835D01*
X123488337Y-92764703D01*
X123716592Y-92825863D01*
X123904918Y-92842339D01*
X123951999Y-92846459D01*
X123952000Y-92846459D01*
X123952001Y-92846459D01*
X123991234Y-92843026D01*
X124187408Y-92825863D01*
X124415663Y-92764703D01*
X124629830Y-92664835D01*
X124823401Y-92529295D01*
X124990495Y-92362201D01*
X125120426Y-92176640D01*
X125175001Y-92133017D01*
X125244499Y-92125823D01*
X125306854Y-92157346D01*
X125323574Y-92176641D01*
X125453505Y-92362201D01*
X125620599Y-92529295D01*
X125717384Y-92597065D01*
X125814165Y-92664832D01*
X125814167Y-92664833D01*
X125814170Y-92664835D01*
X126028337Y-92764703D01*
X126256592Y-92825863D01*
X126444918Y-92842339D01*
X126491999Y-92846459D01*
X126492000Y-92846459D01*
X126492001Y-92846459D01*
X126531234Y-92843026D01*
X126727408Y-92825863D01*
X126955663Y-92764703D01*
X127169830Y-92664835D01*
X127363401Y-92529295D01*
X127530495Y-92362201D01*
X127660426Y-92176641D01*
X127715002Y-92133017D01*
X127784500Y-92125823D01*
X127846855Y-92157346D01*
X127863575Y-92176642D01*
X127993501Y-92362196D01*
X127993506Y-92362202D01*
X128135525Y-92504221D01*
X128169010Y-92565544D01*
X128164026Y-92635236D01*
X128135525Y-92679583D01*
X122397708Y-98417399D01*
X122385451Y-98427220D01*
X122385634Y-98427441D01*
X122379623Y-98432413D01*
X122332272Y-98482836D01*
X122311389Y-98503719D01*
X122311377Y-98503732D01*
X122307121Y-98509217D01*
X122303337Y-98513647D01*
X122271437Y-98547618D01*
X122271436Y-98547620D01*
X122261784Y-98565176D01*
X122251110Y-98581426D01*
X122238829Y-98597261D01*
X122238824Y-98597268D01*
X122220315Y-98640038D01*
X122217745Y-98645284D01*
X122195303Y-98686106D01*
X122190322Y-98705507D01*
X122184021Y-98723910D01*
X122176062Y-98742302D01*
X122176061Y-98742305D01*
X122168771Y-98788327D01*
X122167587Y-98794046D01*
X122156001Y-98839172D01*
X122156000Y-98839182D01*
X122156000Y-98859216D01*
X122154473Y-98878615D01*
X122151340Y-98898394D01*
X122151340Y-98898395D01*
X122155725Y-98944783D01*
X122156000Y-98950621D01*
X122155999Y-101967855D01*
X122154276Y-101983472D01*
X122154561Y-101983499D01*
X122153826Y-101991265D01*
X122156000Y-102060414D01*
X122156000Y-102089943D01*
X122156001Y-102089960D01*
X122156868Y-102096831D01*
X122157326Y-102102650D01*
X122158790Y-102149224D01*
X122158791Y-102149227D01*
X122164380Y-102168467D01*
X122168324Y-102187511D01*
X122170836Y-102207391D01*
X122187990Y-102250719D01*
X122189882Y-102256247D01*
X122201787Y-102297223D01*
X122202882Y-102300990D01*
X122208075Y-102309772D01*
X122213080Y-102318234D01*
X122221636Y-102335700D01*
X122229014Y-102354332D01*
X122255886Y-102391319D01*
X122256398Y-102392023D01*
X122259606Y-102396907D01*
X122283327Y-102437016D01*
X122283333Y-102437024D01*
X122297490Y-102451180D01*
X122310127Y-102465975D01*
X122321906Y-102482187D01*
X122349707Y-102505186D01*
X122357809Y-102511888D01*
X122362120Y-102515810D01*
X122448681Y-102602371D01*
X122520129Y-102673819D01*
X122553614Y-102735142D01*
X122548630Y-102804834D01*
X122506758Y-102860767D01*
X122441294Y-102885184D01*
X122432448Y-102885500D01*
X121877782Y-102885500D01*
X121810743Y-102865815D01*
X121790101Y-102849181D01*
X120543819Y-101602899D01*
X120510334Y-101541576D01*
X120507500Y-101515218D01*
X120507500Y-96405698D01*
X120509757Y-96316641D01*
X120509756Y-96316640D01*
X120509757Y-96316637D01*
X120498933Y-96256249D01*
X120498280Y-96251587D01*
X120492074Y-96190563D01*
X120492074Y-96190562D01*
X120481784Y-96157768D01*
X120479917Y-96150155D01*
X120476286Y-96129897D01*
X120473858Y-96116347D01*
X120451100Y-96059374D01*
X120449521Y-96054938D01*
X120449007Y-96053300D01*
X120431159Y-95996412D01*
X120431158Y-95996410D01*
X120431157Y-95996407D01*
X120414488Y-95966378D01*
X120411117Y-95959278D01*
X120398378Y-95927386D01*
X120398377Y-95927383D01*
X120364620Y-95876163D01*
X120362180Y-95872134D01*
X120351379Y-95852675D01*
X120332409Y-95818498D01*
X120332407Y-95818495D01*
X120310033Y-95792434D01*
X120305302Y-95786159D01*
X120286402Y-95757481D01*
X120243012Y-95714091D01*
X120239822Y-95710648D01*
X120199867Y-95664106D01*
X120199863Y-95664102D01*
X120172698Y-95643074D01*
X120166811Y-95637890D01*
X117462145Y-92933225D01*
X117428661Y-92871903D01*
X117433645Y-92802211D01*
X117475514Y-92746280D01*
X117539546Y-92698346D01*
X117625796Y-92583131D01*
X117675002Y-92451201D01*
X117716872Y-92395268D01*
X117782337Y-92370850D01*
X117850610Y-92385701D01*
X117878865Y-92406853D01*
X118000917Y-92528905D01*
X118194421Y-92664400D01*
X118408507Y-92764229D01*
X118408516Y-92764233D01*
X118622000Y-92821434D01*
X118622000Y-91926301D01*
X118729685Y-91975480D01*
X118836237Y-91990800D01*
X118907763Y-91990800D01*
X119014315Y-91975480D01*
X119122000Y-91926301D01*
X119122000Y-92821433D01*
G37*
%TD.AperFunction*%
%TD*%
M02*
